<?xml version="1.0" encoding="UTF-8"?>
<svg width="120px" height="44px" viewBox="0 0 120 44" version="1.1" xmlns="http://www.w3.org/2000/svg" xmlns:xlink="http://www.w3.org/1999/xlink">
    <!-- Generator: Sketch 54.1 (76490) - https://sketchapp.com -->
    <title>logo</title>
    <desc>Created with Sketch.</desc>
    <g id="Page-1" stroke="none" stroke-width="1" fill="none" fill-rule="evenodd">
        <g id="首页" transform="translate(-374.000000, -3263.000000)">
            <g id="底部导航" transform="translate(1.000000, 3206.000000)">
                <g id="编组" transform="translate(373.000000, 57.000000)">
                    <path d="M44.4744603,30.8259669 L37.4385487,13.2983425 L41.665068,13.2983425 L46.2147918,25.5552486 L50.7645155,13.2983425 L54.8915874,13.2983425 L47.8556758,30.8259669 L44.4744603,30.8259669 Z M63.773493,31 C58.3536035,31 54.6243218,27.1961326 54.6243218,22.0497238 L54.6243218,22 C54.6243218,17.0524862 58.4779129,13 63.7486312,13 C66.8812279,13 68.7707306,13.8453039 70.5856477,15.3867403 L68.1740455,18.2955801 C66.8315041,17.1767956 65.6381339,16.5303867 63.6243218,16.5303867 C60.8397914,16.5303867 58.6270842,18.9917127 58.6270842,21.9502762 L58.6270842,22 C58.6270842,25.1823204 60.8149295,27.519337 63.8978024,27.519337 C65.2900676,27.519337 66.5331616,27.1712707 67.5027748,26.4751381 L67.5027748,23.9889503 L63.6491837,23.9889503 L63.6491837,20.6823204 L71.2071947,20.6823204 L71.2071947,28.2403315 C69.4171395,29.7569061 66.9558135,31 63.773493,31 Z M73.39504,30.7016575 L80.8536035,13.1740331 L84.3839903,13.1740331 L91.8425538,30.7016575 L87.8397914,30.7016575 L86.2486312,26.7983425 L78.8895151,26.7983425 L77.2983549,30.7016575 L73.39504,30.7016575 Z M80.2569185,23.4171271 L84.8812279,23.4171271 L82.5690732,17.7734807 L80.2569185,23.4171271 Z M94.2168624,30.7016575 L94.2168624,16.8287293 L88.9212823,16.8287293 L88.9212823,13.2983425 L103.341172,13.2983425 L103.341172,16.8287293 L98.0455917,16.8287293 L98.0455917,30.7016575 L94.2168624,30.7016575 Z M106.274873,30.7016575 L106.274873,13.2983425 L119.401945,13.2983425 L119.401945,16.7044199 L110.078741,16.7044199 L110.078741,20.2348066 L118.283161,20.2348066 L118.283161,23.640884 L110.078741,23.640884 L110.078741,27.2955801 L119.526255,27.2955801 L119.526255,30.7016575 L106.274873,30.7016575 Z" id="VGATE" fill="#32325C" fill-rule="nonzero"></path>
                    <path d="M14.4667111,26.2420889 L11.1892,21.8988 L21.1478667,8.81026667 L29.0747111,19.3810222 L22.5260444,19.3810222 L21.1170667,17.5022222 L14.4667111,26.2420889 Z M22.5260444,24.6194667 L29.0747111,24.6194667 L14.5385778,44 L0.00244444444,24.6194667 L6.54964444,24.6194667 L14.5385778,35.2699111 L22.5260444,24.6194667 Z M14.5209778,2.84217094e-14 L17.8014222,4.35648889 L6.54768889,19.3805333 L1.77635684e-14,19.3805333 L14.5209778,2.84217094e-14 Z" id="形状结合" fill="#1FDB84"></path>
                </g>
            </g>
        </g>
    </g>
</svg>