<?xml version="1.0" encoding="UTF-8"?>
<svg width="1170px" height="280px" viewBox="0 0 1170 280" version="1.1" xmlns="http://www.w3.org/2000/svg" xmlns:xlink="http://www.w3.org/1999/xlink">
    <!-- Generator: Sketch 54.1 (76490) - https://sketchapp.com -->
    <title>dots/screens</title>
    <desc>Created with Sketch.</desc>
    <g id="Page-1" stroke="none" stroke-width="1" fill="none" fill-rule="evenodd" opacity="0.15">
        <g id="首页" transform="translate(-375.000000, -2926.000000)" fill="#00E676">
            <g id="编组" transform="translate(0.000000, 2926.000000)">
                <g id="dots/screens" transform="translate(350.000000, -132.000000)">
                    <g id="Group-2" transform="translate(103.000000, 369.000000)">
                        <circle id="Oval-Copy-12" cx="291" cy="12" r="3"></circle>
                        <circle id="Oval-Copy-13" cx="300" cy="12" r="3"></circle>
                        <circle id="Oval-Copy-14" cx="300" cy="21" r="3"></circle>
                        <circle id="Oval-Copy-15" cx="291" cy="3" r="3"></circle>
                    </g>
                    <g id="Group-2-Copy-2" transform="translate(189.500000, 163.500000) rotate(-180.000000) translate(-189.500000, -163.500000) translate(0.000000, 91.000000)">
                        <circle id="Oval-Copy" cx="189" cy="96" r="3"></circle>
                        <circle id="Oval-Copy-4" cx="3" cy="77" r="3"></circle>
                        <circle id="Oval-Copy-9" cx="13" cy="77" r="3"></circle>
                        <circle id="Oval-Copy-10" cx="13" cy="68" r="3"></circle>
                        <circle id="Oval-Copy-12" cx="291" cy="12" r="3"></circle>
                        <circle id="Oval-Copy-13" cx="300" cy="12" r="3"></circle>
                        <circle id="Oval-Copy-14" cx="300" cy="21" r="3"></circle>
                        <circle id="Oval-Copy-15" cx="291" cy="3" r="3"></circle>
                        <circle id="Oval-Copy-3" cx="180" cy="96" r="3"></circle>
                        <circle id="Oval-Copy-2" cx="226" cy="77" r="3"></circle>
                        <circle id="Oval-Copy-11" cx="236" cy="77" r="3"></circle>
                    </g>
                    <g id="Group-2-Copy-4" transform="translate(608.500000, 72.500000) rotate(-180.000000) translate(-608.500000, -72.500000) translate(419.000000, 0.000000)">
                        <circle id="Oval-Copy-12" cx="291" cy="12" r="3"></circle>
                        <circle id="Oval-Copy-13" cx="300" cy="12" r="3"></circle>
                        <circle id="Oval-Copy-15" cx="291" cy="3" r="3"></circle>
                    </g>
                    <g id="Group-2-Copy" transform="translate(1148.500000, 354.500000) rotate(-270.000000) translate(-1148.500000, -354.500000) translate(959.000000, 282.000000)">
                        <circle id="Oval" cx="189" cy="114" r="3"></circle>
                        <circle id="Oval-Copy" cx="189" cy="96" r="3"></circle>
                        <circle id="Oval-Copy-4" cx="3" cy="77" r="3"></circle>
                        <circle id="Oval-Copy-9" cx="13" cy="77" r="3"></circle>
                        <circle id="Oval-Copy-10" cx="13" cy="68" r="3"></circle>
                        <circle id="Oval-Copy-5" cx="59" cy="133" r="3"></circle>
                        <circle id="Oval-Copy-8" cx="59" cy="142" r="3"></circle>
                        <circle id="Oval-Copy-6" cx="68" cy="133" r="3"></circle>
                        <circle id="Oval-Copy-7" cx="68" cy="124" r="3"></circle>
                        <circle id="Oval-Copy-3" cx="180" cy="96" r="3"></circle>
                        <circle id="Oval-Copy-2" cx="226" cy="77" r="3"></circle>
                        <circle id="Oval-Copy-11" cx="236" cy="77" r="3"></circle>
                    </g>
                    <g id="Group-2-Copy-3" transform="translate(899.500000, 287.500000) rotate(-90.000000) translate(-899.500000, -287.500000) translate(710.000000, 215.000000)">
                        <circle id="Oval" cx="189" cy="114" r="3"></circle>
                        <circle id="Oval-Copy" cx="189" cy="96" r="3"></circle>
                        <circle id="Oval-Copy-12" cx="291" cy="12" r="3"></circle>
                        <circle id="Oval-Copy-13" cx="300" cy="12" r="3"></circle>
                        <circle id="Oval-Copy-14" cx="300" cy="21" r="3"></circle>
                        <circle id="Oval-Copy-15" cx="291" cy="3" r="3"></circle>
                        <circle id="Oval-Copy-6" cx="68" cy="133" r="3"></circle>
                        <circle id="Oval-Copy-7" cx="68" cy="124" r="3"></circle>
                        <circle id="Oval-Copy-3" cx="180" cy="96" r="3"></circle>
                        <circle id="Oval-Copy-2" cx="226" cy="77" r="3"></circle>
                        <circle id="Oval-Copy-11" cx="236" cy="77" r="3"></circle>
                        <circle id="Oval-Copy-16" cx="346" cy="133" r="3"></circle>
                    </g>
                </g>
            </g>
        </g>
    </g>
</svg>