<?xml version="1.0" encoding="UTF-8"?>
<svg width="40px" height="40px" viewBox="0 0 40 40" version="1.1" xmlns="http://www.w3.org/2000/svg" xmlns:xlink="http://www.w3.org/1999/xlink">
    <!-- Generator: Sketch 58 (84663) - https://sketch.com -->
    <title>discord</title>
    <desc>Created with Sketch.</desc>
    <g id="组件" stroke="none" stroke-width="1" fill="none" fill-rule="evenodd">
        <g id="底部导航" transform="translate(-560.000000, -131.000000)">
            <g id="discord" transform="translate(560.000000, 131.000000)">
                <circle id="椭圆形" stroke="#929DC5" stroke-width="0.5" cx="20" cy="20" r="19.75"></circle>
                <path d="M23.6592662,25.9946899 C24.8890273,25.6108338 25.9268604,25.0137244 26.7443317,23.9687828 C22.2731192,26.5491487 17.8587743,26.4709558 13.4515377,24.0185419 C13.5581644,24.2957713 14.0557557,24.8075794 14.7097327,25.198544 C15.2144323,25.4970987 15.7617827,25.7387859 16.3020246,26.0089068 C16.2522655,26.0728828 16.181181,26.1724011 16.1029881,26.2719193 C15.9181685,26.506498 15.7049151,26.7197514 15.5485293,26.968547 C15.3423844,27.2955355 15.0864803,27.3879453 14.6955158,27.3452947 C13.089007,27.1604751 11.6744262,26.5989078 10.5157495,25.4402311 C10.0963512,25.0279413 9.97550765,24.5872176 10.0039414,23.9901081 C10.1461104,21.2604649 10.7929789,18.6516652 11.8237036,16.1352753 C11.9658725,15.7869615 12.1506921,15.4528645 12.292861,15.1045507 C12.3923793,14.8557551 12.562982,14.6922608 12.7833438,14.5500919 C13.8638276,13.8321388 15.0225043,13.3132223 16.309133,13.0928604 C16.5721455,13.0502098 16.835158,13.0146675 17.105279,13.0004506 C17.2047972,12.9933422 17.3114239,13.0715351 17.4038337,13.149728 C16.3375668,13.5122588 15.3068421,13.8961148 14.3472019,14.4576821 C13.9633459,14.6780439 13.6008151,14.9410564 13.2311759,15.1827436 C13.152983,15.2325027 13.0818986,15.3035871 12.9894888,15.3817801 C17.5460026,13.2065956 22.0811912,13.0999689 26.6234882,15.3249125 C25.4079439,14.3439469 24.00758,13.7326206 22.5361317,13.2563547 C22.6427584,13.0359929 22.7920358,12.9862338 23.0266145,13.0075591 C24.6189064,13.1568365 26.0405956,13.739729 27.3343328,14.6496101 C27.4551763,14.7349115 27.5689115,14.8557551 27.6399959,14.9908155 C28.6493953,17.0309395 29.3246976,19.1705818 29.7085537,21.4097423 C29.8862649,22.4546838 29.9786747,23.5138423 30,24.5730007 C30,24.7080612 29.9502409,24.8715554 29.8649395,24.9781821 C29.011926,26.0870997 27.8816831,26.7695105 26.5452953,27.1178244 C26.0334871,27.2528849 25.4932452,27.2955355 24.9672202,27.36662 C24.8819189,27.3808369 24.7610753,27.3524031 24.7113162,27.2955355 C24.3558939,26.8619203 24.0217969,26.442522 23.6592662,25.9946899 Z M16.8067242,23.1797453 C17.1905803,23.1797453 17.5317857,23.0589017 17.8303405,22.8172146 C18.3279317,22.4120331 18.4914259,21.8646828 18.5696189,21.2391395 C18.7260047,19.924077 17.2403395,18.9644368 16.0887712,19.5046787 C15.2784084,19.8885348 14.8519016,20.8766088 15.1078057,21.8007068 C15.3352759,22.632395 16.0105783,23.1797453 16.8067242,23.1797453 Z M23.0550483,23.2081791 C23.2540848,23.15842 23.4673381,23.1370946 23.6521577,23.0589017 C24.8108344,22.5968527 25.1804736,21.0472115 24.3843277,20.0093784 C23.751676,19.1919071 22.5716739,19.1137142 21.8466125,19.8529926 C21.377455,20.3292585 21.2352861,20.912151 21.3063706,21.5661281 C21.4201057,22.4617923 22.1878179,23.1797453 23.0550483,23.2081791 Z" id="Shape" fill="#929DC5" fill-rule="nonzero"></path>
            </g>
        </g>
    </g>
</svg>