<?xml version="1.0" encoding="UTF-8"?>
<svg width="40px" height="40px" viewBox="0 0 40 40" version="1.1" xmlns="http://www.w3.org/2000/svg" xmlns:xlink="http://www.w3.org/1999/xlink">
    <!-- Generator: Sketch 54.1 (76490) - https://sketchapp.com -->
    <title>twitter copy 4</title>
    <desc>Created with Sketch.</desc>
    <g id="Page-1" stroke="none" stroke-width="1" fill="none" fill-rule="evenodd">
        <g id="首页" transform="translate(-498.000000, -3337.000000)">
            <g id="底部导航" transform="translate(1.000000, 3206.000000)">
                <g id="twitter-copy-4" transform="translate(497.000000, 131.000000)">
                    <circle id="椭圆形" stroke="#929DC5" stroke-width="0.5" cx="20" cy="20" r="19.75"></circle>
                    <path d="M28.955792,26.4951266 L23.016518,21.3940419 C24.6436264,20.1574705 27.2198738,18.2249972 28.999982,16.8916981 L28.999982,26.2856367 C28.999982,26.3611293 28.978652,26.4296881 28.955792,26.4951266 Z M15.3665256,20.5486282 C15.8499152,20.9082367 16.2919947,21.235776 16.7041043,21.5457206 L11.01728,26.365463 C11.01422,26.3386809 11,26.314499 11,26.2856367 L11,17.2741017 C12.4827485,18.4030246 14.027417,19.5540493 15.3665256,20.5486282 Z M22.0564889,22.1227931 C22.0763789,22.1093587 22.0999589,22.0909839 22.1210189,22.0762494 L27.8536531,27 L11.968309,27 L17.6090534,22.2196074 C18.5566624,22.9306772 19.1693818,23.2946194 19.7761612,23.2946194 C20.4079606,23.2946194 21.04138,22.9061486 22.0564889,22.1227931 Z M27.8750011,14 C28.2859407,14 29,14.6876679 29,15.084546 L29,15.5609038 C26.8905821,17.1408758 22.9043961,20.1282528 21.4228176,21.2687033 C19.7843692,22.5301501 19.7843692,22.5301501 18.1794008,21.3178472 C17.5838714,20.870005 16.8294022,20.3076671 15.987543,19.6818841 C14.4608745,18.5478475 12.6590763,17.2090879 11.000018,15.9371537 L11.000018,15.0834193 C11.000018,14.688708 11.7144373,14 12.1250169,14 L27.8750011,14 Z" id="合并形状" fill="#929DC5"></path>
                </g>
            </g>
        </g>
    </g>
</svg>