<?xml version="1.0" encoding="UTF-8"?>
<svg width="60px" height="60px" viewBox="0 0 60 60" version="1.1" xmlns="http://www.w3.org/2000/svg" xmlns:xlink="http://www.w3.org/1999/xlink">
    <!-- Generator: Sketch 54.1 (76490) - https://sketchapp.com -->
    <title>首页 copy 21</title>
    <desc>Created with Sketch.</desc>
    <g id="Page-1" stroke="none" stroke-width="1" fill="none" fill-rule="evenodd">
        <g id="首页" transform="translate(-1074.000000, -3086.000000)" fill="#1FDB84">
            <g id="编组-4" transform="translate(577.000000, 3086.000000)">
                <g id="编组-5">
                    <g id="分组-3-copy" transform="translate(497.000000, 0.000000)">
                        <rect id="矩形复制-3" opacity="0.100000001" x="0" y="0" width="60" height="60" rx="6"></rect>
                        <path d="M42.9361441,39.0485162 L34.3571926,31.6802828 C36.7074603,29.894124 40.4287066,27.1027737 42.999974,25.1768972 L42.999974,38.7459196 C42.999974,38.8549646 42.969164,38.9539939 42.9361441,39.0485162 Z M23.3072037,30.4591296 C24.005433,30.9785642 24.6439924,31.4516765 25.2392618,31.8993742 L17.02496,38.8612243 C17.02054,38.822539 17,38.7876096 17,38.7459196 L17,25.7292581 C19.1417479,27.3599245 21.3729356,29.0225156 23.3072037,30.4591296 Z M32.970484,32.7329233 C32.999214,32.7135181 33.033274,32.6869767 33.0636939,32.6656936 L41.3441657,39.7777778 L18.3986686,39.7777778 L26.5464105,32.8727663 C27.9151791,33.899867 28.8002182,34.4255613 29.6766773,34.4255613 C30.5892764,34.4255613 31.5042155,33.8644368 32.970484,32.7329233 Z M41.3750016,21 C41.968581,21 43,21.9932981 43,22.5665665 L43,23.2546389 C39.953063,25.5368207 34.1952388,29.8519208 32.0551809,31.4992381 C29.6885333,33.3213279 29.6885333,33.3213279 27.3702456,31.5702238 C26.5100365,30.9233406 25.4202476,30.1110747 24.2042288,29.2071659 C21.999041,27.569113 19.3964436,25.6353492 17.000026,23.7981109 L17.000026,22.564939 C17.000026,21.9948004 18.031965,21 18.6250244,21 L41.3750016,21 Z" id="合并形状"></path>
                    </g>
                </g>
            </g>
        </g>
    </g>
</svg>