<?xml version="1.0" encoding="UTF-8"?>
<svg width="542px" height="392px" viewBox="0 0 542 392" version="1.1" xmlns="http://www.w3.org/2000/svg" xmlns:xlink="http://www.w3.org/1999/xlink">
    <!-- Generator: Sketch 54.1 (76490) - https://sketchapp.com -->
    <title>编组 7</title>
    <desc>Created with Sketch.</desc>
    <g id="Page-1" stroke="none" stroke-width="1" fill="none" fill-rule="evenodd">
        <g id="首页" transform="translate(-1004.000000, -1250.000000)">
            <rect fill="#F8F9FC" x="0" y="0" width="1920" height="3500"></rect>
            <g id="编组-7" transform="translate(1004.000000, 1250.000000)">
                <path d="M191.5,80.2154924 L191.5,149.784508 L130.998994,184.576783 L70.5,149.784503 L70.5,80.2154972 L130.998994,45.4232167 L191.5,80.2154924 Z" id="路径" stroke="#6FDEAA"></path>
                <path d="M331.5,80.2154948 L331.5,149.784505 L271,184.576783 L210.5,149.784505 L210.5,80.2154948 L271,45.4232167 L331.5,80.2154948 Z" id="路径" stroke="#6FDEAA"></path>
                <path d="M471.5,80.2154936 L471.5,149.784506 L410.999497,184.576783 L350.5,149.784504 L350.5,80.215496 L410.999497,45.4232167 L471.5,80.2154936 Z" id="路径" stroke="#6FDEAA"></path>
                <path d="M121.5,202.214492 L121.5,271.784506 L60.9994972,306.576783 L0.5,271.784504 L0.5,202.214494 L60.9994972,167.423221 L121.5,202.214492 Z" id="路径" stroke="#6FDEAA"></path>
                <path d="M541.5,202.214493 L541.5,271.784505 L481,306.576783 L420.5,271.784505 L420.5,202.214493 L481,167.423221 L541.5,202.214493 Z" id="路径" stroke="#6FDEAA"></path>
                <polygon id="路径" fill="#1FDB84" opacity="0.100000001" points="183 84.4954899 130.5 54 78 84.4954899 78 145.50451 130.5 176 183 145.50451"></polygon>
                <polygon id="路径" fill="#1FDB84" opacity="0.100000001" points="323 84.4954899 270.500996 54 218 84.4954899 218 145.50451 270.500996 176 323 145.50451"></polygon>
                <polygon id="路径" fill="#1FDB84" opacity="0.100000001" points="464 84.4954899 411.499502 54 359 84.4954899 359 145.50451 411.499502 176 464 145.50451"></polygon>
                <polygon id="路径" fill="#1FDB84" opacity="0.100000001" points="113 206.495239 60.5 176 8 206.495239 8 267.503758 60.5 298 113 267.503758"></polygon>
                <polygon id="路径" fill="#1FDB84" opacity="0.100000001" points="534 206.495239 481.499004 176 429 206.495239 429 267.503758 481.499004 298 534 267.503758"></polygon>
                <path d="M51.1260677,212.338116 L60.7201477,212.338116 C61.365153,212.338116 61.8761573,211.812017 61.8761573,211.179697 L61.8761573,211.164665 C61.8761573,210.518316 61.3501529,210.006246 60.7201477,210.006246 L51.1260677,210.006246 C50.4800623,210.006246 49.955058,210.533347 49.955058,211.179697 L49.955058,211.194728 C49.9700581,211.84208 50.4950625,212.353147 51.1260677,212.338116 Z M57.7921233,218.295555 C58.4231285,218.295555 58.9481329,217.769457 58.9481329,217.122105 C58.9481329,216.475755 58.4231285,215.948655 57.7771231,215.948655 L51.1260677,215.948655 C50.4800623,215.948655 49.955058,216.475755 49.955058,217.122105 C49.955058,217.769457 50.4800623,218.295555 51.1260677,218.295555 L57.7921233,218.295555 Z M51.1260677,203.476612 C50.4800623,203.476612 49.955058,204.003713 49.955058,204.650062 C49.955058,205.297414 50.4800623,205.824515 51.1260677,205.824515 L65.1181843,205.824515 C65.7641897,205.824515 66.2891941,205.297414 66.2891941,204.650062 C66.2891941,204.003713 65.7641897,203.476612 65.1181843,203.476612 L51.1260677,203.476612 Z M62.5221627,221.184588 C62.6421637,221.289808 62.7621647,221.379996 62.8821657,221.455153 C64.4881791,222.508352 66.6491971,222.05741 67.7002058,220.432016 L70.358228,216.295379 C70.3882282,216.249282 70.4332286,216.235253 70.479229,216.235253 C70.5682297,216.235253 70.6282302,216.309408 70.6282302,216.385567 L70.6282302,220.101326 C70.6282302,222.688729 68.5412128,224.780096 65.9591913,224.780096 L50.19506,224.780096 C47.6280386,224.765064 45.5570213,222.673697 45.5410212,220.101326 L45.5410212,200.693801 C45.5410212,198.106398 47.6280386,196.015031 50.19506,196 L66.0491921,196 C68.6322136,196.015031 70.719231,198.106398 70.7032309,200.693801 L70.7032309,203.296235 L61.9501579,216.385567 C60.8991492,217.904739 61.1551513,219.966043 62.5221627,221.184588 Z M64.6662806,218.180415 L64.1552763,216.359613 L73.599355,202.293241 C73.8843574,201.902425 74.4093617,201.796203 74.8143651,202.052739 L75.761373,202.699088 L75.7753731,202.71412 C76.1663764,202.984685 76.2563771,203.526817 75.9863749,203.918635 L66.5272961,217.969975 L64.6662806,218.180415 Z M61.0138501,266.780396 L59.2948358,272.986355 L62.6528638,272.986355 L61.0138501,266.780396 Z M52.0617755,280 L58.956833,261.487344 L63.0688672,261.487344 L69.9389245,280 L64.5778798,280 L63.4588705,276.376434 L58.5408295,276.376434 L57.4488204,280 L52.0617755,280 Z M51.0870674,243.944112 L49.2070517,243.944112 C49.0610505,243.432043 48.8360486,243.078304 48.5310461,242.882896 C48.2030434,242.66444 47.7030392,242.553208 47.0340336,242.553208 C46.4260286,242.553208 45.9870249,242.639387 45.7200227,242.809743 C45.3790198,242.993126 45.2090184,243.273712 45.2090184,243.651501 C45.2090184,243.969164 45.4650205,244.24975 45.9760248,244.493259 C46.2920274,244.627539 46.9250327,244.815932 47.8740406,245.060443 C48.9340495,245.316979 49.7300561,245.6146 50.2660606,245.956314 C51.0210668,246.432307 51.39807,247.090682 51.39807,247.93244 C51.39807,249.932616 49.9980583,250.932705 47.199035,250.932705 C44.6180135,250.932705 43.2190018,249.829401 43,247.621791 L44.8990158,247.621791 C45.0080167,248.256116 45.2330186,248.707057 45.5740215,248.975618 C45.9140243,249.219127 46.4380287,249.341382 47.1440345,249.341382 C48.6530471,249.341382 49.4070534,248.91449 49.4070534,248.059706 C49.4070534,247.597741 49.1280511,247.23799 48.5670464,246.980452 C48.276044,246.835149 47.6430387,246.651766 46.6700306,246.432307 C45.5490212,246.175772 44.7710148,245.901198 44.3320111,245.60959 C43.602005,245.145621 43.237002,244.511296 43.237002,243.706616 C43.237002,242.840808 43.5900049,242.169406 44.2960108,241.694414 C45.0020167,241.206395 45.9270244,240.961885 47.0710339,240.961885 C49.5290544,240.961885 50.8680656,241.956963 51.0870674,243.944112 Z M55.9064076,238.163541 L55.9064076,241.217919 L58.0604255,241.217919 L58.0604255,242.828282 L55.9064076,242.828282 L55.9064076,248.316742 C55.9064076,248.560251 55.961408,248.749646 56.0714089,248.883927 C56.1924099,249.00518 56.3634114,249.066308 56.5824132,249.066308 L57.8234235,249.066308 L57.8234235,250.67667 L56.2714106,250.67667 C55.4564038,250.67667 54.8663989,250.463224 54.5013958,250.036333 C54.1473929,249.646519 53.9713914,249.073322 53.9713914,248.316742 L53.9713914,242.828282 L52.2183768,242.828282 L52.2183768,241.217919 L53.9713914,241.217919 L53.9713914,238.968222 L55.9064076,238.163541 Z M61.9308578,243.194547 C61.5168543,243.632461 61.2558521,244.243738 61.1458512,245.023365 L66.2398937,245.023365 C66.0568921,243.376928 65.198885,242.553208 63.6648722,242.553208 C62.9348661,242.553208 62.3568613,242.767655 61.9308578,243.194547 Z M67.1339011,242.536172 C67.8759073,243.499183 68.2539104,244.815932 68.2659105,246.487423 L61.1098509,246.487423 C61.1818515,247.426383 61.4318536,248.13386 61.8578571,248.608852 C62.3078609,249.097873 62.9098659,249.341382 63.6648722,249.341382 C64.3338778,249.341382 64.8818823,249.183051 65.3078859,248.865388 C65.6128884,248.633905 65.8988908,248.225051 66.165893,247.639829 L68.1019092,247.639829 C67.8689072,248.542714 67.4379036,249.280254 66.8048984,249.853451 C65.9778915,250.572954 64.9368828,250.932705 63.6838724,250.932705 C62.2838607,250.932705 61.1818515,250.499801 60.3788448,249.633993 C59.5028375,248.719082 59.0648339,247.487511 59.0648339,245.938276 C59.0648339,244.524323 59.4778373,243.346865 60.3058442,242.406902 C61.1098509,241.443891 62.2108601,240.961885 63.6108718,240.961885 C65.1678847,240.961885 66.3428945,241.486981 67.1339011,242.536172 Z M72.3909449,243.541972 C71.9899416,244.127194 71.7889399,244.907824 71.7889399,245.883862 L71.7889399,246.048205 C71.7889399,247.072344 72.037942,247.890051 72.5369461,248.499324 C72.9759498,249.073523 73.5599547,249.360121 74.2899607,249.360121 C75.2399687,249.360121 75.9389745,249.04847 76.3899782,248.427173 C76.8029817,247.828924 77.0099834,247.017229 77.0099834,245.99309 C77.0099834,244.980977 76.8219818,244.170284 76.4449787,243.56001 C75.994975,242.877585 75.2939691,242.535871 74.3449612,242.535871 C73.4929541,242.535871 72.8409487,242.871572 72.3909449,243.541972 Z M77.9049909,242.443679 C78.634997,243.358589 79,244.54206 79,245.99309 C79,247.37197 78.640997,248.524376 77.922991,249.450309 C77.1569846,250.438373 76.0909758,250.932404 74.7279644,250.932404 C73.5719548,250.932404 72.6109468,250.38426 71.8439404,249.285966 L71.8439404,254.298433 L69.9089242,254.298433 L69.9089242,241.21812 L71.7159393,241.21812 L71.7159393,242.352488 C72.3729448,241.425553 73.3469529,240.962586 74.6369636,240.962586 C76.0119751,240.962586 77.1019842,241.456618 77.9049909,242.443679 Z" id="形状结合" fill="#1FDB84"></path>
                <path d="M140.269836,88.0163656 L141.904849,80.2856033 L138.752823,79.6093616 L138.752823,82.084246 L140.433837,82.4343711 C140.502838,82.4343711 140.573838,82.5284047 140.549838,82.5984297 L140.410837,83.2516631 C140.410837,83.3226885 140.316836,83.3917131 140.247835,83.3687049 L138.752823,83.041588 L138.752823,84.1629887 L139.919833,84.4200806 C140.012833,84.4200806 140.059834,84.5131138 140.036834,84.5831389 L139.709831,86.1476979 C139.709831,86.2417315 139.61683,86.2877479 139.54583,86.2647397 L138.775823,86.1006811 L138.775823,88.0163656 L140.269836,88.0163656 Z M136.184802,88.0163656 L136.184802,87.9933574 L137.304811,87.9933574 L137.304811,77.7877107 L123.344695,77.7877107 L123.344695,88.0163656 L124.441704,88.0163656 L124.441704,82.2713128 L127.943733,82.2713128 L127.943733,89.7909997 C128.200735,90.1421252 128.503738,90.4452335 128.85474,90.6783168 L128.85474,82.2713128 L136.184802,82.2713128 L136.184802,88.0163656 Z M123.158693,92.3599176 C123.624697,92.3599176 123.9987,91.9627757 123.9987,91.518617 C123.9987,91.0524504 123.624697,90.6783168 123.158693,90.6783168 L121.920683,90.6783168 C121.454679,90.6783168 121.080676,91.0524504 121.080676,91.518617 C121.080676,91.9867843 121.454679,92.3599176 121.920683,92.3599176 L123.158693,92.3599176 Z M118.746656,77.6006439 L120.916674,87.9933574 L121.850682,87.9933574 L121.850682,84.8632389 L121.080676,85.0272976 C121.009675,85.0272976 120.940675,84.9802808 120.916674,84.9102557 L120.683672,83.7658468 C120.683672,83.6958218 120.729673,83.6257968 120.799673,83.6027886 L121.873682,83.3687049 L121.873682,81.8271541 L120.496671,82.1312628 C120.42667,82.154271 120.35667,82.084246 120.332669,82.0142209 L120.099667,80.869812 C120.076667,80.799787 120.146668,80.729762 120.216668,80.7067538 L121.897682,80.3566286 L121.897682,76.9234019 L118.746656,77.6006439 Z M123.344695,76.7833519 L137.304811,76.7833519 L137.304811,74.4485176 L123.344695,74.4485176 L123.344695,76.7833519 Z M141.740848,88.1093988 C142.674856,88.4135075 143.374861,89.3008246 143.374861,90.3281917 L143.374861,96.7504865 C143.374861,98.0349454 142.324853,99.0853207 141.040842,99.0853207 L119.609663,99.0853207 C118.325653,99.0853207 117.274644,98.0349454 117.274644,96.7504865 L117.274644,90.3281917 C117.274644,89.1137577 118.255652,88.0863906 119.469662,88.0163656 L117.321644,77.9047526 C117.158643,77.1104687 117.648647,76.3391932 118.442654,76.1761349 L121.897682,75.4518761 L121.897682,74.4485176 C121.897682,73.6542338 122.550688,73 123.344695,73 L137.304811,73 C138.098817,73 138.752823,73.6542338 138.752823,74.4485176 L138.752823,78.1378358 L142.207852,78.8620946 C143.000858,79.0251529 143.491862,79.7954281 143.328861,80.5897119 L141.740848,88.1093988 Z M133.429779,74.8916759 C133.849782,74.8916759 134.153785,75.2187928 134.153785,75.6159347 C134.153785,76.0120763 133.827782,76.3391932 133.429779,76.3391932 C133.033775,76.3391932 132.706773,76.0120763 132.706773,75.6159347 C132.706773,75.2187928 133.033775,74.8916759 133.429779,74.8916759 Z M135.507796,74.8916759 C135.904799,74.8916759 136.231802,75.2187928 136.231802,75.6159347 C136.231802,76.0120763 135.904799,76.3391932 135.507796,76.3391932 C135.110793,76.3391932 134.78479,76.0120763 134.78479,75.6159347 C134.78479,75.2187928 135.110793,74.8916759 135.507796,74.8916759 Z M124.464704,81.3839957 L124.464704,78.7690614 L136.184802,78.7690614 L136.184802,81.3839957 L124.464704,81.3839957 Z M128.180835,140.83894 L128.180835,143.675954 L131.641864,143.675954 C131.988867,143.675954 132.304869,143.58092 132.591872,143.389851 C132.877874,143.198783 133.020875,142.816647 133.020875,142.244442 C133.020875,141.740262 132.899874,141.381134 132.656872,141.164056 C132.41387,140.946979 132.127868,140.83894 131.797865,140.83894 L128.180835,140.83894 Z M133.670881,149.220935 C133.670881,148.768773 133.54988,148.391639 133.307878,148.08853 C133.063876,147.784422 132.750873,147.633368 132.36987,147.633368 L128.180835,147.633368 L128.180835,150.730474 L132.188868,150.730474 C132.604872,150.730474 132.954875,150.600428 133.242877,150.340335 C133.528879,150.079242 133.670881,149.707109 133.670881,149.220935 Z M138.823924,150.262307 C138.823924,151.094605 138.650922,151.81086 138.303919,152.409074 C137.955916,153.008288 137.479912,153.498463 136.871907,153.8806 C136.264902,154.261736 135.557896,154.543837 134.75089,154.726902 C133.944883,154.907967 133.089876,155 132.188868,155 L123.106793,155 L123.106793,136.517396 L133.826882,136.517396 C134.469887,136.517396 135.049892,136.656446 135.570896,136.933545 C136.090901,137.211644 136.533904,137.571773 136.898907,138.013931 C137.261911,138.457089 137.543913,138.960269 137.743915,139.52347 C137.943916,140.087672 138.042917,140.664878 138.042917,141.255089 C138.042917,142.122399 137.822915,142.951695 137.378911,143.740977 C136.937908,144.530259 136.273902,145.125472 135.388895,145.524614 C136.447904,145.836726 137.284911,146.37992 137.900916,147.151195 C138.515921,147.923471 138.823924,148.960842 138.823924,150.262307 Z M120.087067,121.172713 L118.207052,121.172713 C118.061051,120.66153 117.835049,120.308404 117.531046,120.113334 C117.202043,119.894256 116.703039,119.784217 116.034034,119.784217 C115.426029,119.784217 114.987025,119.870248 114.720023,120.040308 C114.37902,120.223374 114.208018,120.503474 114.208018,120.880609 C114.208018,121.197722 114.464021,121.477822 114.976025,121.720909 C115.292027,121.854957 115.925033,122.043024 116.874041,122.287111 C117.933049,122.542202 118.730056,122.840309 119.266061,123.181431 C120.020067,123.6566 120.39807,124.313835 120.39807,125.153135 C120.39807,127.150849 118.998058,128.149206 116.198035,128.149206 C113.618013,128.149206 112.219002,127.047812 112,124.843024 L113.899016,124.843024 C114.008017,125.476251 114.233019,125.926412 114.574021,126.195508 C114.914024,126.438595 115.438029,126.560638 116.144035,126.560638 C117.652047,126.560638 118.407053,126.133486 118.407053,125.281181 C118.407053,124.820016 118.128051,124.459887 117.567046,124.203796 C117.275044,124.058744 116.643039,123.875679 115.669031,123.6566 C114.549021,123.400509 113.771015,123.126411 113.332011,122.835307 C112.602005,122.372142 112.236002,121.738915 112.236002,120.935628 C112.236002,120.070319 112.590005,119.40108 113.296011,118.92591 C114.001017,118.439736 114.927024,118.195649 116.071034,118.195649 C118.529054,118.195649 119.868066,119.189004 120.087067,121.172713 Z M124.906408,115.401651 L124.906408,118.451741 L127.060426,118.451741 L127.060426,120.058315 L124.906408,120.058315 L124.906408,125.537272 C124.906408,125.780359 124.961408,125.969427 125.070409,126.103475 C125.19241,126.225518 125.362411,126.28654 125.582413,126.28654 L126.823424,126.28654 L126.823424,127.893114 L125.271411,127.893114 C124.456404,127.893114 123.865399,127.680038 123.501396,127.254886 C123.147393,126.864747 122.971391,126.292542 122.971391,125.537272 L122.971391,120.058315 L121.218377,120.058315 L121.218377,118.451741 L122.971391,118.451741 L122.971391,116.204938 L124.906408,115.401651 Z M130.930858,120.423945 C130.516854,120.862102 130.254852,121.47132 130.145851,122.250598 L135.238894,122.250598 C135.056892,120.607011 134.198885,119.784717 132.664872,119.784717 C131.934866,119.784717 131.356861,119.997793 130.930858,120.423945 Z M136.133901,119.766711 C136.875907,120.728054 137.25291,122.043524 137.264911,123.71112 L130.109851,123.71112 C130.181852,124.649455 130.431854,125.354707 130.857857,125.829877 C131.307861,126.317051 131.909866,126.560138 132.664872,126.560138 C133.333878,126.560138 133.881882,126.402081 134.307886,126.084968 C134.611888,125.853886 134.897891,125.44674 135.165893,124.862531 L137.101909,124.862531 C136.868907,125.762853 136.437904,126.499116 135.804898,127.071321 C134.977891,127.789577 133.936883,128.148706 132.683872,128.148706 C131.283861,128.148706 130.181852,127.717552 129.378845,126.852242 C128.502838,125.939916 128.064834,124.709477 128.064834,123.162924 C128.064834,121.75142 128.477837,120.576 129.305844,119.638665 C130.109851,118.676321 131.20986,118.195149 132.610872,118.195149 C134.167885,118.195149 135.341895,118.719336 136.133901,119.766711 Z M141.390945,120.770769 C140.989942,121.354978 140.78894,122.135257 140.78894,123.108605 L140.78894,123.272663 C140.78894,124.296029 141.037942,125.11132 141.536946,125.719538 C141.97595,126.292742 142.559955,126.578845 143.288961,126.578845 C144.239969,126.578845 144.938974,126.267733 145.389978,125.647512 C145.802982,125.050298 146.009983,124.241009 146.009983,123.218644 C146.009983,122.208283 145.821982,121.397993 145.443979,120.789776 C144.993975,120.107532 144.293969,119.767411 143.344961,119.767411 C142.492954,119.767411 141.840949,120.10153 141.390945,120.770769 Z M146.904991,119.675378 C147.634997,120.587704 148,121.769126 148,123.218644 C148,124.594135 147.640997,125.744547 146.922991,126.669877 C146.156985,127.65623 145.090976,128.148405 143.727964,128.148405 C142.571955,128.148405 141.610947,127.60121 140.84294,126.504818 L140.84294,131.509606 L138.908924,131.509606 L138.908924,118.451941 L140.714939,118.451941 L140.714939,119.583345 C141.371945,118.659015 142.345953,118.195849 143.636964,118.195849 C145.011975,118.195849 146.100984,118.689025 146.904991,119.675378 Z" id="形状结合" fill="#1FDB84"></path>
                <path d="M312.731194,310.719771 C312.906655,312.287658 312.996761,313.881327 312.996761,315.496034 C312.996761,338.969327 293.951572,358 270.455909,358 C246.961246,358 227.915057,338.969327 227.915057,315.496034 C227.915057,313.75193 228.020188,312.03237 228.224464,310.343335 L213.628966,305.092673 L211.40323,311.272799 C208.58383,305.287393 205.821398,299.424812 203,293.433415 C208.996596,290.614463 214.866264,287.855425 220.855864,285.037472 L218.629128,291.217597 L232.531404,296.219115 C234.380055,292.5956 236.733624,289.272256 239.499475,286.34162 L230.026159,273.448912 L224.728166,277.335332 C225.731596,270.795722 226.71204,264.391918 227.71647,257.847316 C234.266752,258.848878 240.676113,259.831467 247.221398,260.833028 L241.923405,264.719448 L251.329933,277.519525 C254.975537,275.683132 258.92172,274.355355 263.075099,273.629476 L263.075099,257.940981 L256.503829,257.940981 C261.184172,253.264696 265.769569,248.681278 270.45391,244 C275.141249,248.681278 279.726646,253.262699 284.408988,257.940981 L277.836719,257.940981 L277.836719,273.629432 C282.291574,274.40795 286.508013,275.878878 290.370838,277.92712 L300.076595,264.719448 L294.776603,260.833028 C301.321888,259.831467 307.733248,258.848878 314.28353,257.847316 C315.28796,264.391918 316.268404,270.795722 317.271834,277.335332 L311.973841,273.448912 L302.017542,286.99603 C304.604851,289.854561 306.808577,293.066256 308.547631,296.550096 L323.371871,291.217597 L321.144136,285.037472 C327.134735,287.855425 333.001405,290.614463 339,293.433415 C336.178602,299.424812 333.41617,305.287393 330.59677,311.272799 L328.371034,305.092673 L312.731194,310.719771 Z" id="形状结合" fill="#1FDB84" opacity="0.100000001"></path>
                <path d="M261.920183,145.425851 C261.920183,144.296001 262.121184,143.182191 262.519188,142.086427 C262.918191,140.990664 263.504196,140.008185 264.276202,139.138993 C265.048209,138.268798 265.985217,137.56402 267.086226,137.025662 C268.189235,136.486302 269.442245,136.216622 270.847257,136.216622 C272.493271,136.216622 273.934283,136.586555 275.166293,137.325418 C276.398303,138.065285 277.310311,139.04275 277.898316,140.25982 L274.022284,143.025797 C273.864282,142.573656 273.662281,142.199713 273.410278,141.903967 C273.157276,141.608221 272.885274,141.373629 272.591272,141.200192 C272.295269,141.025752 271.983267,140.904446 271.653264,140.834269 C271.323261,140.765095 271.020259,140.730006 270.743256,140.730006 C270.100251,140.730006 269.549246,140.873368 269.090242,141.160091 C268.629239,141.446814 268.248235,141.820757 267.944233,142.281921 C267.64223,142.743084 267.420229,143.264399 267.280227,143.846868 C267.144226,144.43034 267.074226,145.007796 267.074226,145.582245 C267.074226,146.225869 267.155226,146.843426 267.320228,147.433916 C267.485229,148.02641 267.728231,148.547725 268.050234,148.999866 C268.369236,149.452006 268.76124,149.812916 269.220244,150.083599 C269.681247,150.352277 270.205252,150.486616 270.795257,150.486616 C271.089259,150.486616 271.393262,150.447517 271.705264,150.36932 C272.017267,150.292125 272.316269,150.160794 272.603272,149.978334 C272.889274,149.794871 273.149276,149.561282 273.384278,149.273556 C273.61828,148.986833 273.805282,148.634945 273.943283,148.216891 L278.080317,150.695142 C277.820315,151.373854 277.427312,151.982389 276.897307,152.521749 C276.367303,153.061109 275.764298,153.51325 275.088292,153.87817 C274.410287,154.243091 273.691281,154.521794 272.929274,154.713277 C272.166268,154.90476 271.419262,155 270.690256,155 C269.406245,155 268.226235,154.72631 267.151226,154.177926 C266.076217,153.630546 265.15221,152.903712 264.380203,152.000434 C263.607197,151.095151 263.005192,150.069564 262.572188,148.920666 C262.137184,147.773773 261.920183,146.607832 261.920183,145.425851 Z M283.334361,90.2931866 C283.471362,90.1558401 283.471362,89.9152332 283.334361,89.7778868 L282.563355,89.0049372 C282.426354,88.8685933 282.187352,88.8685933 282.04935,89.0049372 L278.984325,92.0786902 L277.956316,91.0480907 C277.819315,90.9107443 277.580313,90.9107443 277.442312,91.0480907 L276.672306,91.8210404 C276.535304,91.9583868 276.535304,92.1989937 276.672306,92.3363401 L277.956316,93.623587 L278.727323,94.3965367 C278.864324,94.5328806 279.104326,94.5328806 279.241327,94.3965367 L280.012333,93.623587 L283.334361,90.2931866 Z M280.012333,84.5587222 C283.933366,84.5587222 287.118393,87.7517762 287.118393,91.6836939 C287.118393,95.6156116 283.933366,98.8086656 280.012333,98.8086656 C276.090301,98.8086656 272.904274,95.6156116 272.904274,91.6836939 C272.904274,87.7517762 276.072301,84.5587222 280.012333,84.5587222 Z M254.718123,93.674716 L254.718123,90.0355367 L271.432262,90.0355367 L271.432262,93.674716 L254.718123,93.674716 Z M257.441145,88.215947 C256.944141,88.215947 256.533138,87.8039077 256.533138,87.288608 L256.533138,81.829839 C256.533138,81.3315822 256.944141,80.9195429 257.441145,80.9195429 L261.071176,80.9195429 C261.56818,80.9195429 261.980183,81.3315822 261.980183,81.829839 L261.980183,87.305651 C261.980183,87.8039077 261.56818,88.215947 261.071176,88.215947 L257.441145,88.215947 Z M280.165335,83.7005576 C279.703331,83.6143402 279.241327,83.5461682 278.778323,83.5461682 C277.288311,83.5461682 275.901299,83.9922935 274.720289,84.7311572 L274.720289,70.9102961 C274.720289,70.4120393 275.131293,70 275.628297,70 L279.258327,70 C279.755331,70 280.165335,70.4120393 280.165335,70.9102961 L280.165335,83.7005576 Z M266.534221,88.215947 C266.038217,88.215947 265.627214,87.8039077 265.627214,87.305651 L265.627214,76.3700676 C265.627214,75.8718108 266.038217,75.4597715 266.534221,75.4597715 L270.165251,75.4597715 C270.661256,75.4597715 271.072259,75.8718108 271.072259,76.3700676 L271.072259,87.305651 C271.072259,87.8039077 270.661256,88.215947 270.165251,88.215947 L266.534221,88.215947 Z M260.088067,120.943197 L258.207052,120.943197 C258.062051,120.430905 257.836049,120.077012 257.532046,119.881519 C257.203043,119.661965 256.704039,119.551687 256.035034,119.551687 C255.426029,119.551687 254.988025,119.637904 254.721023,119.808334 C254.37902,119.991797 254.209018,120.272505 254.209018,120.650458 C254.209018,120.96826 254.465021,121.248968 254.976025,121.492582 C255.293027,121.626921 255.926033,121.815397 256.875041,122.060014 C257.934049,122.315659 258.731056,122.614412 259.267061,122.956274 C260.021067,123.432476 260.39807,124.091137 260.39807,124.932259 C260.39807,126.934308 258.998058,127.934832 256.199035,127.934832 C253.618013,127.934832 252.219002,126.831048 252,124.621475 L253.900016,124.621475 C254.009017,125.256075 254.233019,125.707213 254.574021,125.976893 C254.915024,126.220508 255.439029,126.342816 256.145035,126.342816 C257.653047,126.342816 258.408053,125.914737 258.408053,125.060582 C258.408053,124.598416 258.128051,124.237506 257.568046,123.980859 C257.276044,123.835492 256.643039,123.652029 255.670031,123.432476 C254.550021,123.175828 253.772015,122.901135 253.333011,122.609399 C252.603005,122.145229 252.237002,121.510628 252.237002,120.705597 C252.237002,119.83841 252.591005,119.167718 253.296011,118.691517 C254.002017,118.204288 254.927024,117.959671 256.071034,117.959671 C258.530054,117.959671 259.868066,118.955182 260.088067,120.943197 Z M264.907508,115.159608 L264.907508,118.216319 L267.061526,118.216319 L267.061526,119.82638 L264.907508,119.82638 L264.907508,125.31723 C264.907508,125.560844 264.962508,125.750322 265.071509,125.884661 C265.19351,126.006969 265.363511,126.068124 265.582513,126.068124 L266.824524,126.068124 L266.824524,127.678185 L265.272511,127.678185 C264.457504,127.678185 263.866499,127.464646 263.501496,127.038571 C263.148493,126.647585 262.971491,126.074139 262.971491,125.31723 L262.971491,119.82638 L261.219477,119.82638 L261.219477,118.216319 L262.971491,118.216319 L262.971491,115.964639 L264.907508,115.159608 Z M270.931958,120.192804 C270.517954,120.631912 270.255952,121.242452 270.145951,122.023421 L275.239994,122.023421 C275.056992,120.376267 274.199985,119.552188 272.665972,119.552188 C271.935966,119.552188 271.357961,119.765727 270.931958,120.192804 Z M276.134001,119.534143 C276.876007,120.497573 277.25401,121.815898 277.266011,123.487113 L270.109951,123.487113 C270.182952,124.427485 270.431954,125.134268 270.858957,125.610469 C271.308961,126.098701 271.910966,126.342315 272.665972,126.342315 C273.334978,126.342315 273.881982,126.183916 274.308986,125.866114 C274.612988,125.63453 274.898991,125.226501 275.165993,124.641024 L277.102009,124.641024 C276.870007,125.5433 276.439004,126.281161 275.805998,126.854607 C274.977991,127.574423 273.936983,127.934331 272.683972,127.934331 C271.284961,127.934331 270.182952,127.502241 269.378945,126.635054 C268.502938,125.720747 268.064934,124.487637 268.064934,122.937728 C268.064934,121.52316 268.478937,120.345188 269.306944,119.405819 C270.109951,118.441386 271.21096,117.95917 272.610972,117.95917 C274.168985,117.95917 275.342995,118.484495 276.134001,119.534143 Z M281.391945,120.540381 C280.990942,121.125857 280.78894,121.90783 280.78894,122.88329 L280.78894,123.047705 C280.78894,124.073292 281.037942,124.890353 281.537946,125.49989 C281.97595,126.074339 282.560955,126.361062 283.289961,126.361062 C284.239969,126.361062 284.939974,126.049276 285.389978,125.427708 C285.803982,124.829199 286.010983,124.018153 286.010983,122.993568 C286.010983,121.981014 285.821982,121.168966 285.444979,120.559429 C284.994975,119.875704 284.294969,119.534844 283.344961,119.534844 C282.493954,119.534844 281.841949,119.869689 281.391945,120.540381 Z M286.905991,119.442612 C287.634997,120.356918 288,121.540904 288,122.993568 C288,124.372045 287.641997,125.524954 286.922991,126.452293 C286.156985,127.440786 285.090976,127.93403 283.728964,127.93403 C282.572955,127.93403 281.610947,127.385647 280.84394,126.286875 L280.84394,131.302527 L278.909924,131.302527 L278.909924,118.216519 L280.715939,118.216519 L280.715939,119.350379 C281.372945,118.424043 282.346953,117.959872 283.637964,117.959872 C285.012975,117.959872 286.101984,118.454118 286.905991,119.442612 Z" id="形状结合" fill="#1FDB84"></path>
                <path d="M414.668272,145.686502 C414.668272,144.971703 414.572271,144.317225 414.38227,143.724073 C414.191268,143.13092 413.917266,142.626238 413.562263,142.20701 C413.20626,141.788787 412.769256,141.462051 412.248252,141.225795 C411.728248,140.990545 411.146243,140.87292 410.504238,140.87292 L408.476221,140.87292 L408.476221,150.552362 L410.504238,150.552362 C411.164243,150.552362 411.754248,150.430716 412.274252,150.186418 C412.795257,149.942119 413.23126,149.602313 413.587263,149.165994 C413.943266,148.729676 414.213268,148.215945 414.39427,147.622793 C414.577271,147.02964 414.668272,146.38421 414.668272,145.686502 Z M403.399178,155 L403.399178,136.425282 L410.504238,136.425282 C412.03125,136.425282 413.375261,136.669581 414.539271,137.158177 C415.701281,137.645769 416.671289,138.309295 417.454295,139.146746 C418.232302,139.983191 418.822307,140.964406 419.22231,142.089385 C419.621314,143.214364 419.819315,144.412733 419.819315,145.686502 C419.819315,147.100014 419.599313,148.3768 419.15631,149.519875 C418.715306,150.661945 418.085301,151.638133 417.271294,152.449445 C416.454287,153.260757 415.475279,153.888091 414.330269,154.333458 C413.18426,154.777819 411.910249,155 410.504238,155 L403.399178,155 Z M415.136976,85.3958796 L415.136976,87.4618595 C415.136976,88.6029238 416.066984,89.5278394 417.213993,89.5278394 L422.407037,89.5278394 L422.407037,93.6597993 C422.407037,94.8008636 421.476029,95.7257792 420.329019,95.7257792 L399.559846,95.7257792 C398.411837,95.7257792 397.482829,94.8008636 397.482829,93.6597993 L397.482829,76.0994726 C397.482829,74.3883787 398.877841,73 400.597855,73 L421.367028,73 C421.942033,73 422.407037,73.4624578 422.407037,74.0334926 C422.407037,74.6045275 421.942033,75.0669853 421.367028,75.0669853 L400.597855,75.0669853 C400.02485,75.0669853 399.559846,75.5294431 399.559846,76.0994726 C399.559846,76.6695021 400.02485,77.1319599 400.597855,77.1319599 L420.329019,77.1319599 C421.477029,77.1319599 422.407037,78.0568754 422.407037,79.1979398 L422.407037,83.3298996 L417.213993,83.3298996 C416.066984,83.3298996 415.136976,84.2548152 415.136976,85.3958796 Z M418.252002,85.3958796 C417.678997,85.3958796 417.213993,85.8583374 417.213993,86.4293722 C417.213993,86.9994017 417.678997,87.4618595 418.252002,87.4618595 C418.825007,87.4618595 419.290011,86.9994017 419.290011,86.4293722 C419.290011,85.8583374 418.825007,85.3958796 418.252002,85.3958796 Z M423.445045,88.4953521 L418.252002,88.4953521 C417.104993,88.4953521 416.174985,87.5704365 416.174985,86.4293722 C416.174985,85.2883079 417.104993,84.3633923 418.252002,84.3633923 L423.445045,84.3633923 C424.01805,84.3633923 424.483054,84.8258501 424.483054,85.3958796 L424.483054,87.4618595 C424.483054,88.0328943 424.01805,88.4953521 423.445045,88.4953521 Z M402.088067,121.004526 L400.207052,121.004526 C400.062051,120.490796 399.836049,120.13591 399.531046,119.939868 C399.203043,119.719698 398.704039,119.60911 398.034034,119.60911 C397.426029,119.60911 396.987025,119.69557 396.721023,119.866478 C396.37902,120.050456 396.209018,120.331952 396.209018,120.710966 C396.209018,121.02966 396.465021,121.311156 396.976025,121.555454 C397.292027,121.69017 397.925033,121.879175 398.875041,122.124479 C399.934049,122.380841 400.731056,122.680433 401.266061,123.023255 C402.021067,123.500793 402.39807,124.161304 402.39807,125.004786 C402.39807,127.012456 400.998058,128.015789 398.199035,128.015789 C395.618013,128.015789 394.219002,126.908906 394,124.69313 L395.899016,124.69313 C396.008017,125.329512 396.234019,125.781917 396.574021,126.052354 C396.914024,126.296652 397.438029,126.419304 398.145035,126.419304 C399.653047,126.419304 400.408053,125.990023 400.408053,125.13347 C400.408053,124.670007 400.128051,124.308084 399.567046,124.050716 C399.276044,123.904941 398.643039,123.720963 397.670031,123.500793 C396.550021,123.243425 395.771015,122.967961 395.333011,122.675407 C394.603005,122.209933 394.237002,121.573551 394.237002,120.76626 C394.237002,119.896638 394.591005,119.224064 395.296011,118.746526 C396.002017,118.257929 396.927024,118.012626 398.071034,118.012626 C400.529054,118.012626 401.868066,119.010931 402.088067,121.004526 Z M406.906508,115.204703 L406.906508,118.269993 L409.060526,118.269993 L409.060526,119.884574 L406.906508,119.884574 L406.906508,125.390838 C406.906508,125.635136 406.962508,125.825146 407.071509,125.959862 C407.19251,126.082514 407.363511,126.14384 407.582513,126.14384 L408.823524,126.14384 L408.823524,127.758421 L407.272511,127.758421 C406.456504,127.758421 405.866499,127.544283 405.501496,127.117012 C405.148493,126.724928 404.971491,126.149872 404.971491,125.390838 L404.971491,119.884574 L403.218477,119.884574 L403.218477,118.269993 L404.971491,118.269993 L404.971491,116.011993 L406.906508,115.204703 Z M412.930958,120.252027 C412.516954,120.692367 412.255952,121.304621 412.145951,122.087784 L417.239994,122.087784 C417.056992,120.436005 416.198985,119.609613 414.664972,119.609613 C413.934966,119.609613 413.357961,119.823751 412.930958,120.252027 Z M418.134001,119.591517 C418.876007,120.557652 419.25401,121.879678 419.266011,123.555584 L412.109951,123.555584 C412.182952,124.498596 412.431954,125.207363 412.857957,125.684901 C413.307961,126.174503 413.909966,126.418801 414.664972,126.418801 C415.333978,126.418801 415.881982,126.259957 416.307986,125.941263 C416.612988,125.709029 416.898991,125.299855 417.165993,124.712734 L419.102009,124.712734 C418.870007,125.617543 418.438004,126.357475 417.804998,126.932532 C416.977991,127.654368 415.936983,128.015286 414.683972,128.015286 C413.283961,128.015286 412.182952,127.581983 411.378945,126.712362 C410.502938,125.795489 410.064934,124.558917 410.064934,123.004656 C410.064934,121.586117 410.478937,120.404839 411.306944,119.462833 C412.109951,118.495693 413.21096,118.012123 414.610972,118.012123 C416.167985,118.012123 417.342995,118.538923 418.134001,119.591517 Z M423.391945,120.60058 C422.989942,121.1877 422.78894,121.971868 422.78894,122.950066 L422.78894,123.114943 C422.78894,124.143409 423.037942,124.962763 423.537946,125.574012 C423.97595,126.150073 424.559955,126.437601 425.289961,126.437601 C426.239969,126.437601 426.939974,126.12494 427.389978,125.501627 C427.802982,124.901437 428.009983,124.088115 428.009983,123.060654 C428.009983,122.045258 427.821982,121.23093 427.444979,120.619681 C426.994975,119.934037 426.293969,119.592221 425.344961,119.592221 C424.492954,119.592221 423.841949,119.928005 423.391945,120.60058 Z M428.904991,119.499729 C429.634997,120.416602 430,121.603912 430,123.060654 C430,124.443001 429.640997,125.599145 428.922991,126.529088 C428.156985,127.520356 427.090976,128.014985 425.728964,128.014985 C424.572955,128.014985 423.610947,127.465062 422.84394,126.363206 L422.84394,131.392937 L420.908924,131.392937 L420.908924,118.270195 L422.715939,118.270195 L422.715939,119.407237 C423.372945,118.478301 424.346953,118.012827 425.636964,118.012827 C427.012975,118.012827 428.101984,118.508461 428.904991,119.499729 Z" id="形状结合" fill="#1FDB84"></path>
                <path d="M488.584305,275.584806 L488.584305,280 L475.416195,280 L475.416195,261.554433 L488.350303,261.554433 L488.350303,265.970626 L480.492237,265.970626 L480.492237,268.568621 L487.205293,268.568621 L487.205293,272.674292 L480.492237,272.674292 L480.492237,275.584806 L488.584305,275.584806 Z M490.590122,208.915175 C491.034125,208.525775 491.079126,207.846821 490.690122,207.403505 L490.42112,207.10197 C490.034117,206.658653 489.358111,206.616718 488.913108,207.005119 L479.897032,214.91892 C479.498029,215.262391 478.909024,215.271377 478.507021,214.936892 L473.926983,211.144738 C473.472979,210.770315 472.798973,210.833218 472.42197,211.286519 L472.164968,211.597041 C471.789965,212.049343 471.853965,212.722306 472.306969,213.099724 L478.552021,218.273749 C478.957025,218.611229 479.54603,218.602242 479.943033,218.254778 L490.590122,208.915175 Z M481.438045,198 C488.889107,198 494.938158,204.033699 494.938158,211.479222 C494.938158,218.924745 488.898107,224.958445 481.438045,224.958445 C473.983983,224.958445 467.937933,218.924745 467.937933,211.479222 C467.937933,204.033699 473.983983,198 481.438045,198 Z M472.087067,244.075277 L470.207052,244.075277 C470.061051,243.565063 469.836049,243.212606 469.531046,243.017907 C469.203043,242.800242 468.703039,242.689413 468.034034,242.689413 C467.426029,242.689413 466.987025,242.775281 466.720023,242.945019 C466.37902,243.127737 466.209018,243.407306 466.209018,243.783726 C466.209018,244.100238 466.465021,244.379807 466.976025,244.622433 C467.292027,244.756227 467.925033,244.943938 468.874041,245.187562 C469.934049,245.443168 470.730056,245.739711 471.266061,246.080186 C472.020067,246.554455 472.39807,247.210444 472.39807,248.049151 C472.39807,250.042079 470.998058,251.038543 468.199035,251.038543 C465.618013,251.038543 464.219002,249.939238 464,247.739628 L465.899016,247.739628 C466.008017,248.371654 466.233019,248.820961 466.574021,249.088549 C466.914024,249.331175 467.438029,249.452987 468.144035,249.452987 C469.653047,249.452987 470.407053,249.027643 470.407053,248.175956 C470.407053,247.715665 470.128051,247.357218 469.567046,247.100613 C469.276044,246.955836 468.643039,246.773118 467.670031,246.554455 C466.549021,246.298849 465.771015,246.025271 465.332011,245.734719 C464.602005,245.272431 464.237002,244.640406 464.237002,243.838641 C464.237002,242.975971 464.590005,242.307002 465.296011,241.833732 C466.002017,241.347481 466.927024,241.103857 468.071034,241.103857 C470.529054,241.103857 471.868066,242.095329 472.087067,244.075277 Z M476.906408,238.315655 L476.906408,241.358964 L479.060426,241.358964 L479.060426,242.96349 L476.906408,242.96349 L476.906408,248.432061 C476.906408,248.674687 476.961408,248.863396 477.071409,248.99719 C477.19241,249.118003 477.363411,249.17891 477.582413,249.17891 L478.823424,249.17891 L478.823424,250.783436 L477.271411,250.783436 C476.456404,250.783436 475.866399,250.570764 475.501396,250.14542 C475.147393,249.757018 474.971391,249.185899 474.971391,248.432061 L474.971391,242.96349 L473.218377,242.96349 L473.218377,241.358964 L474.971391,241.358964 L474.971391,239.117419 L476.906408,238.315655 Z M482.930958,243.328428 C482.516954,243.764755 482.254952,244.373816 482.145951,245.150619 L487.239994,245.150619 C487.056992,243.510148 486.198985,242.689413 484.664972,242.689413 C483.934966,242.689413 483.356961,242.903084 482.930958,243.328428 Z M488.134001,242.672439 C488.876007,243.63196 489.25301,244.943938 489.266011,246.60937 L482.109951,246.60937 C482.181952,247.544928 482.431954,248.249842 482.857957,248.723112 C483.307961,249.210361 483.909966,249.452987 484.664972,249.452987 C485.333978,249.452987 485.881982,249.29523 486.307986,248.978718 C486.612988,248.748074 486.898991,248.340702 487.165993,247.7576 L489.102009,247.7576 C488.869007,248.657214 488.438004,249.392081 487.804998,249.963201 C486.977991,250.680096 485.936983,251.038543 484.683972,251.038543 C483.283961,251.038543 482.181952,250.607208 481.378945,249.744538 C480.502938,248.832943 480.064934,247.605834 480.064934,246.062214 C480.064934,244.653386 480.477937,243.480194 481.305944,242.543638 C482.109951,241.584117 483.21096,241.103857 484.610972,241.103857 C486.167985,241.103857 487.342995,241.62705 488.134001,242.672439 Z M493.390945,243.674594 C492.989942,244.257695 492.78894,245.035497 492.78894,246.007997 L492.78894,246.171745 C492.78894,247.192172 493.037942,248.006916 493.536946,248.61398 C493.97595,249.186099 494.559955,249.471658 495.289961,249.471658 C496.239969,249.471658 496.938974,249.161137 497.389978,248.542091 C497.802982,247.94601 498.009983,247.137257 498.009983,246.11683 C498.009983,245.108384 497.821982,244.300629 497.444979,243.692567 C496.994975,243.012615 496.293969,242.67214 495.344961,242.67214 C494.492954,242.67214 493.840949,243.006624 493.390945,243.674594 Z M498.904991,242.580281 C499.634997,243.491876 500,244.671058 500,246.11683 C500,247.490712 499.640997,248.638942 498.922991,249.56152 C498.156985,250.546002 497.090976,251.038243 495.727964,251.038243 C494.571955,251.038243 493.610947,250.492085 492.84394,249.397772 L492.84394,254.392074 L490.908924,254.392074 L490.908924,241.359163 L492.715939,241.359163 L492.715939,242.489421 C493.372945,241.565845 494.346953,241.104556 495.636964,241.104556 C497.011975,241.104556 498.101984,241.596797 498.904991,242.580281 Z" id="形状结合" fill="#1FDB84"></path>
                <path d="M151.338513,248.162764 L151.228559,248.216778 C150.32794,248.65589 149.2404,248.279794 148.802586,247.377562 C148.363771,246.475331 148.739612,245.389052 149.641231,244.95194 L149.751184,244.897927 C150.651803,244.458814 151.737344,244.83391 152.177158,245.736141 C152.614973,246.636372 152.238132,247.725652 151.338513,248.162764 L151.338513,248.162764 Z M143.529816,251.962738 L143.418863,252.017753 C142.518244,252.455865 141.431704,252.079768 140.99289,251.177537 C140.555075,250.275306 140.929917,249.188027 141.830535,248.750915 L141.943488,248.697901 C142.843107,248.257788 143.929647,248.631884 144.367462,249.536116 C144.806276,250.438347 144.431435,251.524626 143.529816,251.962738 L143.529816,251.962738 Z M135.720121,255.763713 L135.610167,255.817727 C134.708549,256.254839 133.621009,255.878743 133.183194,254.978512 C132.74438,254.07528 133.12122,252.990002 134.021839,252.550889 L134.132792,252.496875 C135.033411,252.057763 136.119952,252.433859 136.558766,253.33509 C136.996581,254.237322 136.62074,255.324601 135.720121,255.763713 L135.720121,255.763713 Z M158.771368,243.957685 C157.993697,244.337783 157.035102,244.114726 156.509325,243.39154 C155.922573,242.578332 156.102497,241.44204 156.914154,240.851889 L156.971129,240.811879 C157.764794,240.196721 158.905311,240.34876 159.517052,241.143964 C160.128793,241.939168 159.978857,243.07746 159.185193,243.689617 L159.044252,243.794644 C158.957289,243.85866 158.864328,243.911674 158.771368,243.957685 L158.771368,243.957685 Z M164.900774,237.843117 C164.311024,238.129191 163.584331,238.085179 163.02057,237.664071 C162.21791,237.063917 162.053979,235.925625 162.651726,235.122419 L162.710701,235.043399 C163.298452,234.232191 164.434972,234.052145 165.245629,234.641296 C166.057285,235.232448 166.236209,236.366739 165.647459,237.177947 L165.560495,237.296977 C165.380571,237.537039 165.153667,237.720086 164.900774,237.843117 L164.900774,237.843117 Z M169.042022,230.195156 C168.614203,230.403209 168.112416,230.449221 167.639616,230.274176 C166.697014,229.926087 166.201224,228.920829 166.548077,227.980588 L166.606053,227.829549 C166.972898,226.89731 168.026452,226.437192 168.958058,226.804286 C169.892662,227.17038 170.351468,228.22465 169.982624,229.15789 C169.811697,229.62601 169.464843,229.990103 169.042022,230.195156 L169.042022,230.195156 Z M170.86825,221.760993 C170.600363,221.892026 170.295492,221.958043 169.976627,221.936038 C168.97705,221.874022 168.215372,221.037807 168.278345,220.03555 L168.295338,219.8415 C168.396295,218.842244 169.289917,218.116058 170.285496,218.221085 C171.283074,218.323111 172.007767,219.21534 171.903811,220.214596 C171.861829,220.896771 171.446005,221.480921 170.86825,221.760993 L170.86825,221.760993 Z M170.224522,213.102772 C170.105572,213.159787 169.981625,213.203798 169.849681,213.233806 C168.871095,213.451862 167.911501,212.891718 167.691594,211.914467 L167.662606,211.783434 C167.449696,210.803182 168.071433,209.839935 169.04802,209.620879 C170.026606,209.407824 170.995196,210.027984 171.209105,211.008235 C171.399025,211.854452 170.974205,212.736678 170.224522,213.102772 L170.224522,213.102772 Z M163.416402,197.160683 C162.514784,197.599796 161.440239,197.251707 161.002424,196.349475 L160.977434,196.295462 C160.53762,195.39223 160.913461,194.305951 161.81508,193.867839 C162.716699,193.428726 163.802239,193.803823 164.240054,194.707054 C164.679868,195.607285 164.316022,196.722571 163.416402,197.160683 L163.416402,197.160683 Z M151.03864,190.28592 L154.794051,179.416133 L165.654456,183.174096 L151.03864,190.28592 Z M176.597825,206.380048 L176.496868,206.31003 C175.66622,205.749886 175.448312,204.619596 176.010074,203.788383 C176.571836,202.95817 177.699359,202.739114 178.529008,203.301258 L178.631965,203.369276 C179.461614,203.93142 179.679522,205.06071 179.11676,205.890923 C178.555997,206.723136 177.427474,206.940192 176.597825,206.380048 L176.597825,206.380048 Z M169.404869,201.5128 L169.302912,201.443782 C168.473263,200.880638 168.254356,199.751348 168.816118,198.921135 C169.37888,198.089922 170.506403,197.871866 171.336052,198.43401 L171.438009,198.503028 C172.268657,199.065172 172.487564,200.193461 171.925802,201.024674 C171.36404,201.854887 170.234518,202.073944 169.404869,201.5128 L169.404869,201.5128 Z M183.952714,210.718161 C183.237016,210.233036 182.950138,209.290794 183.313984,208.474585 C183.722811,207.55835 184.796357,207.147245 185.712969,207.55635 L185.775942,207.586357 C186.705549,207.963454 187.144363,209.028727 186.761525,209.956965 C186.380686,210.884203 185.318136,211.323316 184.392527,210.942218 L184.232595,210.8732 C184.133637,210.829189 184.039677,210.778176 183.952714,210.718161 L183.952714,210.718161 Z M192.312177,212.973739 C191.765408,212.603644 191.442545,211.951477 191.52551,211.252298 C191.64246,210.257042 192.547077,209.54586 193.541657,209.66489 L193.638615,209.674893 C194.633195,209.777919 195.358888,210.672149 195.253932,211.669404 C195.149976,212.667661 194.256354,213.390846 193.258776,213.286819 L193.112838,213.271815 C192.816963,213.235806 192.545078,213.130779 192.312177,212.973739 L192.312177,212.973739 Z M201.000501,212.736678 C200.606667,212.47061 200.314791,212.057504 200.231826,211.560377 C200.060898,210.570123 200.682635,209.638884 201.670217,209.46784 L201.82915,209.443834 C202.819731,209.294795 203.745339,209.978971 203.891278,210.968225 C204.043213,211.96248 203.359503,212.885716 202.368922,213.034755 C201.87713,213.120777 201.389336,213.001746 201.000501,212.736678 L201.000501,212.736678 Z M209.212026,210.104003 C208.963132,209.93496 208.756219,209.704901 208.614279,209.418827 C208.168468,208.520597 208.513322,207.44132 209.410942,206.996206 L209.586868,206.912184 C210.50248,206.501079 211.577026,206.912184 211.983854,207.828419 C212.395679,208.742654 211.983854,209.81793 211.069241,210.227035 C210.457499,210.533113 209.744801,210.464095 209.212026,210.104003 L209.212026,210.104003 Z M216.384991,205.214749 C216.276038,205.14173 216.174081,205.054708 216.08212,204.956683 C215.404406,204.217493 215.410404,203.107209 216.146093,202.427034 L216.24605,202.33401 C216.986737,201.659837 218.130253,201.717852 218.807966,202.455041 C219.482681,203.198232 219.428704,204.346526 218.689017,205.020699 C218.051286,205.610851 217.076699,205.681869 216.384991,205.214749 L216.384991,205.214749 Z M226.777594,191.344192 C225.946946,190.782048 225.710046,189.677764 226.272808,188.847551 L226.305794,188.797539 C226.868556,187.966325 227.996079,187.74927 228.826727,188.310414 C229.656376,188.872558 229.874284,190.000847 229.313521,190.83206 C228.752759,191.662273 227.605244,191.905336 226.777594,191.344192 L226.777594,191.344192 Z M226.537696,177.180559 L237.822921,175 L240,186.290896 L226.537696,177.180559 Z M221.877668,198.593051 C221.047019,198.030907 220.830111,196.902617 221.390874,196.070404 L221.458845,195.970378 C222.020607,195.140165 223.14913,194.922109 223.978779,195.483253 C224.808428,196.045397 225.027335,197.174687 224.464573,198.0049 L224.397601,198.105926 C223.834839,198.937139 222.707317,199.154195 221.877668,198.593051 L221.877668,198.593051 Z M167.239785,205.030702 C166.339166,205.467814 165.252626,205.093718 164.812812,204.192487 L164.761833,204.082459 C164.322019,203.180227 164.69786,202.092948 165.599479,201.653836 C166.501097,201.216724 167.586638,201.59282 168.025452,202.495052 L168.07843,202.602079 C168.517244,203.506311 168.141403,204.591589 167.239785,205.030702 L167.239785,205.030702 Z" id="Fill-39" fill="#6FDEAA"></path>
                <path d="M389.662106,248.16347 L389.77106,248.217485 C390.672675,248.656601 391.75921,248.278501 392.198023,247.378261 C392.636835,246.475021 392.259996,245.389732 391.359381,244.950615 L391.248428,244.896601 C390.347813,244.459484 389.263277,244.832584 388.823465,245.736824 C388.385652,246.637064 388.760492,247.726354 389.662106,248.16347 L389.662106,248.16347 Z M397.470769,251.963481 L397.581722,252.016496 C398.480338,252.456613 399.568872,252.080513 400.006685,251.178272 C400.445498,250.276032 400.069658,249.188743 399.168044,248.749626 L399.056092,248.696612 C398.155476,248.258495 397.07094,248.632595 396.632128,249.536836 C396.193315,250.437075 396.568155,251.525365 397.470769,251.963481 L397.470769,251.963481 Z M405.278432,255.762492 L405.389385,255.816507 C406.291999,256.255624 407.377535,255.879524 407.816347,254.977283 C408.25616,254.076044 407.878321,252.988754 406.978705,252.551638 L406.867753,252.497624 C405.966138,252.058507 404.879603,252.432606 404.44079,253.335847 C404.001978,254.236086 404.379816,255.325376 405.278432,255.762492 L405.278432,255.762492 Z M382.228284,243.958351 C383.004952,244.338452 383.964542,244.113392 384.490317,243.3902 C385.078066,242.577984 384.897143,241.442682 384.08549,240.852525 L384.027515,240.812514 C383.235853,240.19735 382.094341,240.34839 381.483602,241.144602 C380.870864,241.937813 381.0208,243.078117 381.81546,243.69028 L381.954401,243.793307 C382.042363,243.859325 382.135323,243.912339 382.228284,243.958351 L382.228284,243.958351 Z M376.098903,237.841723 C376.688651,238.1298 377.415341,238.083788 377.9791,237.662676 C378.780757,237.064517 378.945687,235.926214 378.346942,235.123 L378.288967,235.043979 C377.701218,234.232763 376.564704,234.052715 375.75505,234.641872 C374.942398,235.231029 374.764474,236.367331 375.352222,237.178547 L375.439185,237.297579 C375.620108,237.535642 375.846011,237.720691 376.098903,237.841723 L376.098903,237.841723 Z M371.957673,230.195689 C372.384491,230.403744 372.887276,230.447756 373.359074,230.272709 C374.303671,229.926617 374.79746,228.921349 374.451607,227.981099 L374.395631,227.830059 C374.026789,226.897811 372.973239,226.437689 372.041637,226.804786 C371.108036,227.170884 370.649232,228.225164 371.017075,229.158413 C371.188002,229.626537 371.534854,229.990634 371.957673,230.195689 L371.957673,230.195689 Z M370.131454,221.761444 C370.400339,221.892479 370.705209,221.955496 371.023073,221.936491 C372.023645,221.874474 372.78432,221.035251 372.720347,220.033984 L372.704354,219.839933 C372.603397,218.842667 371.709779,218.116474 370.715204,218.221502 C369.715631,218.323529 368.99294,219.215767 369.096896,220.215033 C369.138878,220.897214 369.5557,221.48137 370.131454,221.761444 L370.131454,221.761444 Z M370.776178,213.101139 C370.894128,213.158155 371.019074,213.204167 371.149019,213.234175 C372.1286,213.452233 373.08819,212.892084 373.309096,211.914824 L373.338083,211.780788 C373.550992,210.803528 372.929258,209.840272 371.951676,209.621213 C370.973094,209.406156 370.003508,210.028322 369.791599,211.008583 C369.60168,211.854808 370.025499,212.737043 370.776178,213.101139 L370.776178,213.101139 Z M377.584268,197.159897 C378.484884,197.599014 379.560424,197.250921 379.997237,196.348681 L380.022226,196.294667 C380.461039,195.391427 380.086199,194.305137 379.184584,193.867021 C378.28297,193.427904 377.196434,193.803004 376.759621,194.706244 C376.320808,195.607484 376.682654,196.721781 377.584268,197.159897 L377.584268,197.159897 Z M389.961978,190.285068 L386.206583,179.416175 L375.346225,183.173175 L389.961978,190.285068 Z M364.401902,206.37835 L364.502859,206.310332 C365.332505,205.748183 365.551411,204.619882 364.989651,203.788661 C364.427891,202.95644 363.300373,202.739382 362.469728,203.299531 L362.367772,203.36955 C361.538126,203.931699 361.32022,205.061 361.881979,205.891221 C362.443739,206.721442 363.571258,206.9405 364.401902,206.37835 L364.401902,206.37835 Z M371.594828,201.511055 L371.697784,201.442037 C372.525431,200.880887 372.744337,199.751587 372.184576,198.920366 C371.619818,198.089144 370.494299,197.871086 369.664653,198.433236 L369.561697,198.503255 C368.731052,199.065404 368.513145,200.192704 369.073906,201.024926 C369.636665,201.855147 370.764183,202.074205 371.594828,201.511055 L371.594828,201.511055 Z M357.046046,210.718505 C357.76374,210.233376 358.048618,209.291126 357.685773,208.474908 C357.276948,207.558664 356.203406,207.147555 355.286798,207.554663 L355.223825,207.584671 C354.293223,207.963772 353.85541,209.029056 354.239246,209.957303 C354.619084,210.882549 355.681629,211.323666 356.608233,210.942565 L356.768165,210.873547 C356.867123,210.829535 356.960083,210.775521 357.046046,210.718505 L357.046046,210.718505 Z M348.687619,212.972105 C349.232386,212.604007 349.557247,211.951834 349.474282,211.252648 C349.357332,210.257383 348.452719,209.546193 347.458144,209.663225 L347.361186,209.675228 C346.366611,209.778255 345.64192,210.672493 345.745876,211.669759 C345.849832,212.668024 346.74345,213.391217 347.741023,213.287189 L347.886961,213.270184 C348.183834,213.234175 348.454718,213.129147 348.687619,212.972105 L348.687619,212.972105 Z M339.999332,212.737043 C340.393164,212.470972 340.68304,212.057862 340.768003,211.560729 C340.93893,210.570466 340.317196,209.639218 339.329618,209.468173 L339.171686,209.442166 C338.180109,209.295127 337.254505,209.977308 337.106568,210.968572 C336.956632,211.962837 337.64034,212.886082 338.630917,213.033121 C339.123706,213.119144 339.610498,213.000113 339.999332,212.737043 L339.999332,212.737043 Z M331.788841,210.102341 C332.034736,209.935297 332.243647,209.705236 332.383587,209.41916 C332.831395,208.520921 332.487542,207.441633 331.588927,206.996515 L331.413002,206.912493 C330.497393,206.501383 329.420853,206.912493 329.016026,207.826736 C328.605202,208.74298 329.016026,209.816265 329.931635,210.227375 C330.542374,210.531456 331.256069,210.462437 331.788841,210.102341 L331.788841,210.102341 Z M324.615907,205.214041 C324.723861,205.140021 324.825817,205.054998 324.917778,204.956972 C325.596488,204.217775 325.589491,203.105479 324.853805,202.427299 L324.753848,202.334274 C324.013164,201.660095 322.869653,201.71811 322.192942,202.455306 C321.517231,203.196504 321.571208,204.344809 322.311891,205.020989 C322.949619,205.609146 323.924202,205.682165 324.615907,205.214041 L324.615907,205.214041 Z M314.223348,191.343349 C315.052994,190.7822 315.289893,189.676906 314.727133,188.846685 L314.694147,188.796672 C314.131388,187.96545 313.004869,187.748393 312.174224,188.309542 C311.343579,188.871692 311.125672,189.999992 311.687432,190.831213 C312.247193,191.661434 313.393703,191.905499 314.223348,191.343349 L314.223348,191.343349 Z M314.462246,177.18058 L303.178069,175 L301,186.290004 L314.462246,177.18058 Z M319.122255,198.592278 C319.9529,198.031129 320.170807,196.901828 319.609047,196.070607 L319.542075,195.96958 C318.979316,195.14036 317.851798,194.921301 317.021153,195.483451 C316.191507,196.045601 315.972601,197.173901 316.53536,198.005122 L316.602332,198.105149 C317.165091,198.93637 318.292609,199.153428 319.122255,198.592278 L319.122255,198.592278 Z M373.758903,205.028991 C374.660518,205.468108 375.747054,205.094009 376.185866,204.190768 L376.238843,204.082739 C376.676656,203.180499 376.300817,202.09321 375.401201,201.654093 C374.497588,201.214976 373.414051,201.593077 372.975238,202.493316 L372.921261,202.602346 C372.482449,203.504586 372.859288,204.591875 373.758903,205.028991 L373.758903,205.028991 Z" id="Fill-41" fill="#6FDEAA"></path>
                <path d="M286,309.661905 C286,312.320179 279.509236,314.474524 271.501007,314.474524 C263.491771,314.474524 257,312.319167 257,309.661905 L257,305.812619 C257,303.155357 263.491771,301 271.501007,301 C279.509236,301 286,303.155357 286,305.812619 L286,309.661905 Z M286,319.916548 C286,322.57381 279.509236,324.729167 271.501007,324.729167 C263.491771,324.729167 257,322.57381 257,319.916548 L257,316.067262 C257,315.564345 257.210451,315.079643 257.642431,314.624286 C259.489167,316.577262 264.96191,317.992917 271.455694,317.992917 C277.947465,317.992917 283.465521,316.577262 285.313264,314.624286 C285.744236,315.079643 286,315.564345 286,316.067262 L286,319.916548 Z M286,330.187381 C286,332.845655 279.509236,335 271.501007,335 C263.491771,335 257,332.845655 257,330.187381 L257,326.338095 C257,325.834167 257.210451,325.350476 257.642431,324.894107 C259.489167,326.847083 264.96191,328.262738 271.455694,328.262738 C277.947465,328.262738 283.465521,326.847083 285.313264,324.894107 C285.744236,325.350476 286,325.834167 286,326.338095 L286,330.187381 Z" id="Fill-49" fill="#1FDB84"></path>
            </g>
        </g>
    </g>
</svg>