<?xml version="1.0" encoding="UTF-8"?>
<svg width="540px" height="392px" viewBox="0 0 540 392" version="1.1" xmlns="http://www.w3.org/2000/svg" xmlns:xlink="http://www.w3.org/1999/xlink">
    <!-- Generator: Sketch 54.1 (76490) - https://sketchapp.com -->
    <title>编组 8</title>
    <desc>Created with Sketch.</desc>
    <g id="Page-1" stroke="none" stroke-width="1" fill="none" fill-rule="evenodd">
        <g id="首页" transform="translate(-375.000000, -1823.000000)">
            <g id="编组-8" transform="translate(375.000000, 1823.000000)">
                <path d="M122.807083,25.510011 L167.150643,25.5000016 C195.375493,25.4929257 218.473918,48.5825829 218.479983,76.8105741 L218.500105,172.478869 L122.839314,172.499999 C94.6123275,172.505053 71.5160748,149.417255 71.5100103,121.188433 L71.5000016,76.8428347 C71.4929264,48.61477 94.5803136,25.5160761 122.807089,25.510011 Z" id="Fill-1" stroke="#6FDEAA"></path>
                <path d="M138.909313,196.517036 L138.909332,196.517036 L218.481846,196.499892 L218.499999,276.067596 C218.504064,296.097226 202.120312,312.486916 182.089663,312.49098 L138.934621,312.499999 C118.90429,312.505079 102.514102,296.122827 102.509021,276.092855 L102.500001,232.941447 C102.49492,212.912121 118.878357,196.522116 138.909313,196.517036 Z" id="Fill-3" stroke="#6FDEAA"></path>
                <path d="M293.735183,0.515991389 L363.224634,0.500000828 C391.412974,0.494954182 414.478951,23.5481728 414.485007,51.733927 L414.499999,121.217887 C414.506055,149.403242 391.449565,172.467959 363.262812,172.474015 L242.5271,172.500108 L242.500002,51.7711384 C242.492936,23.5859283 265.548277,0.522047273 293.735191,0.515991387 Z" id="Fill-5" stroke="#6FDEAA"></path>
                <path d="M242.499888,196.531085 L386.238094,196.500002 C414.416168,196.492938 437.473962,219.54151 437.480016,247.721845 L437.499998,340.236956 C437.507061,368.415341 414.458312,391.47397 386.280296,391.479016 L293.771878,391.499999 C265.594657,391.506053 242.538026,368.458331 242.531972,340.279159 L242.499888,196.531085 Z" id="Fill-7" stroke="#6FDEAA"></path>
                <path d="M127.382136,41 L162.618868,41 C184.828942,41 203,59.1719043 203,81.3817866 L203,116.618213 C203,138.828096 184.828942,157 162.618868,157 L127.382136,157 C105.171058,157 87,138.828096 87,116.618213 L87,81.3817866 C87,59.1719043 105.171058,41 127.382136,41" id="Fill-9" fill="#1FDB84" opacity="0.100000001"></path>
                <path d="M299.848496,16 L357.152506,16 C380.168477,16 399,34.830521 399,57.8474945 L399,115.151504 C399,138.167475 380.168477,157 357.152506,157 L299.848496,157 C276.831523,157 258,138.167475 258,115.151504 L258,57.8474945 C258,34.830521 276.831523,16 299.848496,16" id="Fill-11" fill="#1FDB84" opacity="0.100000001"></path>
                <path d="M301.367861,213 L378.631139,213 C401.932762,213 421,232.064237 421,255.367861 L421,332.629138 C421,355.933762 401.932762,375 378.631139,375 L301.367861,375 C278.065237,375 259,355.933762 259,332.629138 L259,255.367861 C259,232.064237 278.065237,213 301.367861,213" id="Fill-13" fill="#1FDB84" opacity="0.100000001"></path>
                <path d="M146.052455,211 L175.947545,211 C191.925748,211 205,224.072262 205,240.051461 L205,269.94655 C205,285.924754 191.925748,299 175.947545,299 L146.052455,299 C130.073257,299 117,285.924754 117,269.94655 L117,240.051461 C117,224.072262 130.073257,211 146.052455,211" id="Fill-15" fill="#1FDB84" opacity="0.100000001"></path>
                <path d="M68.1854422,100.552191 C67.5835982,100.552191 67.0941647,100.080817 67.0941647,99.49904 C67.0941647,98.9191831 67.5835982,98.4478094 68.1854422,98.4478094 L70.3650127,98.4478094 C70.9668567,98.4478094 71.4552954,98.9191831 71.4552954,99.49904 C71.4552954,100.080817 70.9668567,100.552191 70.3650127,100.552191 L68.1854422,100.552191 Z M59.4631809,100.552191 C58.8623317,100.552191 58.373893,100.080817 58.373893,99.49904 C58.373893,98.9191831 58.8623317,98.4478094 59.4631809,98.4478094 L61.644741,98.4478094 C62.2455902,98.4478094 62.7350237,98.9191831 62.7350237,99.49904 C62.7350237,100.080817 62.2455902,100.552191 61.644741,100.552191 L59.4631809,100.552191 Z M50.7429091,100.552191 C50.1400704,100.552191 49.6526265,100.080817 49.6526265,99.49904 C49.6526265,98.9191831 50.1400704,98.4478094 50.7429091,98.4478094 L52.9224797,98.4478094 C53.5253185,98.4478094 54.0127623,98.9191831 54.0127623,99.49904 C54.0127623,100.080817 53.5253185,100.552191 52.9224797,100.552191 L50.7429091,100.552191 Z M42.0216426,100.552191 C41.4197986,100.552191 40.9313599,100.080817 40.9313599,99.49904 C40.9313599,98.9191831 41.4197986,98.4478094 42.0216426,98.4478094 L44.2022079,98.4478094 C44.8040519,98.4478094 45.2914958,98.9191831 45.2914958,99.49904 C45.2914958,100.080817 44.8040519,100.552191 44.2022079,100.552191 L42.0216426,100.552191 Z M33.3003761,100.552191 C32.6975373,100.552191 32.2100934,100.080817 32.2100934,99.49904 C32.2100934,98.9191831 32.6975373,98.4478094 33.3003761,98.4478094 L35.4809414,98.4478094 C36.0827854,98.4478094 36.5712241,98.9191831 36.5712241,99.49904 C36.5712241,100.080817 36.0827854,100.552191 35.4809414,100.552191 L33.3003761,100.552191 Z M24.5791095,100.552191 C23.9772656,100.552191 23.4888269,100.080817 23.4888269,99.49904 C23.4888269,98.9191831 23.9772656,98.4478094 24.5791095,98.4478094 L26.7596749,98.4478094 C27.3615189,98.4478094 27.8499575,98.9191831 27.8499575,99.49904 C27.8499575,100.080817 27.3615189,100.552191 26.7596749,100.552191 L24.5791095,100.552191 Z M15.857843,100.552191 C15.255999,100.552191 14.7685551,100.080817 14.7685551,99.49904 C14.7685551,98.9191831 15.255999,98.4478094 15.857843,98.4478094 L18.0384083,98.4478094 C18.6402523,98.4478094 19.1296858,98.9191831 19.1296858,99.49904 C19.1296858,100.080817 18.6402523,100.552191 18.0384083,100.552191 L15.857843,100.552191 Z M10.3606697,105 L0,99.49904 L10.3606697,94 L10.3606697,105 Z M74.4287031,99.49904 C74.4287031,101.517019 76.1238141,103.152906 78.2138542,103.152906 C80.304889,103.152906 82,101.517019 82,99.49904 C82,97.4829813 80.304889,95.8470937 78.2138542,95.8470937 C76.1238141,95.8470937 74.4287031,97.4829813 74.4287031,99.49904 L74.4287031,99.49904 Z" id="Fill-17" fill="#6FDEAA"></path>
                <path d="M88.8445748,259.552579 C88.2417354,259.552579 87.7514924,259.080286 87.7514924,258.50048 C87.7514924,257.918754 88.2417354,257.447421 88.8445748,257.447421 L91.0277501,257.447421 C91.6315859,257.447421 92.119836,257.918754 92.119836,258.50048 C92.119836,259.080286 91.6315859,259.552579 91.0277501,259.552579 L88.8445748,259.552579 Z M80.1088841,259.552579 C79.5060447,259.552579 79.0167982,259.080286 79.0167982,258.50048 C79.0167982,257.918754 79.5060447,257.447421 80.1088841,257.447421 L82.2930559,257.447421 C82.8958952,257.447421 83.3851417,257.918754 83.3851417,258.50048 C83.3851417,259.080286 82.8958952,259.552579 82.2930559,259.552579 L80.1088841,259.552579 Z M71.3741899,259.552579 C70.770354,259.552579 70.282104,259.080286 70.282104,258.50048 C70.282104,257.918754 70.770354,257.447421 71.3741899,257.447421 L73.5573652,257.447421 C74.1602046,257.447421 74.6494511,257.918754 74.6494511,258.50048 C74.6494511,259.080286 74.1602046,259.552579 73.5573652,259.552579 L71.3741899,259.552579 Z M62.6384992,259.552579 C62.0346634,259.552579 61.5464133,259.080286 61.5464133,258.50048 C61.5464133,257.918754 62.0346634,257.447421 62.6384992,257.447421 L64.822671,257.447421 C65.4245139,257.447421 65.9137604,257.918754 65.9137604,258.50048 C65.9137604,259.080286 65.4245139,259.552579 64.822671,259.552579 L62.6384992,259.552579 Z M53.9028085,259.552579 C53.2989727,259.552579 52.8107226,259.080286 52.8107226,258.50048 C52.8107226,257.918754 53.2989727,257.447421 53.9028085,257.447421 L56.0869803,257.447421 C56.6888232,257.447421 57.1790662,257.918754 57.1790662,258.50048 C57.1790662,259.080286 56.6888232,259.552579 56.0869803,259.552579 L53.9028085,259.552579 Z M45.1661214,259.552579 C44.5642785,259.552579 44.075032,259.080286 44.075032,258.50048 C44.075032,257.918754 44.5642785,257.447421 45.1661214,257.447421 L47.3502932,257.447421 C47.954129,257.447421 48.4423791,257.918754 48.4423791,258.50048 C48.4423791,259.080286 47.954129,259.552579 47.3502932,259.552579 L45.1661214,259.552579 Z M36.4304308,259.552579 C35.8275914,259.552579 35.3393413,259.080286 35.3393413,258.50048 C35.3393413,257.918754 35.8275914,257.447421 36.4304308,257.447421 L38.6146025,257.447421 C39.2184383,257.447421 39.7076848,257.918754 39.7076848,258.50048 C39.7076848,259.080286 39.2184383,259.552579 38.6146025,259.552579 L36.4304308,259.552579 Z M27.6957365,259.552579 C27.0919007,259.552579 26.6036506,259.080286 26.6036506,258.50048 C26.6036506,257.918754 27.0919007,257.447421 27.6957365,257.447421 L29.8789119,257.447421 C30.4827477,257.447421 30.9719942,257.918754 30.9719942,258.50048 C30.9719942,259.080286 30.4827477,259.552579 29.8789119,259.552579 L27.6957365,259.552579 Z M18.9600459,259.552579 C18.3572065,259.552579 17.8689564,259.080286 17.8689564,258.50048 C17.8689564,257.918754 18.3572065,257.447421 18.9600459,257.447421 L21.1442176,257.447421 C21.747057,257.447421 22.2353071,257.918754 22.2353071,258.50048 C22.2353071,259.080286 21.747057,259.552579 21.1442176,259.552579 L18.9600459,259.552579 Z M10.3778052,264 L0,258.50048 L10.3778052,253 L10.3778052,257.447421 L12.408527,257.447421 C13.0123628,257.447421 13.5006128,257.918754 13.5006128,258.50048 C13.5006128,259.080286 13.0123628,259.552579 12.408527,259.552579 L10.3778052,259.552579 L10.3778052,264 Z M99.7634408,257.447421 C100.36628,257.447421 100.855527,257.918754 100.855527,258.50048 C100.855527,259.080286 100.36628,259.552579 99.7634408,259.552579 L97.5802654,259.552579 C96.9764296,259.552579 96.4881795,259.080286 96.4881795,258.50048 C96.4881795,257.918754 96.9764296,257.447421 97.5802654,257.447421 L99.7634408,257.447421 Z M105.417177,258.50048 C105.417177,260.516363 107.115092,262.152108 109.208589,262.152108 C111.303082,262.152108 113,260.516363 113,258.50048 C113,256.482677 111.303082,254.847892 109.208589,254.847892 C107.115092,254.847892 105.417177,256.482677 105.417177,258.50048 L105.417177,258.50048 Z" id="Fill-19" fill="#6FDEAA"></path>
                <path d="M450.507266,292.448381 C451.113506,292.448381 451.606328,292.919714 451.606328,293.50144 C451.606328,294.081246 451.113506,294.552579 450.507266,294.552579 L448.306131,294.552579 C447.697883,294.552579 447.20707,294.081246 447.20707,293.50144 C447.20707,292.919714 447.697883,292.448381 448.306131,292.448381 L450.507266,292.448381 Z M459.306786,292.448381 C459.913026,292.448381 460.404844,292.919714 460.404844,293.50144 C460.404844,294.081246 459.913026,294.552579 459.306786,294.552579 L457.105651,294.552579 C456.497403,294.552579 456.00659,294.081246 456.00659,293.50144 C456.00659,292.919714 456.497403,292.448381 457.105651,292.448381 L459.306786,292.448381 Z M468.103295,292.448381 C468.712546,292.448381 469.205368,292.919714 469.205368,293.50144 C469.205368,294.081246 468.712546,294.552579 468.103295,294.552579 L465.905171,294.552579 C465.29592,294.552579 464.805106,294.081246 464.805106,293.50144 C464.805106,292.919714 465.29592,292.448381 465.905171,292.448381 L468.103295,292.448381 Z M476.903818,292.448381 C477.511063,292.448381 478.004888,292.919714 478.004888,293.50144 C478.004888,294.081246 477.511063,294.552579 476.903818,294.552579 L474.703688,294.552579 C474.096443,294.552579 473.604626,294.081246 473.604626,293.50144 C473.604626,292.919714 474.096443,292.448381 474.703688,292.448381 L476.903818,292.448381 Z M485.702335,292.448381 C486.310583,292.448381 486.804408,292.919714 486.804408,293.50144 C486.804408,294.081246 486.310583,294.552579 485.702335,294.552579 L483.503208,294.552579 C482.895963,294.552579 482.404146,294.081246 482.404146,293.50144 C482.404146,292.919714 482.895963,292.448381 483.503208,292.448381 L485.702335,292.448381 Z M494.501855,292.448381 C495.110103,292.448381 495.603928,292.919714 495.603928,293.50144 C495.603928,294.081246 495.110103,294.552579 494.501855,294.552579 L492.303731,294.552579 C491.69448,294.552579 491.203666,294.081246 491.203666,293.50144 C491.203666,292.919714 491.69448,292.448381 492.303731,292.448381 L494.501855,292.448381 Z M503.301375,292.448381 C503.909623,292.448381 504.402444,292.919714 504.402444,293.50144 C504.402444,294.081246 503.909623,294.552579 503.301375,294.552579 L501.102247,294.552579 C500.494,294.552579 500.003186,294.081246 500.003186,293.50144 C500.003186,292.919714 500.494,292.448381 501.102247,292.448381 L503.301375,292.448381 Z M512.099891,292.448381 C512.709142,292.448381 513.201964,292.919714 513.201964,293.50144 C513.201964,294.081246 512.709142,294.552579 512.099891,294.552579 L509.901767,294.552579 C509.292516,294.552579 508.801702,294.081246 508.801702,293.50144 C508.801702,292.919714 509.292516,292.448381 509.901767,292.448381 L512.099891,292.448381 Z M520.902422,292.448381 C521.507659,292.448381 522.00048,292.919714 522.00048,293.50144 C522.00048,294.081246 521.507659,294.552579 520.902422,294.552579 L518.700284,294.552579 C518.093039,294.552579 517.602226,294.081246 517.602226,293.50144 C517.602226,292.919714 518.093039,292.448381 518.700284,292.448381 L520.902422,292.448381 Z M529.545363,288 L540,293.50144 L529.545363,299 L529.545363,294.552579 L527.499804,294.552579 C526.892559,294.552579 526.400742,294.081246 526.400742,293.50144 C526.400742,292.919714 526.892559,292.448381 527.499804,292.448381 L529.545363,292.448381 L529.545363,288 Z M439.506611,294.552579 C438.899367,294.552579 438.40755,294.081246 438.40755,293.50144 C438.40755,292.919714 438.899367,292.448381 439.506611,292.448381 L441.707746,292.448381 C442.313986,292.448381 442.806808,292.919714 442.806808,293.50144 C442.806808,294.081246 442.313986,294.552579 441.707746,294.552579 L439.506611,294.552579 Z M432.639232,293.50144 C432.639232,295.517323 430.927907,297.152108 428.820118,297.152108 C426.710321,297.152108 425,295.517323 425,293.50144 C425,291.483637 426.710321,289.847892 428.820118,289.847892 C430.927907,289.847892 432.639232,291.483637 432.639232,293.50144 L432.639232,293.50144 Z" id="Fill-21" fill="#6FDEAA"></path>
                <path d="M430.422783,84.4483812 C431.026338,84.4483812 431.517976,84.9187538 431.517976,85.5014399 C431.517976,86.0812462 431.026338,86.5525788 430.422783,86.5525788 L428.232398,86.5525788 C427.626844,86.5525788 427.137205,86.0812462 427.137205,85.5014399 C427.137205,84.9187538 427.626844,84.4483812 428.232398,84.4483812 L430.422783,84.4483812 Z M439.184324,84.4483812 C439.78688,84.4483812 440.277518,84.9187538 440.277518,85.5014399 C440.277518,86.0812462 439.78688,86.5525788 439.184324,86.5525788 L436.99194,86.5525788 C436.387386,86.5525788 435.897747,86.0812462 435.897747,85.5014399 C435.897747,84.9187538 436.387386,84.4483812 436.99194,84.4483812 L439.184324,84.4483812 Z M447.943866,84.4483812 C448.547421,84.4483812 449.03806,84.9187538 449.03806,85.5014399 C449.03806,86.0812462 448.547421,86.5525788 447.943866,86.5525788 L445.752482,86.5525788 C445.148927,86.5525788 444.658288,86.0812462 444.658288,85.5014399 C444.658288,84.9187538 445.148927,84.4483812 445.752482,84.4483812 L447.943866,84.4483812 Z M456.704408,84.4483812 C457.307963,84.4483812 457.798601,84.9187538 457.798601,85.5014399 C457.798601,86.0812462 457.307963,86.5525788 456.704408,86.5525788 L454.513023,86.5525788 C453.909468,86.5525788 453.41883,86.0812462 453.41883,85.5014399 C453.41883,84.9187538 453.909468,84.4483812 454.513023,84.4483812 L456.704408,84.4483812 Z M465.46395,84.4483812 C466.068504,84.4483812 466.559143,84.9187538 466.559143,85.5014399 C466.559143,86.0812462 466.068504,86.5525788 465.46395,86.5525788 L463.273565,86.5525788 C462.67001,86.5525788 462.179371,86.0812462 462.179371,85.5014399 C462.179371,84.9187538 462.67001,84.4483812 463.273565,84.4483812 L465.46395,84.4483812 Z M474.224491,84.4483812 C474.828046,84.4483812 475.319684,84.9187538 475.319684,85.5014399 C475.319684,86.0812462 474.828046,86.5525788 474.224491,86.5525788 L472.034106,86.5525788 C471.430551,86.5525788 470.938914,86.0812462 470.938914,85.5014399 C470.938914,84.9187538 471.430551,84.4483812 472.034106,84.4483812 L474.224491,84.4483812 Z M482.986032,84.4483812 C483.588588,84.4483812 484.079226,84.9187538 484.079226,85.5014399 C484.079226,86.0812462 483.588588,86.5525788 482.986032,86.5525788 L480.793648,86.5525788 C480.191093,86.5525788 479.699455,86.0812462 479.699455,85.5014399 C479.699455,84.9187538 480.191093,84.4483812 480.793648,84.4483812 L482.986032,84.4483812 Z M491.745574,84.4483812 C492.350129,84.4483812 492.840767,84.9187538 492.840767,85.5014399 C492.840767,86.0812462 492.350129,86.5525788 491.745574,86.5525788 L489.555189,86.5525788 C488.950635,86.5525788 488.459997,86.0812462 488.459997,85.5014399 C488.459997,84.9187538 488.950635,84.4483812 489.555189,84.4483812 L491.745574,84.4483812 Z M500.506116,84.4483812 C501.109671,84.4483812 501.600309,84.9187538 501.600309,85.5014399 C501.600309,86.0812462 501.109671,86.5525788 500.506116,86.5525788 L498.314731,86.5525788 C497.711176,86.5525788 497.220538,86.0812462 497.220538,85.5014399 C497.220538,84.9187538 497.711176,84.4483812 498.314731,84.4483812 L500.506116,84.4483812 Z M509.266657,84.4483812 C509.870212,84.4483812 510.360851,84.9187538 510.360851,85.5014399 C510.360851,86.0812462 509.870212,86.5525788 509.266657,86.5525788 L507.075273,86.5525788 C506.471718,86.5525788 505.98108,86.0812462 505.98108,85.5014399 C505.98108,84.9187538 506.471718,84.4483812 507.075273,84.4483812 L509.266657,84.4483812 Z M518.027199,84.4483812 C518.629755,84.4483812 519.122392,84.9187538 519.122392,85.5014399 C519.122392,86.0812462 518.629755,86.5525788 518.027199,86.5525788 L515.835814,86.5525788 C515.232259,86.5525788 514.741621,86.0812462 514.741621,85.5014399 C514.741621,84.9187538 515.232259,84.4483812 515.835814,84.4483812 L518.027199,84.4483812 Z M526.78774,84.4483812 C527.391295,84.4483812 527.881934,84.9187538 527.881934,85.5014399 C527.881934,86.0812462 527.391295,86.5525788 526.78774,86.5525788 L524.596356,86.5525788 C523.992801,86.5525788 523.501163,86.0812462 523.501163,85.5014399 C523.501163,84.9187538 523.992801,84.4483812 524.596356,84.4483812 L526.78774,84.4483812 Z M529.591673,80 L540,85.5014399 L529.591673,91 L529.591673,80 Z M410.604394,85.5014399 C410.604394,87.5173226 408.902648,89.1530675 406.801198,89.1530675 C404.701745,89.1530675 403,87.5173226 403,85.5014399 C403,83.4826774 404.701745,81.8478925 406.801198,81.8478925 C408.902648,81.8478925 410.604394,83.4826774 410.604394,85.5014399 L410.604394,85.5014399 Z M419.471857,86.5525788 C418.868301,86.5525788 418.376664,86.0812462 418.376664,85.5014399 C418.376664,84.9187538 418.868301,84.4483812 419.471857,84.4483812 L421.662242,84.4483812 C422.265797,84.4483812 422.757434,84.9187538 422.757434,85.5014399 C422.757434,86.0812462 422.265797,86.5525788 421.662242,86.5525788 L419.471857,86.5525788 Z" id="Fill-23" fill="#6FDEAA"></path>
                <path d="M162.498652,74.6604441 L162.49966,76.8875379 L165.262218,76.8875379 C165.540389,76.8875379 165.793363,76.8122112 166.022149,76.6625489 C166.250934,76.5128866 166.364823,76.2125709 166.364823,75.7625929 C166.363815,75.3681188 166.26706,75.0856436 166.07355,74.9151673 C165.879032,74.7446911 165.650247,74.659453 165.387194,74.659453 L162.498652,74.6604441 Z M166.885889,81.2406292 C166.885889,80.8858007 166.788126,80.5894496 166.593608,80.3505846 C166.400098,80.1127108 166.150148,79.9937738 165.845772,79.9937738 L162.500668,79.9937738 L162.500668,82.4260339 L165.701648,82.4260339 C166.033235,82.4260339 166.313422,82.3229552 166.542207,82.117789 C166.770993,81.913614 166.885889,81.6212274 166.885889,81.2406292 Z M170.999995,82.0563383 C171.001002,82.7104913 170.861917,83.2714771 170.584754,83.7422691 C170.307591,84.2120699 169.926618,84.5966326 169.441835,84.8969484 C168.957052,85.1972641 168.392647,85.4182885 167.747614,85.562004 C167.103588,85.7047283 166.422271,85.7770816 165.701648,85.7770816 L158.44905,85.7780727 L158.446027,71.2687596 L167.007841,71.2667773 C167.519836,71.2667773 167.983454,71.376794 168.398695,71.5928627 C168.814943,71.8119049 169.168704,72.0943801 169.459977,72.4412794 C169.750242,72.7891699 169.976004,73.1846352 170.135246,73.626684 C170.294489,74.0687329 170.37411,74.5216844 170.37411,74.9855384 C170.37411,75.6674434 170.198742,76.3176319 169.844981,76.937095 C169.492228,77.5575493 168.962091,78.0243767 168.256586,78.3375772 C169.101177,78.582389 169.769391,79.0085797 170.261229,79.6141668 C170.753068,80.2207451 170.999995,81.0344719 170.999995,82.0563383 Z M127.103236,75.7784512 L125.208449,75.8022385 C125.054246,75.2987389 124.822437,74.9508484 124.51403,74.7625316 C124.179419,74.5494363 123.675486,74.4463576 123.001225,74.4552779 C122.386427,74.463207 121.946998,74.554392 121.678905,74.7258594 C121.337239,74.9112028 121.169934,75.1907045 121.174973,75.5643647 C121.179004,75.8785564 121.441049,76.1521113 121.959092,76.3870117 C122.279593,76.5158601 122.919587,76.6942654 123.880083,76.923219 C124.949428,77.1630751 125.756728,77.4485237 126.300975,77.7795648 C127.06796,78.2404454 127.456996,78.8866693 127.467075,79.7192278 C127.493279,81.6975452 126.096378,82.7035533 123.275364,82.7392344 C120.674064,82.7729332 119.249951,81.6995275 119,79.5190173 L120.913936,79.4942388 C121.032864,80.1206399 121.264673,80.5636799 121.612386,80.8253411 C121.959092,81.0622238 122.487213,81.1752139 123.198766,81.1672848 C124.719635,81.147462 125.475533,80.7153245 125.463439,79.8708723 C125.457392,79.4129652 125.171158,79.0611102 124.60373,78.814316 C124.307418,78.673574 123.666416,78.5001243 122.682739,78.2959493 C121.550907,78.0570843 120.762756,77.7954231 120.31728,77.5119568 C119.574483,77.0629699 119.198549,76.4405333 119.188471,75.643656 C119.177384,74.7873102 119.52409,74.1192811 120.229595,73.64056 C120.934093,73.1489541 121.863345,72.8962131 123.016343,72.8803549 C125.493675,72.8496295 126.856309,73.815992 127.103236,75.7784512 Z M131.884749,70 L131.924056,73.0209978 L134.094997,72.994237 L134.116163,74.5860094 L131.945221,74.6127702 L132.01678,80.0412495 C132.019803,80.2820967 132.077252,80.4694224 132.190132,80.5992619 C132.3141,80.7181988 132.486445,80.7766761 132.706159,80.7746938 L133.958936,80.7578444 L133.979093,82.350608 L132.414886,82.3704308 C131.593476,82.3803422 130.995812,82.1771583 130.622902,81.759888 C130.262086,81.3782987 130.076639,80.8143395 130.066561,80.066028 L129.995002,74.6385399 L128.229222,74.660345 L128.209065,73.0685725 L129.973837,73.0457763 L129.944609,70.8206647 L131.884749,70 Z M138.021539,74.8986153 C137.61033,75.3366996 137.354332,75.9452602 137.253546,76.717359 L142.386603,76.6529349 C142.182006,75.0264725 141.306172,74.2226571 139.761114,74.2424799 C139.024365,74.2523914 138.444843,74.4704424 138.021539,74.8986153 Z M143.255383,74.1800381 C144.016321,75.1236043 144.414428,76.4210079 144.447687,78.0732399 L137.236412,78.165416 C137.322081,79.093124 137.58211,79.7898961 138.017508,80.2537501 C138.478102,80.7314801 139.088868,80.9643982 139.848799,80.9544868 C140.52306,80.9465577 141.072347,80.7830194 141.497666,80.4628809 C141.802041,80.2309539 142.084243,79.8226038 142.347296,79.240804 L144.298523,79.2150343 C144.075785,80.112017 143.650466,80.8464524 143.019542,81.4213142 C142.195109,82.143856 141.149953,82.5135516 139.888105,82.5284187 C138.477094,82.5472504 137.362395,82.1329535 136.540985,81.286519 C135.647009,80.393501 135.18843,79.1803444 135.168273,77.6480404 C135.149124,76.2495405 135.551262,75.0809852 136.37368,74.1403924 C137.169893,73.1779945 138.274513,72.6873797 139.684517,72.6695392 C141.25477,72.6487252 142.445059,73.1522248 143.255383,74.1800381 Z M148.567638,75.1076469 C148.169532,75.6924201 147.978037,76.4665012 147.991139,77.4318726 L147.993155,77.5944197 C148.006257,78.6073658 148.268302,79.4131634 148.77929,80.0088392 C149.22779,80.5708161 149.820415,80.8463533 150.557164,80.8364419 C151.513628,80.8255394 152.214094,80.5083742 152.660578,79.8869288 C153.069772,79.2912531 153.267313,78.4864466 153.253203,77.4735005 C153.241109,76.4724481 153.039536,75.6725973 152.652516,75.0739481 C152.189905,74.404928 151.480368,74.0758691 150.522897,74.088754 C149.664195,74.0986654 149.012107,74.4386267 148.567638,75.1076469 Z M154.108881,73.9519765 C154.856717,74.8469768 155.240713,76.0125587 155.259863,77.4477308 C155.276996,78.8105497 154.930291,79.9563087 154.218738,80.8810433 C153.459816,81.8672286 152.392486,82.369737 151.018766,82.3875776 C149.852666,82.4014536 148.878061,81.8711931 148.08991,80.7958051 L148.155421,85.7534924 L146.205202,85.7782709 L146.034873,72.8418986 L147.856085,72.8181112 L147.871203,73.9400828 C148.521276,73.0153483 149.49689,72.5445563 150.797036,72.5277069 C152.18285,72.5108575 153.287471,72.9846229 154.108881,73.9519765 Z M153.497711,114.0806 C157.459629,116.233358 160.117369,119.873819 160.117369,125 L129.881416,125 C129.881416,119.873819 132.437362,116.233358 136.50309,114.02906 C138.778849,116.208579 141.82361,117.440568 144.999393,117.463364 C148.166105,117.43363 151.202802,116.224438 153.497711,114.0806 Z M135.720986,111.312343 L135.710908,111.312343 C133.13682,111.323245 131.040461,109.280504 131.029374,106.750121 C131.049531,104.9512 132.156167,103.338613 133.844341,102.647788 C134.922757,98.7496306 138.019927,95.7048454 141.982852,94.6443245 C148.15905,92.9911014 154.527749,96.5750672 156.207861,102.647788 C157.910145,103.322755 159.023836,104.945253 159.022828,106.750121 C159.017789,109.267619 156.943602,111.306396 154.383625,111.312343 L154.383625,102.186908 L154.9571,102.186908 C153.876669,99.2491656 151.502138,96.9517008 148.4987,95.9347901 C143.013898,94.0773919 137.035242,96.945754 135.147511,102.340534 C135.325903,102.257279 135.523445,102.221598 135.720986,102.238447 L135.720986,111.312343 Z M144.999393,98.8031522 C149.469274,98.809099 153.098597,102.35441 153.132864,106.750121 C153.146974,111.151778 149.528738,114.73277 145.052809,114.746646 C140.575873,114.761513 136.934456,111.203317 136.920346,106.800669 C136.905228,102.398021 140.523464,98.8180193 144.999393,98.8031522 Z" id="形状结合" fill="#1FDB84"></path>
                <path d="M361.929616,327.331288 C361.929616,326.765205 361.853833,326.246379 361.702265,325.775817 C361.551695,325.306259 361.335312,324.90608 361.054115,324.574273 C360.772917,324.242466 360.427902,323.983053 360.016077,323.796034 C359.604252,323.611027 359.146559,323.517517 358.63801,323.517517 L357.034586,323.517517 L357.03658,331.1893 L358.640004,331.188294 C359.162513,331.188294 359.627187,331.090763 360.039012,330.896706 C360.448842,330.703655 360.795852,330.435193 361.078046,330.088303 C361.358247,329.74242 361.569644,329.335202 361.713234,328.865645 C361.858818,328.396087 361.929616,327.8843 361.929616,327.331288 Z M353.029017,334.714499 L353.026026,319.994329 L358.63801,319.992318 C359.844567,319.992318 360.906536,320.187381 361.824915,320.573483 C362.743294,320.959586 363.511103,321.484445 364.127344,322.148059 C364.743586,322.811673 365.212248,323.588906 365.526352,324.479758 C365.84245,325.372621 366,326.32179 366,327.330283 C366,328.449377 365.825498,329.461892 365.476494,330.367826 C365.12749,331.272754 364.628913,332.046971 363.985748,332.68947 C363.342584,333.33398 362.568792,333.82968 361.662379,334.183607 C360.758957,334.53653 359.750834,334.713493 358.641001,334.713493 L353.029017,334.714499 Z M322.016123,325.855551 L320.141473,325.879682 C319.989906,325.3689 319.759563,325.015978 319.454434,324.824938 C319.124376,324.60876 318.624802,324.504191 317.957705,324.51324 C317.350438,324.521284 316.914682,324.612782 316.650436,324.787735 C316.312401,324.975759 316.145876,325.259303 316.150862,325.638368 C316.15485,325.957104 316.414111,326.234615 316.926648,326.472913 C317.243743,326.603625 317.877933,326.784611 318.827224,327.016876 C319.886202,327.260201 320.683925,327.549778 321.223386,327.885607 C321.981223,328.352148 322.366124,329.008724 322.376096,329.853324 C322.403019,331.860254 321.019966,332.880812 318.228931,332.917009 C315.656273,332.951195 314.246297,331.862265 314,329.649212 L315.892599,329.625081 C316.010263,330.260541 316.240606,330.709989 316.584624,330.975435 C316.926648,331.215744 317.450154,331.330368 318.154145,331.322324 C319.658851,331.302215 320.405719,330.863827 320.39475,330.007162 C320.388767,329.542632 320.104578,329.185688 319.543181,328.935324 C319.251014,328.792546 318.616824,328.616588 317.643602,328.40946 C316.5228,328.16714 315.743026,327.901695 315.303281,327.614128 C314.568378,327.158648 314.196439,326.527209 314.185471,325.718806 C314.175499,324.850075 314.517523,324.172384 315.216528,323.686739 C315.913539,323.188023 316.832915,322.930621 317.97366,322.915539 C320.424665,322.884369 321.77182,323.864708 322.016123,325.855551 Z M326.746823,319.992519 L326.786709,323.058216 L328.933582,323.030062 L328.955519,324.644857 L326.807649,324.67301 L326.87745,330.180003 C326.881438,330.424334 326.937279,330.613363 327.04896,330.746086 C327.17161,330.866743 327.343121,330.926066 327.5605,330.92305 L328.798966,330.906962 L328.818909,332.522762 L327.272323,332.541866 C326.459642,332.552926 325.867332,332.346804 325.498385,331.923498 C325.141404,331.53639 324.957928,330.964274 324.947956,330.20514 L324.878155,324.699153 L323.130144,324.721273 L323.110201,323.106479 L324.857215,323.083353 L324.828298,320.826059 L326.746823,319.992519 Z M332.818295,324.961984 C332.411457,325.40741 332.158179,326.023767 332.058464,326.808038 L337.136971,326.742682 C336.934548,325.092696 336.068021,324.277255 334.540381,324.297365 C333.811461,324.307419 333.238097,324.528624 332.818295,324.961984 Z M337.997515,324.23402 C338.750366,325.191233 339.143245,326.507401 339.177148,328.18353 L332.041512,328.277039 C332.12627,329.218164 332.383536,329.925014 332.815304,330.395577 C333.270006,330.880216 333.874282,331.116503 334.626136,331.106448 C335.293232,331.098405 335.837679,330.931496 336.258478,330.607732 C336.558621,330.372451 336.838822,329.958195 337.098082,329.36798 L339.028572,329.341838 C338.809198,330.251794 338.387402,330.996852 337.764181,331.580028 C336.948508,332.31302 335.91446,332.687057 334.666022,332.703145 C333.269009,332.722249 332.166157,332.30196 331.353476,331.443283 C330.469,330.537349 330.015295,329.306646 329.996349,327.75218 C329.977403,326.333454 330.375268,325.147997 331.187948,324.1938 C331.976697,323.217483 333.068581,322.719773 334.4636,322.700669 C336.017166,322.680559 337.195803,323.191341 337.997515,324.23402 Z M343.252418,325.175045 C342.859539,325.768275 342.67008,326.553552 342.682046,327.532886 L342.685037,327.697784 C342.697003,328.725381 342.956263,329.542833 343.46182,330.147124 C343.905554,330.717229 344.492878,330.996751 345.220801,330.986696 C346.1671,330.975636 346.860122,330.653884 347.302859,330.02345 C347.706706,329.419159 347.902148,328.602713 347.889185,327.575116 C347.87722,326.55858 347.677789,325.74716 347.293884,325.140858 C346.836191,324.461157 346.134194,324.128344 345.186897,324.14041 C344.338319,324.15147 343.692163,324.496348 343.252418,325.175045 Z M348.735769,324.002659 C349.475658,324.909599 349.854577,326.092039 349.873522,327.548974 C349.891471,328.931503 349.547453,330.092828 348.843462,331.031943 C348.092605,332.032391 347.036619,332.542168 345.678494,332.560266 C344.524787,332.574343 343.559542,332.036413 342.779767,330.945472 L342.844582,335.974863 L340.915088,336 L340.747567,322.876526 L342.549424,322.852395 L342.564382,323.990594 C343.206549,323.052485 344.171794,322.574883 345.459121,322.55779 C346.830208,322.539692 347.922092,323.021315 348.735769,324.002659 Z M356.224199,275.541427 C357.010953,274.844633 357.091723,273.630017 356.400695,272.835691 L355.924055,272.294745 C355.23901,271.501425 354.039434,271.426014 353.251682,272.122809 L337.268296,286.288961 C336.561313,286.905318 335.516296,286.9204 334.804328,286.322142 L326.6845,279.533168 C325.880794,278.86352 324.686203,278.976134 324.016116,279.786547 L323.561413,280.342576 C322.897308,281.152989 323.00899,282.356544 323.812696,283.032224 L334.885097,292.29467 C335.602051,292.899966 336.647069,292.883879 337.348068,292.262495 L356.224199,275.541427 Z M339.999501,256 C353.208804,256 363.931204,266.802835 363.931204,280.131426 C363.931204,293.461022 353.223761,304.262852 339.999501,304.262852 C326.78621,304.262852 316.067799,293.461022 316.067799,280.131426 C316.067799,266.802835 326.78621,256 339.999501,256 Z" id="形状结合" fill="#1FDB84"></path>
                <path d="M179.966014,270.47079 L178.613707,275.412965 L181.258661,275.411958 L179.966014,270.47079 Z M172.916119,280.999597 L178.345234,266.255641 L181.584805,266.255641 L187,280.996576 L182.777023,280.997583 L181.894046,278.11062 L178.020084,278.111627 L177.159977,280.99859 L172.916119,280.999597 Z M141.993527,270.840546 L140.124162,270.864714 C139.973021,270.353176 139.743328,269.999732 139.439059,269.808409 C139.109931,269.591912 138.611765,269.487188 137.946549,269.49625 C137.340994,269.504306 136.906466,269.596947 136.642965,269.771151 C136.305883,269.959454 136.139827,270.243417 136.144799,270.623042 C136.148776,270.94225 136.407306,271.220172 136.918398,271.458822 C137.234599,271.589727 137.867002,271.77098 138.813617,272.003589 C139.86961,272.247274 140.665084,272.537279 141.203024,272.873605 C141.958725,273.341843 142.342542,273.998383 142.352485,274.844232 C142.379333,276.854131 141.000178,277.876199 138.217011,277.912449 C135.651605,277.946686 134.245603,276.856145 134,274.640826 L135.887264,274.615652 C136.004596,275.252052 136.23429,275.702165 136.576344,275.968003 C136.918398,276.208667 137.440429,276.323461 138.142435,276.315406 C139.642899,276.295266 140.387663,275.85623 140.376725,274.998298 C140.369764,274.533081 140.087371,274.175609 139.527556,273.924875 C139.236213,273.781886 138.60381,273.605667 137.632337,273.398233 C136.515689,273.155555 135.738112,272.889717 135.299607,272.601725 C134.566776,272.145571 134.195886,271.513198 134.184948,270.703599 C134.175004,269.833583 134.516064,269.15489 135.213099,268.668527 C135.908145,268.169073 136.82493,267.912297 137.962459,267.896186 C140.406555,267.86497 141.749913,268.846759 141.993527,270.840546 Z M146.710892,264.96985 L146.750666,268.039074 L148.891487,268.011886 L148.913363,269.629069 L146.771547,269.656257 L146.841151,275.171395 C146.844134,275.416087 146.900811,275.606403 147.012178,275.738315 C147.134482,275.859151 147.305509,275.918561 147.522276,275.916547 L148.757251,275.899429 L148.777138,277.517619 L147.234911,277.537758 C146.423527,277.547828 145.833881,277.3414 145.465974,276.917469 C145.109999,276.529788 144.92704,275.956826 144.917096,275.196569 L144.847492,269.682438 L143.104408,269.704591 L143.084521,268.087408 L144.825617,268.064248 L144.797775,265.803616 L146.710892,264.96985 Z M152.765251,269.946665 C152.359558,270.391743 152.106995,271.010018 152.007561,271.794443 L157.071752,271.72899 C156.8699,270.076563 156.005816,269.259916 154.481487,269.280055 C153.754622,269.290125 153.183869,269.511657 152.765251,269.946665 Z M157.929871,269.216617 C158.6806,270.175246 159.072371,271.493361 159.106179,273.171968 L151.990657,273.265616 C152.075176,274.208134 152.331717,274.916029 152.762267,275.387288 C153.215688,275.872644 153.81826,276.10928 154.567995,276.099211 C155.233211,276.091155 155.776123,275.925006 156.195736,275.599757 C156.495033,275.364127 156.774443,274.949259 157.032973,274.358171 L158.958022,274.33199 C158.738272,275.243292 158.318659,275.989452 157.697194,276.57349 C156.883821,277.307566 155.852687,277.683164 154.607769,277.698268 C153.214694,277.717401 152.11495,277.29649 151.30456,276.436543 C150.422577,275.529269 149.970151,274.296746 149.950264,272.739981 C149.932366,271.319156 150.329109,270.131946 151.139499,269.176338 C151.926025,268.198577 153.014831,267.70013 154.405917,267.682005 C155.955104,267.660859 157.130418,268.172396 157.929871,269.216617 Z M163.169961,270.159034 C162.77819,270.753142 162.58827,271.53958 162.601197,272.520363 L162.60418,272.685504 C162.616112,273.714621 162.874641,274.533282 163.378774,275.138467 C163.821256,275.709415 164.406925,275.989351 165.132796,275.979281 C166.076427,275.968205 166.767496,275.645976 167.208985,275.01461 C167.611694,274.409426 167.806585,273.591771 167.793659,272.562655 C167.780732,271.545622 167.582858,270.733003 167.200036,270.124797 C166.743632,269.445097 166.043614,269.110785 165.098988,269.123875 C164.251807,269.133945 163.608467,269.479334 163.169961,270.159034 Z M168.637856,268.984915 C169.375659,269.894202 169.75351,271.078391 169.772402,272.536474 C169.789306,273.921048 169.447252,275.085098 168.745245,276.024595 C167.996505,277.026523 166.943495,277.537053 165.588205,277.555179 C164.437749,277.569276 163.476219,277.030551 162.698643,275.937996 L162.763275,280.974826 L160.83922,281 L160.671176,267.857116 L162.468949,267.832949 L162.483864,268.972831 C163.124222,268.033334 164.086746,267.555027 165.370444,267.537908 C166.737666,267.52079 167.826472,268.002118 168.637856,268.984915 Z M153.271172,244.418536 L162.810904,244.418536 C163.452256,244.418536 163.960365,243.88988 163.960365,243.254486 L163.960365,243.239382 C163.960365,242.58989 163.438335,242.075332 162.810904,242.075332 L153.271172,242.075332 C152.628827,242.075332 152.106796,242.603988 152.106796,243.254486 L152.106796,243.269591 C152.121711,243.920089 152.644736,244.43364 153.271172,244.418536 Z M159.899466,250.404932 C160.526897,250.404932 161.048927,249.876277 161.048927,249.225778 C161.048927,248.576287 160.526897,248.047631 159.884551,248.047631 L153.271172,248.047631 C152.628827,248.047631 152.106796,248.576287 152.106796,249.225778 C152.106796,249.876277 152.628827,250.404932 153.271172,250.404932 L159.899466,250.404932 Z M153.271172,235.51396 C152.628827,235.51396 152.106796,236.043622 152.106796,236.693114 C152.106796,237.343612 152.628827,237.872268 153.271172,237.872268 L167.184027,237.872268 C167.826373,237.872268 168.348403,237.343612 168.348403,236.693114 C168.348403,236.043622 167.826373,235.51396 167.184027,235.51396 L153.271172,235.51396 Z M164.602711,253.308007 C164.722032,253.413738 164.841353,253.503358 164.960675,253.579887 C166.55759,254.637199 168.706367,254.184065 169.752416,252.551778 L172.394387,248.394027 C172.424217,248.348713 172.468962,248.334616 172.514702,248.334616 C172.603199,248.334616 172.662859,248.409131 172.662859,248.484653 L172.662859,252.21948 C172.662859,254.819459 170.587665,256.920991 168.02027,256.920991 L152.345439,256.920991 C149.792959,256.90488 147.733674,254.803348 147.717764,252.21948 L147.717764,232.717623 C147.717764,230.117644 149.792959,228.016111 152.345439,228 L168.109761,228 C170.67815,228.016111 172.753345,230.117644 172.737435,232.717623 L172.737435,235.332706 L164.033947,248.484653 C162.988891,250.012217 163.243443,252.082533 164.602711,253.308007 Z M166.734683,250.289232 L166.226573,248.45958 L175.617153,234.324837 C175.900541,233.932121 176.422572,233.825383 176.825281,234.082159 L177.766924,234.732657 L177.780845,234.747761 C178.169633,235.019641 178.259124,235.564409 177.990651,235.958131 L168.585156,250.076763 L166.734683,250.289232 Z" id="形状结合" fill="#1FDB84"></path>
                <path d="M342.18085,63.4016023 C342.18085,62.502562 342.337022,61.6186062 342.654372,60.7477237 C342.96972,59.8768413 343.435234,59.0954606 344.047911,58.4035817 C344.659586,57.7127084 345.402406,57.152568 346.277372,56.7241663 C347.150335,56.2957645 348.143431,56.0815636 349.257661,56.0815636 C350.566106,56.080558 351.708367,56.3742043 352.685445,56.9614968 C353.663525,57.5487894 354.38432,58.3261475 354.852838,59.2935713 L351.779445,61.4918958 C351.654307,61.1328831 351.493129,60.8352142 351.293909,60.6009006 C351.092687,60.3655813 350.876448,60.1785327 350.64219,60.0407603 C350.407931,59.9029879 350.160658,59.8064466 349.900371,59.7501309 C349.638081,59.6948208 349.395814,59.6676686 349.176572,59.6676686 C348.66801,59.6676686 348.231529,59.7823113 347.867126,60.0105911 C347.500722,60.2378653 347.199389,60.5355341 346.957122,60.902592 C346.716857,61.2686442 346.541663,61.682967 346.431542,62.1465661 C346.323422,62.6091596 346.266359,63.0687362 346.266359,63.5252958 C346.267361,64.0371655 346.332432,64.5269112 346.464578,64.9975498 C346.593721,65.4681883 346.787935,65.8825112 347.041215,66.2405183 C347.296497,66.6005367 347.605838,66.8881491 347.97024,67.10235 C348.335644,67.3165509 348.752103,67.4231485 349.22062,67.4231485 C349.454879,67.4221429 349.694143,67.3919737 349.942417,67.3296242 C350.18969,67.2672746 350.427953,67.1626883 350.653202,67.018882 C350.881454,66.8720589 351.08668,66.6870215 351.273887,66.4577361 C351.460092,66.2304619 351.607255,65.9498889 351.717376,65.6180284 L355,67.5870675 C354.794773,68.1270951 354.479425,68.6108069 354.059962,69.0382031 C353.6415,69.4676105 353.163973,69.8276289 352.62638,70.1172526 C352.088786,70.407882 351.519158,70.6291223 350.912488,70.7809736 C350.307821,70.9338306 349.715166,71.0092535 349.13853,71.0092535 C348.121407,71.0102591 347.183372,70.7930413 346.331431,70.3576001 C345.47849,69.9221588 344.74468,69.3449226 344.133005,68.6258915 C343.520328,67.9068604 343.0418,67.0922936 342.69742,66.18018 C342.352039,65.2670607 342.18085,64.3428794 342.18085,63.4016023 Z M311.048885,60.8639755 L309.165806,60.8881108 C309.013638,60.3772467 308.783384,60.0242678 308.477046,59.8331966 C308.144679,59.6169844 307.643125,59.5123981 306.973386,59.5214488 C306.363713,59.5294939 305.927231,59.621007 305.660937,59.795988 C305.321563,59.9830366 305.154378,60.2676322 305.159384,60.6467577 C305.164389,60.9655449 305.423675,61.243101 305.939244,61.4804316 C306.257596,61.6121701 306.893298,61.793185 307.84635,62.0254873 C308.909523,62.2688517 309.711408,62.5584755 310.252005,62.8943585 C311.013846,63.3609745 311.400273,64.0176561 311.410284,64.862392 C311.436312,66.8696454 310.04778,67.8903679 307.245687,67.9265709 C304.662836,67.9607626 303.247273,66.8716567 303,64.6582475 L304.900097,64.6341122 C305.019229,65.2696754 305.249483,65.7191956 305.594864,65.984684 C305.938243,66.2250314 306.463824,66.3396742 307.170604,66.3316291 C308.681271,66.3115163 309.431099,65.8730582 309.420087,65.0162546 C309.41408,64.5516499 309.129766,64.1946484 308.566144,63.9442446 C308.271819,63.801444 307.635116,63.6254573 306.658038,63.4182959 C305.533797,63.1759372 304.750933,62.9094431 304.308444,62.6228363 C303.57063,62.1672823 303.197218,61.534736 303.186206,60.7272087 C303.176194,59.8583375 303.520575,59.1805376 304.221348,58.6948144 C304.921121,58.196018 305.844139,57.9385747 306.989404,57.9234901 C309.45012,57.8923153 310.803614,58.8728123 311.048885,60.8639755 Z M315.798227,55 L315.83727,58.0661901 L317.993651,58.0380323 L318.014674,59.6530868 L315.858294,59.6812447 L315.929372,65.1891238 C315.932375,65.4334938 315.989438,65.6225537 316.100561,65.755298 C316.224698,65.8759745 316.395887,65.9353072 316.614128,65.9322902 L317.8575,65.9162 L317.878524,67.5322602 L316.324809,67.5513673 C315.508908,67.5624294 314.915253,67.3562736 314.543843,66.9329 C314.186448,66.5457294 314.002245,65.9725158 313.992234,65.2142647 L313.921155,59.7063856 L312.167219,59.7295153 L312.146196,58.1144608 L313.900132,58.0913311 L313.8711,55.8326682 L315.798227,55 Z M321.893856,59.970265 C321.484404,60.4157627 321.231124,61.0322187 321.130013,61.8166163 L326.229642,61.7512499 C326.025417,60.0999923 325.156457,59.2854256 323.621763,59.3055384 C322.889955,59.3155947 322.31432,59.5368351 321.893856,59.970265 Z M327.092595,59.2421832 C327.848429,60.1995505 328.243865,61.5159306 328.276902,63.1923291 L321.113995,63.2858534 C321.199089,64.2271305 321.457374,64.934094 321.889851,65.4047326 C322.346355,65.8894501 322.954026,66.125775 323.707858,66.1157186 C324.377598,66.1076735 324.924201,65.9407376 325.346667,65.6169222 C325.648,65.3816029 325.92931,64.9672801 326.190599,64.3769706 L328.127737,64.350824 C327.907494,65.2609263 327.484027,66.0061041 326.858336,66.5893741 C326.039432,67.3224841 325.001286,67.6965815 323.747902,67.7126717 C322.346355,67.7317788 321.238132,67.3114221 320.422231,66.4526073 C319.534251,65.5465275 319.078748,64.3156267 319.059727,62.7609104 C319.040706,61.3419552 319.440147,60.1563081 320.256048,59.2019576 C321.047922,58.2254832 322.145133,57.7276924 323.545679,57.7085853 C325.105401,57.6884725 326.287706,58.1993366 327.092595,59.2421832 Z M332.368318,60.1833597 C331.973883,60.7766861 331.783673,61.5620894 331.796687,62.5415807 L331.798689,62.7065054 C331.810703,63.7342674 332.07099,64.551851 332.57855,65.1562394 C333.025043,65.7264361 333.613693,66.0060035 334.3445,65.9959471 C335.294548,65.9848851 335.991317,65.663081 336.434807,65.032546 C336.841256,64.4281575 337.037472,63.6105739 337.023457,62.5838175 C337.011443,61.5671176 336.811222,60.7555677 336.426798,60.149168 C335.967291,59.4693568 335.262513,59.1364906 334.311463,59.1485583 C333.458522,59.1596203 332.810807,59.5045541 332.368318,60.1833597 Z M337.873395,59.0097802 C338.616215,59.9178713 338.996635,61.1005015 339.016657,62.5576709 C339.033676,63.9404231 338.688294,65.101935 337.981514,66.0412008 C337.227682,67.0418106 336.167512,67.551669 334.804007,67.5697705 C333.645728,67.5838495 332.676658,67.0458331 331.893794,65.954716 L331.959867,70.984917 L330.021728,71.010058 L329.853542,57.8844714 L331.662539,57.860336 L331.677556,58.9987182 C332.323268,58.060458 333.292338,57.58278 334.583764,57.5656841 C335.960283,57.5475826 337.057494,58.0292832 337.873395,59.0097802 Z M335.537817,102.691173 L335.537817,105.753341 C335.537817,107.444824 336.91734,108.814503 338.618217,108.814503 L346.319718,108.814503 L346.319718,114.937832 C346.319718,116.62831 344.940196,118 343.238317,118 L312.435315,118 C310.734438,118 309.354915,116.62831 309.354915,114.937832 L309.354915,88.914939 C309.354915,86.3787201 311.423198,84.3221904 313.976016,84.3221904 L344.778017,84.3221904 C345.628956,84.3221904 346.319718,85.0080355 346.319718,85.853777 C346.319718,86.6985129 345.628956,87.3833524 344.778017,87.3833524 L313.976016,87.3833524 C313.124075,87.3833524 312.435315,88.0691975 312.435315,88.914939 C312.435315,89.7606805 313.124075,90.44552 313.976016,90.44552 L343.238317,90.44552 C344.940196,90.44552 346.319718,91.8162045 346.319718,93.5066819 L346.319718,99.6300114 L338.618217,99.6300114 C336.91734,99.6300114 335.537817,101.000696 335.537817,102.692179 L335.537817,102.691173 Z M340.157917,102.691173 C339.307978,102.691173 338.618217,103.377018 338.618217,104.221754 C338.618217,105.067496 339.307978,105.753341 340.157917,105.753341 C341.008856,105.753341 341.697616,105.067496 341.697616,104.221754 C341.697616,103.377018 341.008856,102.691173 340.157917,102.691173 Z M347.859418,107.283922 L340.157917,107.283922 C338.457039,107.283922 337.077516,105.913237 337.077516,104.221754 C337.077516,102.531277 338.457039,101.161598 340.157917,101.161598 L347.859418,101.161598 C348.709356,101.161598 349.399117,101.846437 349.399117,102.691173 L349.399117,105.753341 C349.399117,106.599082 348.709356,107.283922 347.859418,107.283922 Z" id="形状结合" fill="#1FDB84"></path>
            </g>
        </g>
    </g>
</svg>