<?xml version="1.0" encoding="UTF-8"?>
<svg width="40px" height="40px" viewBox="0 0 40 40" version="1.1" xmlns="http://www.w3.org/2000/svg" xmlns:xlink="http://www.w3.org/1999/xlink">
    <!-- Generator: Sketch 54.1 (76490) - https://sketchapp.com -->
    <title>twitter copy 4复制</title>
    <desc>Created with Sketch.</desc>
    <g id="Page-1" stroke="none" stroke-width="1" fill="none" fill-rule="evenodd">
        <g id="首页" transform="translate(-436.000000, -3337.000000)">
            <g id="底部导航" transform="translate(1.000000, 3206.000000)">
                <g id="twitter-copy-4复制" transform="translate(435.000000, 131.000000)">
                    <circle id="椭圆形" stroke="#929DC5" stroke-width="0.5" cx="20" cy="20" r="19.75"></circle>
                    <path d="M15.1994148,20.0163511 C15.1994148,20.0163511 15.1994148,22.6884682 17.8715318,22.6884682 C20.5436489,22.6884682 22.5845267,22.6884682 22.5845267,22.6884682 L22.5845267,24.7293459 C22.5845267,25.9819008 21.29022,26.0654045 21.29022,26.0654045 L17.2820444,26.0654045 L13.232117,30.07358 L13.232117,26.0654045 L11.8960585,26.0654045 C11.8960585,26.0654045 10.56,26.0236526 10.56,24.7293459 C10.56,23.4350392 10.56,18.0490533 10.56,18.0490533 C10.56,18.0490533 10.56,16.7129948 11.8960585,16.7129948 L15.1994148,16.7129948 L15.1994148,20.0163511 Z M27.2239415,12 C27.2239415,12 28.56,12 28.56,13.3360585 L28.56,20.0163511 C28.56,21.3106578 27.2239415,21.3524096 27.2239415,21.3524096 L25.887883,21.3524096 L25.887883,25.3605852 L21.8379556,21.3524096 L17.82978,21.3524096 C17.82978,21.3524096 16.5354733,21.268906 16.5354733,20.0163511 C16.5354733,18.7631491 16.5354733,13.3360585 16.5354733,13.3360585 C16.5354733,13.3360585 16.5354733,12 17.8715318,12 C19.2075904,12 27.2239415,12 27.2239415,12 Z M19.4132305,14.7099452 C19.1503035,14.7099452 18.9371591,14.9875606 18.9371591,15.3300167 C18.9371591,15.6724727 19.1503035,15.9500882 19.4132305,15.9500882 L25.7852637,15.9500882 C26.0481907,15.9500882 26.2613352,15.6724727 26.2613352,15.3300167 C26.2613352,14.9875606 26.0481907,14.7099452 25.7852637,14.7099452 L19.4132305,14.7099452 Z M19.4132305,17.498099 C19.1503035,17.498099 18.9371591,17.7757145 18.9371591,18.1181705 C18.9371591,18.4606265 19.1503035,18.738242 19.4132305,18.738242 L25.7852637,18.738242 C26.0481907,18.738242 26.2613352,18.4606265 26.2613352,18.1181705 C26.2613352,17.7757145 26.0481907,17.498099 25.7852637,17.498099 L19.4132305,17.498099 Z" id="Combined-Shape" fill="#929DC5"></path>
                </g>
            </g>
        </g>
    </g>
</svg>