<?xml version="1.0" encoding="UTF-8"?>
<svg width="60px" height="60px" viewBox="0 0 60 60" version="1.1" xmlns="http://www.w3.org/2000/svg" xmlns:xlink="http://www.w3.org/1999/xlink">
    <!-- Generator: Sketch 54.1 (76490) - https://sketchapp.com -->
    <title>forum</title>
    <desc>Created with Sketch.</desc>
    <g id="Page-1" stroke="none" stroke-width="1" fill="none" fill-rule="evenodd">
        <g id="首页" transform="translate(-825.000000, -3086.000000)" fill="#1FDB84">
            <g id="分组-3-copy复制" transform="translate(825.000000, 3086.000000)">
                <rect id="矩形复制-3" opacity="0.100000001" x="0" y="0" width="60" height="60" rx="6"></rect>
                <path d="M23.7013769,30.5791738 C23.7013769,30.5791738 23.7013769,34.4388984 27.5611016,34.4388984 C31.4208262,34.4388984 34.3687607,34.4388984 34.3687607,34.4388984 L34.3687607,37.386833 C34.3687607,39.1960789 32.4992066,39.3166953 32.4992066,39.3166953 L26.7096197,39.3166953 L20.8597246,45.1062822 L20.8597246,39.3166953 L18.9298623,39.3166953 C18.9298623,39.3166953 17,39.2563871 17,37.386833 C17,35.5172789 17,27.7375215 17,27.7375215 C17,27.7375215 17,25.8076592 18.9298623,25.8076592 L23.7013769,25.8076592 L23.7013769,30.5791738 Z M41.0701377,19 C41.0701377,19 43,19 43,20.9298623 L43,30.5791738 C43,32.4487279 41.0701377,32.5090361 41.0701377,32.5090361 L39.1402754,32.5090361 L39.1402754,38.2986231 L33.2903803,32.5090361 L27.5007934,32.5090361 C27.5007934,32.5090361 25.6312393,32.3884197 25.6312393,30.5791738 C25.6312393,28.7689931 25.6312393,20.9298623 25.6312393,20.9298623 C25.6312393,20.9298623 25.6312393,19 27.5611016,19 C29.4909639,19 41.0701377,19 41.0701377,19 Z M29.7879997,22.9143652 C29.4082162,22.9143652 29.1003409,23.3153653 29.1003409,23.8100241 C29.1003409,24.3046828 29.4082162,24.7056829 29.7879997,24.7056829 L38.9920476,24.7056829 C39.371831,24.7056829 39.6797064,24.3046828 39.6797064,23.8100241 C39.6797064,23.3153653 39.371831,22.9143652 38.9920476,22.9143652 L29.7879997,22.9143652 Z M29.7879997,26.9416985 C29.4082162,26.9416985 29.1003409,27.3426987 29.1003409,27.8373574 C29.1003409,28.3320161 29.4082162,28.7330162 29.7879997,28.7330162 L38.9920476,28.7330162 C39.371831,28.7330162 39.6797064,28.3320161 39.6797064,27.8373574 C39.6797064,27.3426987 39.371831,26.9416985 38.9920476,26.9416985 L29.7879997,26.9416985 Z" id="Combined-Shape"></path>
            </g>
        </g>
    </g>
</svg>