<?xml version="1.0" encoding="UTF-8"?>
<svg width="60px" height="60px" viewBox="0 0 60 60" version="1.1" xmlns="http://www.w3.org/2000/svg" xmlns:xlink="http://www.w3.org/1999/xlink">
    <!-- Generator: Sketch 54.1 (76490) - https://sketchapp.com -->
    <title>矩形</title>
    <desc>Created with Sketch.</desc>
    <g id="Page-1" stroke="none" stroke-width="1" fill="none" fill-rule="evenodd">
        <g id="首页" transform="translate(-415.000000, -814.000000)" fill="#1FDB84">
            <g id="编组-9" transform="translate(415.000000, 814.000000)">
                <rect id="矩形" opacity="0.100000001" x="0" y="0" width="60" height="60" rx="6"></rect>
                <path d="M23.2142496,37.600123 C23.2142496,37.3448313 23.2407223,37.0885953 23.2929932,36.8349345 L33.2799485,38.6506477 C32.726045,40.5855944 30.6707007,42 28.3213744,42 C25.5053191,42 23.2142496,40.0261673 23.2142496,37.600123 Z M14.5714165,22.7999828 C15.437934,22.7999828 16.1428331,23.517787 16.1428331,24.3999771 L16.1428331,34.8000687 C16.1428331,35.6823446 15.437934,36.400063 14.5714165,36.400063 C13.7049834,36.400063 13,35.6822588 13,34.8000687 L13,24.3999771 C13,23.517787 13.7049834,22.7999828 14.5714165,22.7999828 Z M16.9285835,24.3999771 L16.9284992,24.3999771 L16.9284992,24.3349095 L38.1429174,20.4778065 L38.1428331,24.4531128 L21.9801493,26.804046 C21.7653326,26.8352922 21.6161074,27.0379633 21.6467955,27.2566008 C21.6747858,27.4560958 21.8428116,27.6000515 22.0352024,27.6000515 C22.0536659,27.6000515 22.0723822,27.5987639 22.0912672,27.596017 L38.1429174,25.2612219 L38.1429174,38.7223252 L16.9285835,34.8651363 L16.9285835,34.8000687 L16.9285835,24.3999771 Z M40.5000843,18 C41.3665175,18 42.0714165,18.7177183 42.0715008,19.5999943 L42.0715008,25.6000372 L42.0715008,33.6000086 L42.0715008,39.6001373 C42.0715008,40.4824133 41.3665175,41.2001316 40.5000843,41.2001316 C39.6333982,41.2001316 38.9284992,40.4823274 38.9284992,39.6001373 L38.9284992,39.2001173 L38.9284992,20.0000143 L38.9284992,19.5999943 C38.9284992,18.7178042 39.6334825,18 40.5000843,18 Z M42.8572513,26.0221184 C44.6225761,26.2216992 46,27.7501878 46,29.6000658 C46,31.4499438 44.6225761,32.9783466 42.8572513,33.1780132 L42.8572513,26.0221184 Z" id="形状结合" fill-rule="nonzero"></path>
            </g>
        </g>
    </g>
</svg>