<?xml version="1.0" encoding="UTF-8"?>
<svg width="60px" height="60px" viewBox="0 0 60 60" version="1.1" xmlns="http://www.w3.org/2000/svg" xmlns:xlink="http://www.w3.org/1999/xlink">
    <!-- Generator: Sketch 54.1 (76490) - https://sketchapp.com -->
    <title>首页 copy 21</title>
    <desc>Created with Sketch.</desc>
    <g id="Page-1" stroke="none" stroke-width="1" fill="none" fill-rule="evenodd">
        <g id="首页" transform="translate(-577.000000, -3086.000000)" fill="#1FDB84">
            <g id="编组-4" transform="translate(577.000000, 3086.000000)">
                <g id="编组-5">
                    <g id="分组-3">
                        <rect id="矩形" opacity="0.100000001" x="0" y="0" width="60" height="60" rx="6"></rect>
                        <path d="M43.3654134,21.5511031 C42.9255438,21.7392285 42.4733002,21.8980029 42.0112113,22.0269037 C42.5582934,21.4303021 42.9754017,20.7283155 43.2300203,19.9601366 C43.2871039,19.7879495 43.2279428,19.5994757 43.0811691,19.4868617 C42.9345761,19.3741606 42.7308993,19.3606609 42.5694934,19.4528946 C41.5881418,20.0141355 40.5293839,20.417473 39.4192327,20.6533266 C38.3009525,19.5996499 36.782093,19 35.2119304,19 C31.8975542,19 29.2010727,21.6000505 29.2010727,24.7959187 C29.2010727,25.0476236 29.2176017,25.297935 29.2502983,25.5447625 C25.1374731,25.1965563 21.3138598,23.2472805 18.688191,20.1415557 C18.5946171,20.0308578 18.4504627,19.9711976 18.3028761,19.9826071 C18.1551992,19.9937553 18.0225158,20.074057 17.9479095,20.1974708 C17.4153694,21.0786121 17.1338348,22.0863896 17.1338348,23.1117605 C17.1338348,24.5083306 17.6509299,25.8333958 18.5643591,26.8687825 C18.2866181,26.7760262 18.0170964,26.6601026 17.7598586,26.5224052 C17.6217558,26.4482873 17.4532144,26.4494195 17.3160148,26.5252794 C17.178725,26.6011392 17.0926478,26.7406656 17.0890349,26.8931691 C17.0884027,26.9188622 17.0884027,26.9445552 17.0884027,26.9705967 C17.0884027,29.0552183 18.2519344,30.932031 20.0308318,31.9549631 C19.8780064,31.940244 19.7252715,31.9189057 19.57353,31.8909482 C19.4170918,31.8621197 19.2562278,31.9149865 19.1507314,32.0300391 C19.0450543,32.1450047 19.0100996,32.3052597 19.0587833,32.4515795 C19.7172328,34.4338643 21.4124917,35.8919237 23.4619044,36.3364571 C21.7621293,37.3630473 19.8183034,37.9007725 17.7777424,37.9007725 C17.3519631,37.9007725 16.9237452,37.8766472 16.5046498,37.828832 C16.2964569,37.8049679 16.0973866,37.9235044 16.0264836,38.1144169 C15.9555806,38.3054164 16.0307287,38.518364 16.2078507,38.6278426 C18.8292744,40.2485956 21.8604,41.1052632 24.9733575,41.1052632 C31.0930536,41.1052632 34.9213636,38.3225742 37.0552276,35.9881638 C39.7161221,33.0773579 41.2422074,29.2245312 41.2422074,25.4176908 C41.2422074,25.2586551 41.2396784,25.0980517 41.2346203,24.9379709 C42.2844363,24.1752789 43.1882914,23.2522449 43.9237857,22.1913393 C44.0355144,22.0302133 44.0234112,21.8172657 43.8939794,21.6689428 C43.7647282,21.5205327 43.5493095,21.4725433 43.3654134,21.5511031 Z" id="XMLID_827_" fill-rule="nonzero"></path>
                    </g>
                </g>
            </g>
        </g>
    </g>
</svg>