<?xml version="1.0" encoding="UTF-8"?>
<svg width="40px" height="40px" viewBox="0 0 40 40" version="1.1" xmlns="http://www.w3.org/2000/svg" xmlns:xlink="http://www.w3.org/1999/xlink">
    <!-- Generator: Sketch 54.1 (76490) - https://sketchapp.com -->
    <title>twitter copy</title>
    <desc>Created with Sketch.</desc>
    <g id="Page-1" stroke="none" stroke-width="1" fill="none" fill-rule="evenodd">
        <g id="首页" transform="translate(-436.000000, -3337.000000)">
            <g id="底部导航" transform="translate(1.000000, 3206.000000)">
                <g id="twitter-copy" transform="translate(435.000000, 131.000000)">
                    <circle id="椭圆形" stroke="#929DC5" stroke-width="0.5" cx="20" cy="20" r="19.75"></circle>
                    <path d="M29.0163503,14.1883731 C28.7196129,14.3169753 28.4145279,14.4255131 28.1028013,14.5136294 C28.4718646,14.1057938 28.7532472,13.6259173 28.9250137,13.1007918 C28.9635225,12.9830851 28.9236122,12.8542448 28.8245982,12.7772621 C28.7257061,12.7002199 28.5883051,12.6909915 28.4794201,12.7540422 C27.8173972,13.1377054 27.1031558,13.413426 26.3542443,13.574655 C25.5998489,12.8543638 24.5752215,12.4444444 23.5159848,12.4444444 C21.2800961,12.4444444 19.4610411,14.2218335 19.4610411,16.4065222 C19.4610411,16.5785871 19.4721916,16.7496995 19.4942489,16.9184303 C16.7197239,16.6803972 14.1403023,15.3478764 12.3690177,13.2248095 C12.3058925,13.1491367 12.2086455,13.1083531 12.1090831,13.1161526 C12.0094598,13.1237735 11.9199511,13.1786675 11.8696215,13.2630329 C11.5103682,13.8653792 11.3204441,14.5542939 11.3204441,15.2552352 C11.3204441,16.2099276 11.6692781,17.1157393 12.2854804,17.8235275 C12.0981154,17.7601195 11.9162952,17.6808744 11.7427617,17.5867447 C11.6495972,17.5360779 11.5358986,17.5368519 11.4433433,17.5887095 C11.3507272,17.6405671 11.2926593,17.7359471 11.290222,17.8401982 C11.2897955,17.8577619 11.2897955,17.8753256 11.2897955,17.8931275 C11.2897955,19.3181704 12.0747176,20.6011556 13.2747675,21.3004298 C13.171671,21.2903679 13.0686355,21.2757811 12.9662703,21.2566694 C12.8607366,21.2369623 12.7522172,21.2731019 12.681049,21.3517516 C12.6097589,21.4303418 12.5861783,21.5398918 12.6190205,21.6399157 C13.0632126,22.9950014 14.2068397,23.9917277 15.5893799,24.2956099 C14.4427063,24.9973847 13.1313952,25.3649725 11.7548262,25.3649725 C11.4675942,25.3649725 11.178717,25.3484805 10.8959939,25.3157941 C10.7555463,25.2994807 10.6212529,25.380512 10.5734215,25.5110194 C10.5255901,25.6415863 10.5762853,25.7871568 10.6957723,25.8619961 C12.464193,26.9699394 14.509,27.5555556 16.609011,27.5555556 C20.7373774,27.5555556 23.3199675,25.6533153 24.7594789,24.0575172 C26.5545268,22.0676965 27.5840288,19.4339123 27.5840288,16.8315643 C27.5840288,16.7228478 27.5823227,16.6130597 27.5789105,16.5036288 C28.2871197,15.9822542 28.8968632,15.35127 29.3930301,14.6260372 C29.4684026,14.5158918 29.4602377,14.3703213 29.3729226,14.2689281 C29.2857293,14.1674752 29.1404072,14.1346698 29.0163503,14.1883731 Z" id="XMLID_827_" fill="#929DC5" fill-rule="nonzero"></path>
                </g>
            </g>
        </g>
    </g>
</svg>