<?xml version="1.0" encoding="UTF-8"?>
<svg width="102px" height="119px" viewBox="0 0 102 119" version="1.1" xmlns="http://www.w3.org/2000/svg" xmlns:xlink="http://www.w3.org/1999/xlink">
    <!-- Generator: Sketch 54.1 (76490) - https://sketchapp.com -->
    <title>编组 2</title>
    <desc>Created with Sketch.</desc>
    <g id="Page-1" stroke="none" stroke-width="1" fill="none" fill-rule="evenodd">
        <g id="投票上币" transform="translate(-375.000000, -384.000000)">
            <g id="编组-4" transform="translate(375.000000, 384.000000)">
                <g id="编组-2" transform="translate(1.000000, 2.000000)">
                    <path d="M100.5,28.4638695 L100.5,86.535295 L50,115.576783 L-0.5,86.535295 L-0.5,28.4638695 L50,-0.57677914 L100.5,28.4638695 Z" id="路径" stroke="#6FDEAA"></path>
                    <polygon id="路径" fill="#1FDB84" opacity="0.100000001" points="94.1666667 32.0793661 50.4158365 6.66666667 6.66666667 32.0793661 6.66666667 82.9197987 50.4158365 108.333333 94.1666667 82.9197987"></polygon>
                </g>
                <path d="M41.4469013,61.8952097 L50.804579,61.8952097 C51.4337257,61.8952097 51.93201,61.3830452 51.93201,60.7682467 L51.93201,60.7531534 C51.93201,60.1242678 51.4186262,59.6261904 50.804579,59.6261904 L41.4469013,59.6261904 C40.8177545,59.6261904 40.3053773,60.1393611 40.3053773,60.7682467 L40.3053773,60.7833399 C40.3194702,61.4132318 40.832854,61.9103029 41.4469013,61.8952097 Z M47.9487558,67.6920257 C48.5638097,67.6920257 49.0761869,67.1798613 49.0761869,66.5499695 C49.0761869,65.9210838 48.5638097,65.4079132 47.9336563,65.4079132 L41.4469013,65.4079132 C40.8177545,65.4079132 40.3053773,65.9210838 40.3053773,66.5499695 C40.3053773,67.1798613 40.8177545,67.6920257 41.4469013,67.6920257 L47.9487558,67.6920257 Z M41.4469013,53.2749488 C40.8177545,53.2749488 40.3053773,53.786107 40.3053773,54.4159989 C40.3053773,55.0448845 40.8177545,55.5570489 41.4469013,55.5570489 L55.0948567,55.5570489 C55.7250102,55.5570489 56.2363807,55.0448845 56.2363807,54.4159989 C56.2363807,53.786107 55.7250102,53.2749488 55.0948567,53.2749488 L41.4469013,53.2749488 Z M52.5611568,70.5023898 C52.6779264,70.6040177 52.7957027,70.6925648 52.913479,70.7650124 C54.4798028,71.7903475 56.5887029,71.3506307 57.6134572,69.7698638 L60.205542,65.7449959 C60.2347344,65.7007223 60.2780197,65.6866353 60.3223116,65.6866353 C60.4098888,65.6866353 60.4682737,65.7600891 60.4682737,65.8325367 L60.4682737,69.4478744 C60.4682737,71.9664355 58.432858,74 55.9142575,74 L40.5399232,74 C38.0354157,73.985913 36.0150995,71.9513422 36,69.4478744 L36,50.5662127 C36,48.0486578 38.0354157,46.014087 40.5399232,46 L56.0028414,46 C58.5214418,46.014087 60.5558509,48.0486578 60.541758,50.5662127 L60.541758,53.0988608 L52.0044877,65.8325367 C50.9807401,67.3116757 51.2293789,69.3160599 52.5611568,70.5023898 Z M54.8072612,67.9177074 L54.3099835,66.1457593 L63.5196859,52.4612083 C63.7985238,52.0798521 64.3109009,51.977218 64.7065084,52.2257536 L65.628586,52.8556454 L65.6436855,52.8707386 C66.0241935,53.1343675 66.1117707,53.660619 65.849039,54.040969 L56.6232305,67.7124392 L54.8072612,67.9177074 Z" id="形状结合" fill="#1FDB84"></path>
            </g>
        </g>
    </g>
</svg>