<?xml version="1.0" encoding="UTF-8"?>
<svg width="102px" height="119px" viewBox="0 0 102 119" version="1.1" xmlns="http://www.w3.org/2000/svg" xmlns:xlink="http://www.w3.org/1999/xlink">
    <!-- Generator: Sketch 54.1 (76490) - https://sketchapp.com -->
    <title>编组 2复制 6</title>
    <desc>Created with Sketch.</desc>
    <g id="Page-1" stroke="none" stroke-width="1" fill="none" fill-rule="evenodd">
        <g id="投票上币" transform="translate(-589.000000, -384.000000)">
            <g id="编组-5" transform="translate(589.000000, 384.000000)">
                <g id="编组-2复制" transform="translate(1.000000, 2.000000)">
                    <path d="M100.5,28.4638695 L100.5,86.535295 L50,115.576783 L-0.5,86.535295 L-0.5,28.4638695 L50,-0.57677914 L100.5,28.4638695 Z" id="路径" stroke="#6FDEAA"></path>
                    <polygon id="路径" fill="#1FDB84" opacity="0.100000001" points="94.1666667 32.0793661 50.4158365 6.66666667 6.66666667 32.0793661 6.66666667 82.9197987 50.4158365 108.333333 94.1666667 82.9197987"></polygon>
                </g>
                <path d="M49.2207604,43 C54.2819841,43 58.3838908,47.1408202 58.3838908,52.2477981 C58.3838908,53.334346 58.1783945,54.3632281 57.8345641,55.3303974 L56.3088793,55.3303974 C56.2838188,55.3870517 56.255751,55.4416826 56.2286856,55.4983369 L56.2286856,55.3303974 L48.2534242,55.3303974 L48.2534242,73.8249818 L36.0369195,73.8249818 L36.0369195,73.8290286 L35.0615638,73.8270052 L34,73.8249818 C34.4440725,67.3481846 38.7895675,62.0054846 44.6627522,60.1460104 C41.8850436,58.5667726 40.0576301,55.6359258 40.0576301,52.2477981 C40.0576301,47.1408202 44.1605392,43 49.2207604,43 Z M54.7834953,68.4750988 L54.7834953,66.4203698 L58.8553294,66.4203698 L58.8553294,68.4750988 L54.7834953,68.4750988 Z M54.7834953,64.3656408 L54.7834953,62.3109118 L62.9281659,62.3109118 L62.9281659,64.3656408 L54.7834953,64.3656408 Z M52.7465758,73.945271 L64.964083,73.945271 L64.964083,59.5601446 L52.7465758,59.5601446 L52.7465758,73.945271 Z M50.7106588,76 L50.7106588,57.5054156 L67,57.5054156 L67,76 L50.7106588,76 Z" id="形状结合" fill="#1FDB84"></path>
            </g>
        </g>
    </g>
</svg>