<?xml version="1.0" encoding="UTF-8"?>
<svg width="102px" height="119px" viewBox="0 0 102 119" version="1.1" xmlns="http://www.w3.org/2000/svg" xmlns:xlink="http://www.w3.org/1999/xlink">
    <!-- Generator: Sketch 54.1 (76490) - https://sketchapp.com -->
    <title>编组 2复制 7</title>
    <desc>Created with Sketch.</desc>
    <g id="Page-1" stroke="none" stroke-width="1" fill="none" fill-rule="evenodd">
        <g id="投票上币" transform="translate(-803.000000, -384.000000)">
            <g id="编组-6" transform="translate(803.000000, 384.000000)">
                <g id="编组-2复制-2" transform="translate(1.000000, 2.000000)">
                    <path d="M100.5,28.4638695 L100.5,86.535295 L50,115.576783 L-0.5,86.535295 L-0.5,28.4638695 L50,-0.57677914 L100.5,28.4638695 Z" id="路径" stroke="#6FDEAA"></path>
                    <polygon id="路径" fill="#1FDB84" opacity="0.100000001" points="94.1666667 32.0793661 50.4158365 6.66666667 6.66666667 32.0793661 6.66666667 82.9197987 50.4158365 108.333333 94.1666667 82.9197987"></polygon>
                </g>
                <path d="M66.0286458,66.1327906 L62.5422817,69.6013645 L61.734296,70.4052273 C61.5891965,70.5485976 61.3377569,70.5485976 61.194645,70.4052273 L60.3856654,69.6013645 L59.0380287,68.2596157 C58.893923,68.1172341 58.893923,67.8670776 59.0380287,67.7237072 L59.8460144,66.9188557 C59.991114,66.7754853 60.2425536,66.7754853 60.3856654,66.9188557 L61.4639736,67.9916614 L64.681009,64.7920306 C64.8241209,64.6486602 65.0755605,64.6486602 65.22066,64.7920306 L66.0286458,65.5958933 C66.1727515,65.7392637 66.1727515,65.9894203 66.0286458,66.1327906 L66.0286458,66.1327906 Z M62.5422817,60.1606737 C58.4089328,60.1606737 55.0845634,63.4858772 55.0845634,67.5803368 C55.0845634,71.6747965 58.4278156,75 62.5422817,75 C66.6577417,75 70,71.6747965 70,67.5803368 C70,63.4858772 66.6577417,60.1606737 62.5422817,60.1606737 L62.5422817,60.1606737 Z M36,69.6547576 L53.5381602,69.6547576 L53.5381602,65.8648364 L36,65.8648364 L36,69.6547576 Z M38.8572681,63.9693814 L42.6666277,63.9693814 C43.1883897,63.9693814 43.619713,63.5402591 43.619713,63.0221482 L43.619713,57.3179856 C43.619713,56.8008635 43.1883897,56.3707524 42.6666277,56.3707524 L38.8572681,56.3707524 C38.3365,56.3707524 37.9051767,56.8008635 37.9051767,57.3179856 L37.9051767,63.0033618 C37.9051767,63.5402591 38.3365,63.9693814 38.8572681,63.9693814 L38.8572681,63.9693814 Z M62.7032826,59.2678224 L62.7032826,45.9482219 C62.7032826,45.4301111 62.2729531,45 61.7511911,45 L57.9418316,45 C57.4210634,45 56.9887463,45.4301111 56.9887463,45.9482219 L56.9887463,60.3406282 C58.2290491,59.5703833 59.6850136,59.1066544 61.2483119,59.1066544 C61.734296,59.1066544 62.2182924,59.1778452 62.7032826,59.2678224 L62.7032826,59.2678224 Z M48.4000468,63.9693814 L52.2094063,63.9693814 C52.7301745,63.9693814 53.1624916,63.5402591 53.1624916,63.0221482 L53.1624916,51.6335981 C53.1624916,51.1154873 52.7301745,50.6853762 52.2094063,50.6853762 L48.4000468,50.6853762 C47.8782848,50.6853762 47.4479553,51.1154873 47.4479553,51.6335981 L47.4479553,63.0221482 C47.4479553,63.5402591 47.8782848,63.9693814 48.4000468,63.9693814 L48.4000468,63.9693814 Z" id="Fill-45" fill="#1FDB84"></path>
            </g>
        </g>
    </g>
</svg>