<?xml version="1.0" encoding="UTF-8"?>
<svg width="102px" height="119px" viewBox="0 0 102 119" version="1.1" xmlns="http://www.w3.org/2000/svg" xmlns:xlink="http://www.w3.org/1999/xlink">
    <!-- Generator: Sketch 54.1 (76490) - https://sketchapp.com -->
    <title>编组 2复制 8</title>
    <desc>Created with Sketch.</desc>
    <g id="Page-1" stroke="none" stroke-width="1" fill="none" fill-rule="evenodd">
        <g id="投票上币" transform="translate(-1017.000000, -384.000000)">
            <g id="编组-7" transform="translate(1017.000000, 384.000000)">
                <g id="编组-2复制-3" transform="translate(1.000000, 2.000000)">
                    <path d="M100.5,28.4638695 L100.5,86.535295 L50,115.576783 L-0.5,86.535295 L-0.5,28.4638695 L50,-0.57677914 L100.5,28.4638695 Z" id="路径" stroke="#6FDEAA"></path>
                    <polygon id="路径" fill="#1FDB84" opacity="0.100000001" points="94.1666667 32.0793661 50.4158365 6.66666667 6.66666667 32.0793661 6.66666667 82.9197987 50.4158365 108.333333 94.1666667 82.9197987"></polygon>
                </g>
                <path d="M62.5399597,48.7418795 C63.1249534,47.781751 63.1539531,46.5845783 62.6159589,45.5975582 C62.1119643,44.6165141 61.0999753,44 59.9929872,44 L41.007192,44 C39.900204,44 38.9192146,44.5985863 38.3822204,45.5975582 C37.8462261,46.5855743 37.8752258,47.781751 38.4612195,48.7418795 C38.4842193,48.7817189 38.510219,48.8185703 38.5392187,48.8534297 L44.7751514,56.4816707 C45.1661472,56.957751 45.3821448,57.5643052 45.3821448,58.1887871 L45.3821448,68.5609639 C45.3821448,68.9075663 45.5601429,69.2113414 45.8231401,69.3776707 C45.8231401,69.3776707 51.9250742,73.7719518 54.1220505,74.7938313 C54.2780489,74.9223133 54.4780467,75 54.6920444,75 C55.2140388,74.9900402 55.6290343,74.5617671 55.6190344,74.0418635 L55.6190344,58.1907791 C55.6190344,57.5662972 55.8330321,56.959743 56.2250279,56.4836627 L62.4619606,48.8554217 C62.4899603,48.8205622 62.51696,48.7827149 62.5399597,48.7438715 L62.5399597,48.7418795 Z" id="Fill-53" fill="#1FDB84"></path>
            </g>
        </g>
    </g>
</svg>