<?xml version="1.0" encoding="UTF-8"?>
<svg width="102px" height="119px" viewBox="0 0 102 119" version="1.1" xmlns="http://www.w3.org/2000/svg" xmlns:xlink="http://www.w3.org/1999/xlink">
    <!-- Generator: Sketch 54.1 (76490) - https://sketchapp.com -->
    <title>编组 2复制 4</title>
    <desc>Created with Sketch.</desc>
    <g id="Page-1" stroke="none" stroke-width="1" fill="none" fill-rule="evenodd">
        <g id="投票上币" transform="translate(-1231.000000, -384.000000)">
            <g id="编组-8" transform="translate(1231.000000, 384.000000)">
                <g id="编组-2复制-4" transform="translate(1.000000, 2.000000)">
                    <path d="M100.5,28.4638695 L100.5,86.535295 L50,115.576783 L-0.5,86.535295 L-0.5,28.4638695 L50,-0.57677914 L100.5,28.4638695 Z" id="路径" stroke="#6FDEAA"></path>
                    <polygon id="路径" fill="#1FDB84" opacity="0.100000001" points="94.1666667 32.0793661 50.4158365 6.66666667 6.66666667 32.0793661 6.66666667 82.9197987 50.4158365 108.333333 94.1666667 82.9197987"></polygon>
                </g>
                <path d="M60.5248173,56.7659749 L47.1166326,68.5462146 C46.618708,68.9835136 45.8762935,68.9954399 45.3664426,68.5690734 L37.502017,62.044373 C36.9315405,61.5683134 36.8510377,60.7195557 37.322128,60.1480854 L37.6461269,59.7574978 C38.1221865,59.1860275 38.9709442,59.1055247 39.5414206,59.5776089 L45.3087986,64.361064 C45.8146741,64.7824613 46.5570886,64.7715288 47.0589886,64.3382052 L58.4128617,54.3578486 C58.9724057,53.866881 59.8251388,53.9205495 60.312131,54.4790997 L60.6500438,54.8597486 C61.1410114,55.4192926 61.0833674,56.2750073 60.5248173,56.7659749 M49,43 C39.6129787,43 32,50.6099971 32,60 C32,69.3909968 39.6129787,77 49,77 C58.3939784,77 66,69.3909968 66,60 C66,50.6099971 58.3830459,43 49,43" id="Fill-52" fill="#1FDB84"></path>
            </g>
        </g>
    </g>
</svg>