<?xml version="1.0" encoding="UTF-8"?>
<svg width="102px" height="119px" viewBox="0 0 102 119" version="1.1" xmlns="http://www.w3.org/2000/svg" xmlns:xlink="http://www.w3.org/1999/xlink">
    <!-- Generator: Sketch 54.1 (76490) - https://sketchapp.com -->
    <title>编组 2复制 5</title>
    <desc>Created with Sketch.</desc>
    <g id="Page-1" stroke="none" stroke-width="1" fill="none" fill-rule="evenodd">
        <g id="投票上币" transform="translate(-1445.000000, -384.000000)">
            <g id="编组-9" transform="translate(1445.000000, 384.000000)">
                <g id="编组-2复制-5" transform="translate(1.000000, 2.000000)">
                    <path d="M100.5,28.4638695 L100.5,86.535295 L50,115.576783 L-0.5,86.535295 L-0.5,28.4638695 L50,-0.57677914 L100.5,28.4638695 Z" id="路径" stroke="#6FDEAA"></path>
                    <polygon id="路径" fill="#1FDB84" opacity="0.100000001" points="94.1666667 32.0793661 50.4158365 6.66666667 6.66666667 32.0793661 6.66666667 82.9197987 50.4158365 108.333333 94.1666667 82.9197987"></polygon>
                </g>
                <path d="M51,43 C41.6119848,43 34,50.6117623 34,59.9995031 C34,69.3882377 41.6119848,77 51,77 C60.3880152,77 68,69.3882377 68,59.9995031 C68,50.6117623 60.3880152,43 51,43 M43.0242619,55.5769489 L46.9023093,51.259741 C47.3266881,50.7886645 48.052207,50.7508988 48.5232973,51.1762591 C48.5292605,51.1802344 48.5342298,51.1852036 48.5391991,51.1901728 C49.0182403,51.6354097 49.0550132,52.3956914 48.6206957,52.8866446 L46.5534639,55.1903481 L58.0246127,55.1903481 C58.6716165,55.191342 59.1933937,55.7280115 59.1933937,56.3918915 C59.1933937,57.0557715 58.6696288,57.592441 58.022625,57.592441 L43.8839521,57.592441 C42.8632564,57.592441 42.3325343,56.3451814 43.0242619,55.5769489 M58.983689,64.4270264 L55.1056416,68.7432405 L55.0897398,68.7601356 C54.665361,69.2302184 53.9378544,69.2669901 53.467758,68.8406361 C53.4578194,68.8316916 53.4478807,68.8217532 53.4369483,68.8128087 C52.9668518,68.3526643 52.943993,67.6023209 53.3862613,67.115343 L55.4534931,64.8126334 L43.9823443,64.8126334 C43.3373283,64.8126334 42.8145571,64.2759639 42.8145571,63.6120838 C42.8145571,62.9491976 43.3373283,62.4115343 43.9833382,62.4115343 L58.1239988,62.4115343 C59.1437007,62.4115343 59.6754165,63.6578001 58.983689,64.4280202" id="Fill-55" fill="#1FDB84"></path>
            </g>
        </g>
    </g>
</svg>