<?xml version="1.0" encoding="UTF-8"?>
<svg width="68px" height="14px" viewBox="0 0 68 14" version="1.1" xmlns="http://www.w3.org/2000/svg" xmlns:xlink="http://www.w3.org/1999/xlink">
    <!-- Generator: Sketch 54.1 (76490) - https://sketchapp.com -->
    <title>形状结合</title>
    <desc>Created with Sketch.</desc>
    <g id="Page-1" stroke="none" stroke-width="1" fill="none" fill-rule="evenodd">
        <g id="投票上币" transform="translate(-499.000000, -437.000000)" fill="#6FDEAA">
            <g id="编组-3" transform="translate(499.000000, 437.000000)">
                <path d="M59,0 L67,7.00043807 L59,14 L59,0 Z M52.2270373,8.74999908 L52.1078465,8.74999908 C51.1294889,8.74999908 50.335877,7.96622687 50.335877,6.99999954 C50.335877,6.03181033 51.1294889,5.25 52.1078465,5.25 L52.2270373,5.25 C53.2053949,5.25 54,6.03181033 54,6.99999954 C54,7.96622687 53.2053949,8.75098002 52.2270373,8.74999908 Z M43.8330272,8.74999908 L43.7168162,8.74999908 C42.7374653,8.74999908 41.9428602,7.96622687 41.9428602,6.99999954 C41.9428602,6.03181033 42.7374653,5.25 43.7158229,5.25 C44.6941805,5.25 45.5473878,6.03181033 45.5473878,6.99999954 C45.5473878,7.96622687 44.812378,8.75098002 43.8330272,8.74999908 Z M35.4410036,8.74999908 L35.3218128,8.74999908 C34.3434552,8.74999908 33.5488501,7.96622687 33.5488501,6.99999954 C33.5488501,6.03181033 34.3434552,5.25 35.3218128,5.25 C36.3001704,5.25 37.1523844,6.03181033 37.1523844,6.99999954 C37.1523844,7.96622687 36.4183679,8.75098002 35.4410036,8.74999908 Z M27.0469935,8.74999908 L26.9287959,8.74999908 C25.9504384,8.74999908 25.1568265,7.96622687 25.1568265,6.99999954 C25.1568265,6.03181033 25.9504384,5.25 26.9287959,5.25 L27.0469935,5.25 C28.0273376,5.25 28.8199562,6.03181033 28.8199562,6.99999954 C28.8199562,7.96622687 28.0273376,8.75098002 27.0469935,8.74999908 Z M18.6539766,8.74999908 L18.5347858,8.74999908 C17.5574215,8.74999908 16.7618231,7.96622687 16.7618231,6.99999954 C16.7618231,6.03181033 17.5564282,5.25 18.5347858,5.25 L18.6539766,5.25 C19.6333274,5.25 20.4259461,6.03181033 20.4259461,6.99999954 C20.4259461,7.96622687 19.6323342,8.75098002 18.6539766,8.74999908 Z M10.2599665,8.74999908 L10.1427622,8.74999908 C9.16440465,8.74999908 8.37079276,7.96622687 8.37079276,6.99999954 C8.37079276,6.03181033 9.16440465,5.25 10.1427622,5.25 C11.1211198,5.25 11.9733338,6.03181033 11.9733338,6.99999954 C11.9733338,7.96622687 11.2383241,8.75098002 10.2599665,8.74999908 Z M1.86694964,8.74999908 L1.74875213,8.74999908 C-0.582420721,8.74999908 -0.583413977,5.25 1.74875213,5.25 C2.72611646,5.25 3.57932373,6.03181033 3.57932373,6.99999954 C3.57932373,7.96622687 2.84431397,8.75098002 1.86694964,8.74999908 Z" id="形状结合"></path>
            </g>
        </g>
    </g>
</svg>