<?xml version="1.0" encoding="UTF-8"?>
<svg width="102px" height="103px" viewBox="0 0 102 103" version="1.1" xmlns="http://www.w3.org/2000/svg" xmlns:xlink="http://www.w3.org/1999/xlink">
    <!-- Generator: Sketch 54.1 (76490) - https://sketchapp.com -->
    <title>编组 4</title>
    <desc>Created with Sketch.</desc>
    <g id="Page-1" stroke="none" stroke-width="1" fill="none" fill-rule="evenodd">
        <g id="付费上币" transform="translate(-589.000000, -674.000000)">
            <g id="编组-4" transform="translate(589.000000, 675.000000)">
                <rect id="矩形" stroke="#6FDEAA" x="0.5" y="0.5" width="101" height="101" rx="28"></rect>
                <path d="M67.313587,10 C80.6176169,10 91.5028902,20.8846942 91.5028902,34.1893032 L91.5028902,67.3130079 C91.5028902,80.6170378 80.6176169,91.5028902 67.313587,91.5028902 L34.1898822,91.5028902 C20.8852733,91.5028902 10,80.6170378 10,67.3130079 L10,34.1893032 C10,20.8846942 20.8852733,10 34.1898822,10 L67.313587,10 Z" id="Fill-11" fill="#1FDB84" opacity="0.100000001"></path>
                <path d="M65.9974649,63.1167485 L65.9974649,60.9876956 C65.9974649,59.7961585 65.7308208,59.5415464 64.4805561,59.5415464 L60.005675,59.5415464 C59.65726,59.5031478 59.2886985,59.2845714 58.9752435,59.0340946 C58.9675405,59.0299593 58.9556896,59.0222796 58.9479866,59.0187351 C58.8146645,58.9248063 58.6422346,58.7605786 58.4698048,58.5733117 C58.3832936,58.4829274 58.3009302,58.3937246 58.2227145,58.2997958 L58.2227145,58.2956605 C58.0816894,58.135568 57.9489599,57.9754756 57.8150453,57.8118386 C55.1503816,54.6897396 56.8788281,52.529377 58.7672611,49.5797762 C59.1239717,49.1538475 59.4806823,48.7285095 59.7508817,48.2163316 C60.5543693,46.8528871 61.0011464,45.3216703 61.0011464,43.6179553 C61.0011464,38.3402198 56.5339684,34 50.9065921,34 C45.365727,34.0035445 40.8126303,38.2622411 40.8126303,43.6220906 C40.8126303,45.8373926 41.616118,47.876652 42.9558566,49.4935271 C45.0990829,52.7284588 48.5832329,55.3655544 42.9558566,59.5380019 L37.5951245,59.5380019 C36.6115039,59.5380019 36.0788082,60.0501798 36.0788082,60.9835603 L36.0788082,63.1947272 C36.0788082,64.0465846 36.7057181,63.8746772 37.6851909,63.8746772 L65.1939773,63.8746772 C66.0875314,63.7961078 65.9974649,64.0501291 65.9974649,63.1167485 M65.3308546,66.2146269 L36.6980151,66.2146269 C36.3098997,66.2146269 36,66.6287407 36,67.144463 L36,68.0742991 C36,68.5900214 36.3098997,69 36.6980151,69 L65.252639,69 C65.6407543,69 65.9500615,68.586477 65.9500615,68.0742991 L65.9500615,67.144463 C65.9500615,66.6287407 65.6407543,66.2146269 65.3308546,66.2146269" id="Fill-41" fill="#1FDB84"></path>
            </g>
        </g>
    </g>
</svg>