<?xml version="1.0" encoding="UTF-8"?>
<svg width="102px" height="103px" viewBox="0 0 102 103" version="1.1" xmlns="http://www.w3.org/2000/svg" xmlns:xlink="http://www.w3.org/1999/xlink">
    <!-- Generator: Sketch 54.1 (76490) - https://sketchapp.com -->
    <title>编组 15复制 2</title>
    <desc>Created with Sketch.</desc>
    <g id="Page-1" stroke="none" stroke-width="1" fill="none" fill-rule="evenodd">
        <g id="付费上币" transform="translate(-800.000000, -674.000000)">
            <g id="编组-15复制-2" transform="translate(800.000000, 675.000000)">
                <rect id="矩形" stroke="#6FDEAA" x="0.5" y="0.5" width="101" height="101" rx="28"></rect>
                <path d="M67.5621419,10.2485549 C80.8661718,10.2485549 91.7514451,21.1332491 91.7514451,34.4378581 L91.7514451,67.5615629 C91.7514451,80.8655927 80.8661718,91.7514451 67.5621419,91.7514451 L34.4384371,91.7514451 C21.1338282,91.7514451 10.2485549,80.8655927 10.2485549,67.5615629 L10.2485549,34.4378581 C10.2485549,21.1332491 21.1338282,10.2485549 34.4384371,10.2485549 L67.5621419,10.2485549 Z" id="Fill-11" fill="#1FDB84" opacity="0.100000001"></path>
                <path d="M71,51.5 C71,62.2697735 62.2697735,71 51.5,71 C40.7302265,71 32,62.2697735 32,51.5 C32,40.7302265 40.7302265,32 51.5,32 C62.2697735,32 71,40.7302265 71,51.5 Z M50.6668028,44.1131591 C50.2782027,44.0250603 49.8956368,43.937565 49.5245358,43.8452423 L49.5263461,43.8361911 L47.0595804,43.220103 L46.5840884,45.1305189 C46.5840884,45.1305189 47.9110007,45.4352442 47.8826402,45.4539501 C48.6067397,45.6349749 48.7388879,46.1140874 48.7165615,46.4942397 L47.8814333,49.8425965 C47.9321203,49.8552683 47.9960824,49.8739742 48.067889,49.9023348 C48.0081508,49.8878528 47.9435852,49.8709571 47.8790197,49.8552683 L46.7089955,54.5456229 C46.6196899,54.7658698 46.3952191,55.096542 45.8889528,54.9710314 C45.9064519,54.9963749 44.5885908,54.6463934 44.5885908,54.6463934 L43.700362,56.6943882 L46.028342,57.2748747 C46.4609915,57.3834896 46.8857965,57.4969319 47.303964,57.6037365 L46.5635722,60.5767685 L48.3508912,61.0226931 L49.0834385,58.0810388 C49.5716023,58.2137904 50.0452841,58.3362839 50.5099146,58.450933 L49.7791775,61.3787087 L51.5677033,61.8246333 L52.3080951,58.8570321 C55.3583643,59.4345015 57.6525529,59.2015828 58.6186224,56.4421602 C59.3964259,54.2203815 58.5800037,52.9387254 56.974313,52.1035973 C58.1431303,51.8344736 59.0247215,51.0651179 59.2594504,49.4769263 C59.583485,47.3070414 57.9313312,46.1406378 55.6727442,45.3622308 L56.4052915,42.4235936 L54.6167657,41.9782724 L53.9035277,44.8396723 C53.4334664,44.7220061 52.95013,44.611581 52.4692072,44.5017592 L53.187876,41.6210499 L51.400557,41.1751253 L50.6668028,44.1131591 Z M51.0970386,50.1871472 L51.9882844,46.6149229 C52.9971964,46.8671509 56.2496101,47.3366088 55.724638,49.4449452 C55.4874954,50.3953258 54.6734868,50.6716905 53.7725863,50.6716905 C52.7576402,50.6716905 51.6316654,50.3205022 51.0970386,50.1871472 Z M49.6645284,55.928653 L50.6480969,51.9895516 C51.8603602,52.2924666 55.749378,52.8916589 55.1713052,55.2093808 C54.9190772,56.2213099 54.005505,56.523018 52.9712495,56.523018 C51.7342462,56.523018 50.3252692,56.0927822 49.6645284,55.928653 Z" id="形状结合" fill="#1FDB84"></path>
            </g>
        </g>
    </g>
</svg>