<?xml version="1.0" encoding="UTF-8"?>
<svg width="102px" height="103px" viewBox="0 0 102 103" version="1.1" xmlns="http://www.w3.org/2000/svg" xmlns:xlink="http://www.w3.org/1999/xlink">
    <!-- Generator: Sketch 54.1 (76490) - https://sketchapp.com -->
    <title>编组 15复制 3</title>
    <desc>Created with Sketch.</desc>
    <g id="Page-1" stroke="none" stroke-width="1" fill="none" fill-rule="evenodd">
        <g id="付费上币" transform="translate(-803.000000, -383.000000)">
            <g id="编组-15复制-3" transform="translate(803.000000, 384.000000)">
                <rect id="矩形" stroke="#6FDEAA" x="0.5" y="0.5" width="101" height="101" rx="28"></rect>
                <path d="M67.5621419,10.2485549 C80.8661718,10.2485549 91.7514451,21.1332491 91.7514451,34.4378581 L91.7514451,67.5615629 C91.7514451,80.8655927 80.8661718,91.7514451 67.5621419,91.7514451 L34.4384371,91.7514451 C21.1338282,91.7514451 10.2485549,80.8655927 10.2485549,67.5615629 L10.2485549,34.4378581 C10.2485549,21.1332491 21.1338282,10.2485549 34.4384371,10.2485549 L67.5621419,10.2485549 Z" id="Fill-11" fill="#1FDB84" opacity="0.100000001"></path>
                <path d="M36.2389402,43.1969411 C36.2480912,43.1951752 36.2576462,43.1935435 36.2679475,43.1935435 L41.4211175,43.1935435 L47.7239,36.7845043 C47.6293789,36.5031551 47.5768016,36.1991549 47.5768016,35.8832331 C47.5768016,34.2893184 48.8847367,33 50.5022284,33 C52.1191293,33 53.4270644,34.2893184 53.4270644,35.8832331 C53.4270644,36.1991549 53.3738963,36.4989825 53.279966,36.7845043 L59.5827485,43.1893709 L64.7317832,43.1893709 C64.7522009,43.1893709 64.7696864,43.1957812 64.7895735,43.1969411 L65.3799614,43.1969411 C66.0699651,43.2118431 66.725705,43.4896158 67.216033,43.9843612 C67.7211299,44.4940086 68.0035116,45.1866521 67.999967,45.9055232 L67.999967,66.2878415 C67.999967,67.7863836 66.7971865,69 65.3126151,69 L35.6879426,69 C34.2027805,69 33,67.7863836 33,66.284265 L33,45.9013506 C33,44.429036 34.1685166,43.2350902 35.6235502,43.1969411 L36.2389402,43.1969411 Z M48.903641,38.2985444 L44.1279644,43.1935435 L56.8682218,43.1935435 L52.0925452,38.2985444 C51.6364811,38.5947956 51.0858959,38.7658702 50.4980931,38.7658702 C49.9102903,38.7658702 49.3632496,38.5947956 48.903641,38.2985444 Z M59.9255055,51.3441461 C60.6680866,51.3441461 61.2712491,50.7355496 61.2712491,49.9862786 C61.2712491,49.2370076 60.6680866,48.6284111 59.9255055,48.6284111 L41.0780061,48.6284111 C40.335425,48.6284111 39.7322625,49.2370076 39.7322625,49.9862786 C39.7322625,50.7355496 40.335425,51.3441461 41.0780061,51.3441461 L59.9255055,51.3441461 Z M59.9255055,58.1334836 C60.6680866,58.1334836 61.2712491,57.5248871 61.2712491,56.7756161 C61.2712491,56.0257489 60.6680866,55.4177486 59.9255055,55.4177486 L41.0780061,55.4177486 C40.335425,55.4177486 39.7322625,56.0257489 39.7322625,56.7756161 C39.7322625,57.5248871 40.335425,58.1334836 41.0780061,58.1334836 L59.9255055,58.1334836 Z M51.8474994,64.9263975 C52.593625,64.9263975 53.193243,64.3178011 53.193243,63.56853 C53.193243,62.819259 52.5900805,62.2106625 51.8474994,62.2106625 L41.0780061,62.2106625 C40.335425,62.2106625 39.7322625,62.819259 39.7322625,63.56853 C39.7322625,64.3178011 40.335425,64.9263975 41.0780061,64.9263975 L51.8474994,64.9263975 Z" id="形状结合" fill="#1FDB84"></path>
            </g>
        </g>
    </g>
</svg>