<?xml version="1.0" encoding="UTF-8"?>
<svg width="102px" height="102px" viewBox="0 0 102 102" version="1.1" xmlns="http://www.w3.org/2000/svg" xmlns:xlink="http://www.w3.org/1999/xlink">
    <!-- Generator: Sketch 54.1 (76490) - https://sketchapp.com -->
    <title>编组 15复制 4</title>
    <desc>Created with Sketch.</desc>
    <g id="Page-1" stroke="none" stroke-width="1" fill="none" fill-rule="evenodd">
        <g id="付费上币" transform="translate(-1231.000000, -674.000000)">
            <g id="编组-15复制-8" transform="translate(1231.000000, 674.000000)">
                <rect id="矩形" stroke="#6FDEAA" x="0.5" y="0.5" width="101" height="101" rx="28"></rect>
                <path d="M67.5621419,10.2485549 C80.8661718,10.2485549 91.7514451,21.1332491 91.7514451,34.4378581 L91.7514451,67.5615629 C91.7514451,80.8655927 80.8661718,91.7514451 67.5621419,91.7514451 L34.4384371,91.7514451 C21.1338282,91.7514451 10.2485549,80.8655927 10.2485549,67.5615629 L10.2485549,34.4378581 C10.2485549,21.1332491 21.1338282,10.2485549 34.4384371,10.2485549 L67.5621419,10.2485549 Z" id="Fill-11" fill="#1FDB84" opacity="0.100000001"></path>
                <path d="M60.5248173,47.7659749 L47.1166326,59.5462146 C46.618708,59.9835136 45.8762935,59.9954399 45.3664426,59.5690734 L37.502017,53.044373 C36.9315405,52.5683134 36.8510377,51.7195557 37.322128,51.1480854 L37.6461269,50.7574978 C38.1221865,50.1860275 38.9709442,50.1055247 39.5414206,50.5776089 L45.3087986,55.361064 C45.8146741,55.7824613 46.5570886,55.7715288 47.0589886,55.3382052 L58.4128617,45.3578486 C58.9724057,44.866881 59.8251388,44.9205495 60.312131,45.4790997 L60.6500438,45.8597486 C61.1410114,46.4192926 61.0833674,47.2750073 60.5248173,47.7659749 M49,34 C39.6129787,34 32,41.6099971 32,51 C32,60.3909968 39.6129787,68 49,68 C58.3939784,68 66,60.3909968 66,51 C66,41.6099971 58.3830459,34 49,34" id="Fill-52" fill="#1FDB84"></path>
            </g>
        </g>
    </g>
</svg>