<?xml version="1.0" encoding="UTF-8"?>
<svg width="102px" height="103px" viewBox="0 0 102 103" version="1.1" xmlns="http://www.w3.org/2000/svg" xmlns:xlink="http://www.w3.org/1999/xlink">
    <!-- Generator: Sketch 54.1 (76490) - https://sketchapp.com -->
    <title>编组 15</title>
    <desc>Created with Sketch.</desc>
    <g id="Page-1" stroke="none" stroke-width="1" fill="none" fill-rule="evenodd">
        <g id="付费上币" transform="translate(-375.000000, -383.000000)">
            <g id="编组-15" transform="translate(375.000000, 384.000000)">
                <rect id="矩形" stroke="#6FDEAA" x="0.5" y="0.5" width="101" height="101" rx="28"></rect>
                <path d="M67.5621419,10.2485549 C80.8661718,10.2485549 91.7514451,21.1332491 91.7514451,34.4378581 L91.7514451,67.5615629 C91.7514451,80.8655927 80.8661718,91.7514451 67.5621419,91.7514451 L34.4384371,91.7514451 C21.1338282,91.7514451 10.2485549,80.8655927 10.2485549,67.5615629 L10.2485549,34.4378581 C10.2485549,21.1332491 21.1338282,10.2485549 34.4384371,10.2485549 L67.5621419,10.2485549 Z" id="Fill-11" fill="#1FDB84" opacity="0.100000001"></path>
                <path d="M43.4469013,52.8952097 L52.804579,52.8952097 C53.4337257,52.8952097 53.93201,52.3830452 53.93201,51.7682467 L53.93201,51.7531534 C53.93201,51.1242678 53.4186262,50.6261904 52.804579,50.6261904 L43.4469013,50.6261904 C42.8177545,50.6261904 42.3053773,51.1393611 42.3053773,51.7682467 L42.3053773,51.7833399 C42.3194702,52.4132318 42.832854,52.9103029 43.4469013,52.8952097 Z M49.9487558,58.6920257 C50.5638097,58.6920257 51.0761869,58.1798613 51.0761869,57.5499695 C51.0761869,56.9210838 50.5638097,56.4079132 49.9336563,56.4079132 L43.4469013,56.4079132 C42.8177545,56.4079132 42.3053773,56.9210838 42.3053773,57.5499695 C42.3053773,58.1798613 42.8177545,58.6920257 43.4469013,58.6920257 L49.9487558,58.6920257 Z M43.4469013,44.2749488 C42.8177545,44.2749488 42.3053773,44.786107 42.3053773,45.4159989 C42.3053773,46.0448845 42.8177545,46.5570489 43.4469013,46.5570489 L57.0948567,46.5570489 C57.7250102,46.5570489 58.2363807,46.0448845 58.2363807,45.4159989 C58.2363807,44.786107 57.7250102,44.2749488 57.0948567,44.2749488 L43.4469013,44.2749488 Z M54.5611568,61.5023898 C54.6779264,61.6040177 54.7957027,61.6925648 54.913479,61.7650124 C56.4798028,62.7903475 58.5887029,62.3506307 59.6134572,60.7698638 L62.205542,56.7449959 C62.2347344,56.7007223 62.2780197,56.6866353 62.3223116,56.6866353 C62.4098888,56.6866353 62.4682737,56.7600891 62.4682737,56.8325367 L62.4682737,60.4478744 C62.4682737,62.9664355 60.432858,65 57.9142575,65 L42.5399232,65 C40.0354157,64.985913 38.0150995,62.9513422 38,60.4478744 L38,41.5662127 C38,39.0486578 40.0354157,37.014087 42.5399232,37 L58.0028414,37 C60.5214418,37.014087 62.5558509,39.0486578 62.541758,41.5662127 L62.541758,44.0988608 L54.0044877,56.8325367 C52.9807401,58.3116757 53.2293789,60.3160599 54.5611568,61.5023898 Z M56.8072612,58.9177074 L56.3099835,57.1457593 L65.5196859,43.4612083 C65.7985238,43.0798521 66.3109009,42.977218 66.7065084,43.2257536 L67.628586,43.8556454 L67.6436855,43.8707386 C68.0241935,44.1343675 68.1117707,44.660619 67.849039,45.040969 L58.6232305,58.7124392 L56.8072612,58.9177074 Z" id="形状结合" fill="#1FDB84"></path>
            </g>
        </g>
    </g>
</svg>