<?xml version="1.0" encoding="UTF-8"?>
<svg width="102px" height="103px" viewBox="0 0 102 103" version="1.1" xmlns="http://www.w3.org/2000/svg" xmlns:xlink="http://www.w3.org/1999/xlink">
    <!-- Generator: Sketch 54.1 (76490) - https://sketchapp.com -->
    <title>编组 15复制</title>
    <desc>Created with Sketch.</desc>
    <g id="Page-1" stroke="none" stroke-width="1" fill="none" fill-rule="evenodd">
        <g id="付费上币" transform="translate(-589.000000, -383.000000)">
            <g id="编组-2" transform="translate(589.000000, 384.000000)">
                <g id="编组-15复制" transform="translate(1.000000, 1.000000)">
                    <rect id="矩形" stroke="#6FDEAA" x="-0.5" y="-0.5" width="101" height="101" rx="28"></rect>
                    <path d="M66.5621419,9.24855491 C79.8661718,9.24855491 90.7514451,20.1332491 90.7514451,33.4378581 L90.7514451,66.5615629 C90.7514451,79.8655927 79.8661718,90.7514451 66.5621419,90.7514451 L33.4384371,90.7514451 C20.1338282,90.7514451 9.24855491,79.8655927 9.24855491,66.5615629 L9.24855491,33.4378581 C9.24855491,20.1332491 20.1338282,9.24855491 33.4384371,9.24855491 L66.5621419,9.24855491 Z" id="Fill-11" fill="#1FDB84" opacity="0.100000001"></path>
                </g>
                <path d="M49.2207604,35 C54.2819841,35 58.3838908,39.1408202 58.3838908,44.2477981 C58.3838908,45.334346 58.1783945,46.3632281 57.8345641,47.3303974 L56.3088793,47.3303974 C56.2838188,47.3870517 56.255751,47.4416826 56.2286856,47.4983369 L56.2286856,47.3303974 L48.2534242,47.3303974 L48.2534242,65.8249818 L36.0369195,65.8249818 L36.0369195,65.8290286 L35.0615638,65.8270052 L34,65.8249818 C34.4440725,59.3481846 38.7895675,54.0054846 44.6627522,52.1460104 C41.8850436,50.5667726 40.0576301,47.6359258 40.0576301,44.2477981 C40.0576301,39.1408202 44.1605392,35 49.2207604,35 Z M54.7834953,60.4750988 L54.7834953,58.4203698 L58.8553294,58.4203698 L58.8553294,60.4750988 L54.7834953,60.4750988 Z M54.7834953,56.3656408 L54.7834953,54.3109118 L62.9281659,54.3109118 L62.9281659,56.3656408 L54.7834953,56.3656408 Z M52.7465758,65.945271 L64.964083,65.945271 L64.964083,51.5601446 L52.7465758,51.5601446 L52.7465758,65.945271 Z M50.7106588,68 L50.7106588,49.5054156 L67,49.5054156 L67,68 L50.7106588,68 Z" id="形状结合" fill="#1FDB84"></path>
            </g>
        </g>
    </g>
</svg>