<?xml version="1.0" encoding="UTF-8"?>
<svg width="102px" height="103px" viewBox="0 0 102 103" version="1.1" xmlns="http://www.w3.org/2000/svg" xmlns:xlink="http://www.w3.org/1999/xlink">
    <!-- Generator: Sketch 54.1 (76490) - https://sketchapp.com -->
    <title>编组 15复制 5</title>
    <desc>Created with Sketch.</desc>
    <g id="Page-1" stroke="none" stroke-width="1" fill="none" fill-rule="evenodd">
        <g id="付费上币" transform="translate(-1231.000000, -383.000000)">
            <g id="编组-15复制-5" transform="translate(1231.000000, 384.000000)">
                <rect id="矩形" stroke="#6FDEAA" x="0.5" y="0.5" width="101" height="101" rx="28"></rect>
                <path d="M67.5621419,10.2485549 C80.8661718,10.2485549 91.7514451,21.1332491 91.7514451,34.4378581 L91.7514451,67.5615629 C91.7514451,80.8655927 80.8661718,91.7514451 67.5621419,91.7514451 L34.4384371,91.7514451 C21.1338282,91.7514451 10.2485549,80.8655927 10.2485549,67.5615629 L10.2485549,34.4378581 C10.2485549,21.1332491 21.1338282,10.2485549 34.4384371,10.2485549 L67.5621419,10.2485549 Z" id="Fill-11" fill="#1FDB84" opacity="0.100000001"></path>
                <path d="M51,34 C41.6119848,34 34,41.6117623 34,50.9995031 C34,60.3882377 41.6119848,68 51,68 C60.3880152,68 68,60.3882377 68,50.9995031 C68,41.6117623 60.3880152,34 51,34 M43.0242619,46.5769489 L46.9023093,42.259741 C47.3266881,41.7886645 48.052207,41.7508988 48.5232973,42.1762591 C48.5292605,42.1802344 48.5342298,42.1852036 48.5391991,42.1901728 C49.0182403,42.6354097 49.0550132,43.3956914 48.6206957,43.8866446 L46.5534639,46.1903481 L58.0246127,46.1903481 C58.6716165,46.191342 59.1933937,46.7280115 59.1933937,47.3918915 C59.1933937,48.0557715 58.6696288,48.592441 58.022625,48.592441 L43.8839521,48.592441 C42.8632564,48.592441 42.3325343,47.3451814 43.0242619,46.5769489 M58.983689,55.4270264 L55.1056416,59.7432405 L55.0897398,59.7601356 C54.665361,60.2302184 53.9378544,60.2669901 53.467758,59.8406361 C53.4578194,59.8316916 53.4478807,59.8217532 53.4369483,59.8128087 C52.9668518,59.3526643 52.943993,58.6023209 53.3862613,58.115343 L55.4534931,55.8126334 L43.9823443,55.8126334 C43.3373283,55.8126334 42.8145571,55.2759639 42.8145571,54.6120838 C42.8145571,53.9491976 43.3373283,53.4115343 43.9833382,53.4115343 L58.1239988,53.4115343 C59.1437007,53.4115343 59.6754165,54.6578001 58.983689,55.4280202" id="Fill-55" fill="#1FDB84"></path>
            </g>
        </g>
    </g>
</svg>